{"glyphs":{"0":{"ha":848,"x_min":52,"x_max":796,"o":"m 732 713 q 642 930 732 840 q 424 1020 551 1020 q 206 930 296 1020 q 116 713 116 840 l 116 353 q 206 136 116 226 q 424 46 296 46 q 642 136 551 46 q 732 353 732 226 l 732 713 m 796 353 q 687 90 796 199 q 424 -19 578 -19 q 161 90 270 -19 q 52 353 52 199 l 52 713 q 161 976 52 867 q 424 1085 270 1085 q 687 976 578 1085 q 796 713 796 867 l 796 353 z "},"1":{"ha":848,"x_min":361,"x_max":486,"o":"m 486 1085 l 486 0 l 425 0 l 425 978 l 361 978 l 444 1085 l 486 1085 z "},"2":{"ha":848,"x_min":102,"x_max":745,"o":"m 106 0 q 249 294 137 210 q 448 443 361 378 q 608 588 534 507 q 682 776 682 669 q 606 960 682 884 q 422 1036 530 1036 q 239 960 315 1036 q 164 804 174 895 l 102 827 q 193 1004 118 928 q 422 1100 288 1100 q 651 1005 556 1100 q 745 776 745 910 q 652 543 745 642 q 503 410 589 474 q 309 264 417 345 q 175 61 201 184 l 745 61 l 745 0 l 106 0 z "},"3":{"ha":848,"x_min":102,"x_max":745,"o":"m 386 606 l 335 607 l 335 668 q 438 684 398 669 q 526 750 479 700 q 573 869 573 800 q 524 988 573 939 q 406 1036 475 1036 q 288 988 338 1036 q 248 926 261 960 l 190 949 q 242 1032 205 996 q 406 1100 311 1100 q 571 1032 503 1100 q 638 869 638 964 q 587 718 638 773 q 490 644 535 663 q 652 543 588 612 q 745 309 745 443 q 651 80 745 175 q 422 -15 556 -15 q 193 81 288 -15 q 102 258 118 157 l 164 281 q 239 125 174 191 q 422 50 315 50 q 606 125 530 50 q 682 309 682 201 q 608 497 682 416 q 386 606 534 578 z "},"4":{"ha":848,"x_min":117,"x_max":730,"o":"m 565 1085 l 626 1085 l 626 378 l 730 378 l 730 317 l 626 317 l 626 0 l 565 0 l 565 317 l 117 317 l 565 1085 m 565 954 l 222 378 l 565 378 l 565 954 z "},"5":{"ha":848,"x_min":79,"x_max":769,"o":"m 191 748 q 267 768 225 759 q 351 776 311 776 q 494 752 426 776 q 722 559 648 700 q 769 380 769 472 q 751 266 769 323 q 564 38 705 113 q 388 -7 479 -7 q 271 11 330 -7 q 79 142 149 48 l 123 191 q 290 72 180 105 q 386 57 338 57 q 534 95 462 57 q 690 285 651 157 q 705 381 705 334 q 667 530 705 457 q 477 691 604 646 q 356 710 422 710 q 165 677 270 710 l 116 720 l 241 1063 l 241 1085 l 580 1085 l 580 1024 l 292 1024 l 191 748 z "},"6":{"ha":848,"x_min":50,"x_max":798,"o":"m 208 571 q 163 526 208 571 q 118 353 118 481 q 208 136 118 226 q 426 46 298 46 q 644 136 553 46 q 734 353 734 226 q 644 571 734 481 q 426 661 553 661 q 208 571 298 661 m 184 637 q 426 726 287 726 q 689 617 581 726 q 798 353 798 508 q 689 90 798 199 q 426 -19 581 -19 q 163 90 272 -19 q 54 342 58 195 l 50 342 q 165 733 56 581 q 433 1064 273 885 q 452 1085 443 1075 l 536 1085 q 507 1051 522 1068 q 224 703 329 852 q 184 637 202 672 z "},"7":{"ha":848,"x_min":104,"x_max":743,"o":"m 743 1085 q 561 709 739 909 q 279 361 383 510 q 168 0 174 213 l 104 0 q 219 391 111 239 q 488 722 328 543 q 674 1024 648 901 l 104 1024 l 104 1085 l 743 1085 z "},"8":{"ha":848,"x_min":73,"x_max":775,"o":"m 423 51 l 425 51 q 452 50 438 50 q 635 125 559 50 q 711 309 711 201 q 637 497 711 416 q 424 604 566 576 q 210 497 282 576 q 136 309 136 416 q 212 125 136 201 q 396 50 288 50 q 423 51 410 50 m 424 -14 q 396 -15 410 -15 q 167 80 262 -15 q 73 309 73 175 q 165 543 73 443 q 328 644 230 612 q 231 718 283 663 q 180 869 180 773 q 247 1032 180 964 q 412 1100 315 1100 l 436 1100 q 601 1032 533 1100 q 668 869 668 964 q 616 718 668 773 q 520 644 565 663 q 682 543 618 612 q 775 309 775 443 q 681 80 775 175 q 452 -15 586 -15 q 424 -14 438 -15 m 423 1036 q 412 1036 418 1036 q 294 988 342 1036 q 245 869 245 939 q 292 750 245 800 q 379 684 339 700 q 424 673 399 677 q 469 684 448 677 q 556 750 509 700 q 603 869 603 800 q 554 988 603 939 q 436 1036 505 1036 q 425 1036 430 1036 l 423 1036 z "},"9":{"ha":848,"x_min":50,"x_max":798,"o":"m 640 495 q 685 540 640 495 q 730 713 730 585 q 640 930 730 840 q 422 1020 549 1020 q 204 930 294 1020 q 114 713 114 840 q 204 495 114 585 q 422 405 294 405 q 640 495 549 405 m 663 429 q 422 340 561 340 q 158 449 267 340 q 50 713 50 558 q 158 976 50 867 q 422 1085 267 1085 q 685 976 576 1085 q 794 724 790 871 l 798 724 q 683 333 791 485 q 414 2 574 181 q 396 -19 405 -9 l 312 -19 q 340 15 326 -2 q 623 363 519 214 q 663 429 646 394 z "}," ":{"ha":480,"x_min":0,"x_max":0,"o":""},"!":{"ha":292,"x_min":85,"x_max":207,"o":"m 146 112 q 189 94 171 112 q 207 52 207 77 q 189 8 207 26 q 146 -9 171 -9 q 103 8 121 -9 q 85 52 85 26 q 103 94 85 77 q 146 112 121 112 m 175 1085 l 175 187 l 114 187 l 114 1085 l 175 1085 z "},"\"":{"ha":390,"x_min":85,"x_max":305,"o":"m 85 676 l 85 1083 l 146 1083 l 146 676 l 85 676 m 244 676 l 244 1083 l 305 1083 l 305 676 l 244 676 z "},"#":{"ha":1121,"x_min":85,"x_max":1036,"o":"m 517 668 l 673 668 l 749 970 l 810 970 l 734 668 l 1036 668 l 1021 607 l 719 607 l 680 451 l 982 451 l 966 390 l 665 390 l 589 88 l 528 88 l 604 390 l 448 390 l 372 88 l 311 88 l 387 390 l 85 390 l 100 451 l 402 451 l 441 607 l 139 607 l 155 668 l 456 668 l 532 970 l 593 970 l 517 668 m 658 607 l 502 607 l 463 451 l 619 451 l 658 607 z "},"$":{"ha":686,"x_min":68,"x_max":618,"o":"m 377 581 l 377 128 q 496 190 445 138 q 560 345 560 254 q 496 498 560 435 q 377 581 446 549 m 316 958 q 243 920 274 951 q 201 821 201 879 q 242 722 201 762 q 316 668 271 693 l 316 958 m 316 604 q 201 680 245 635 q 142 821 142 738 q 201 960 142 901 q 316 1017 250 1009 l 316 1127 l 377 1127 l 377 1015 q 482 960 437 1005 q 528 887 514 929 l 475 866 q 440 920 463 897 q 377 956 412 947 l 377 642 q 537 539 470 606 q 618 345 618 458 q 537 149 618 229 q 377 69 469 80 l 377 -26 l 316 -26 l 316 68 q 146 149 218 76 q 68 302 81 214 l 123 322 q 187 189 132 244 q 316 127 242 134 l 316 604 z "},"%":{"ha":828,"x_min":54,"x_max":774,"o":"m 751 891 l 128 2 l 78 37 l 701 926 l 751 891 m 211 824 q 322 778 276 824 q 368 667 368 732 q 322 556 368 602 q 211 511 276 511 q 100 556 146 511 q 54 667 54 602 q 100 778 54 732 q 211 824 146 824 m 211 765 q 142 736 170 765 q 113 667 113 708 q 142 598 113 627 q 211 570 170 570 q 280 598 251 570 q 309 667 309 627 q 280 736 309 708 q 211 765 251 765 m 618 417 q 729 371 683 417 q 774 260 774 326 q 729 150 774 195 q 618 104 683 104 q 507 150 553 104 q 461 260 461 195 q 507 371 461 326 q 618 417 553 417 m 618 358 q 549 330 577 358 q 520 260 520 301 q 549 191 520 220 q 618 163 577 163 q 687 191 658 163 q 715 260 715 220 q 687 330 715 301 q 618 358 658 358 z "},"&":{"ha":884,"x_min":51,"x_max":823,"o":"m 621 224 q 604 233 612 228 q 522 302 571 251 q 476 339 490 332 q 446 347 461 347 q 429 345 437 347 q 393 317 405 338 q 384 287 384 302 q 387 270 384 279 q 413 235 393 245 q 448 228 426 228 q 476 230 460 228 l 470 174 q 436 170 453 170 q 383 184 409 170 q 330 254 342 206 q 325 287 325 271 q 341 345 325 317 q 414 401 366 389 q 447 406 431 406 q 505 390 477 406 q 575 330 532 375 q 633 283 614 294 q 675 272 653 272 q 699 275 687 272 q 753 317 734 285 q 764 359 764 338 q 761 383 764 371 q 720 436 751 418 q 677 447 701 447 q 641 441 661 447 l 640 502 q 678 507 659 507 q 749 488 714 507 q 818 399 802 458 q 823 359 823 378 q 804 288 823 322 q 714 219 774 235 q 680 214 696 214 q 600 82 658 140 q 372 -13 505 -13 q 145 81 239 -13 q 51 309 51 176 q 144 541 51 442 q 309 644 208 610 q 209 719 260 665 q 158 869 158 774 q 225 1030 158 963 q 388 1098 292 1098 q 551 1031 483 1098 q 602 950 588 995 l 547 928 q 507 989 535 962 q 388 1038 458 1038 q 269 989 318 1038 q 219 869 219 940 q 267 749 219 800 q 355 682 315 698 q 457 666 396 667 l 457 609 l 408 608 q 185 498 260 580 q 111 309 111 417 q 187 124 111 201 q 372 47 264 47 q 557 124 480 47 q 621 224 602 169 z "},"'":{"ha":231,"x_min":85,"x_max":146,"o":"m 85 676 l 85 1083 l 146 1083 l 146 676 l 85 676 z "},"(":{"ha":477,"x_min":68,"x_max":409,"o":"m 409 1104 q 243 969 317 1062 q 121 543 121 814 q 243 115 121 270 q 409 -22 317 22 l 409 -79 q 206 72 295 -40 q 68 543 68 244 q 206 1013 68 840 q 409 1164 295 1125 l 409 1104 z "},")":{"ha":477,"x_min":68,"x_max":409,"o":"m 68 1164 q 271 1013 182 1125 q 409 543 409 840 q 271 72 409 244 q 68 -79 182 -40 l 68 -22 q 233 115 159 22 q 356 543 356 270 q 233 969 356 814 q 68 1104 159 1062 l 68 1164 z "},"*":{"ha":543,"x_min":87,"x_max":455,"o":"m 302 939 l 420 1021 l 455 971 l 324 880 l 455 788 l 420 738 l 302 821 l 302 676 l 241 676 l 241 821 l 122 738 l 87 788 l 218 880 l 87 971 l 122 1021 l 241 938 l 241 1083 l 302 1083 l 302 939 z "},"+":{"ha":712,"x_min":85,"x_max":627,"o":"m 326 371 l 85 371 l 85 432 l 326 432 l 326 673 l 387 673 l 387 432 l 627 432 l 627 371 l 387 371 l 387 130 l 326 130 l 326 371 z "},",":{"ha":257,"x_min":7,"x_max":189,"o":"m 189 113 l 64 -149 l 7 -149 l 77 113 l 189 113 z "},"-":{"ha":570,"x_min":85,"x_max":485,"o":"m 85 432 l 485 432 l 485 371 l 85 371 l 85 432 z "},".":{"ha":258,"x_min":68,"x_max":190,"o":"m 129 112 q 172 94 154 112 q 190 52 190 77 q 172 8 190 26 q 129 -9 154 -9 q 86 8 104 -9 q 68 52 68 26 q 86 94 68 77 q 129 112 104 112 z "},"/":{"ha":493,"x_min":-34,"x_max":527,"o":"m 457 1085 l 527 1085 l 35 0 l -34 0 l 457 1085 z "},":":{"ha":292,"x_min":85,"x_max":207,"o":"m 146 112 q 189 94 171 112 q 207 52 207 77 q 189 8 207 26 q 146 -9 171 -9 q 103 8 121 -9 q 85 52 85 26 q 103 94 85 77 q 146 112 121 112 m 146 530 q 189 513 171 530 q 207 470 207 495 q 189 427 207 444 q 146 409 171 409 q 103 427 121 409 q 85 470 85 444 q 103 513 85 495 q 146 530 121 530 z "},";":{"ha":323,"x_min":56,"x_max":239,"o":"m 239 113 l 113 -149 l 56 -149 l 126 113 l 239 113 m 146 530 q 189 513 171 530 q 207 470 207 495 q 189 427 207 444 q 146 409 171 409 q 103 427 121 409 q 85 470 85 444 q 103 513 85 495 q 146 530 121 530 z "},"<":{"ha":915,"x_min":68,"x_max":847,"o":"m 847 98 l 68 382 l 847 665 l 847 600 l 246 382 l 847 163 l 847 98 z "},"=":{"ha":712,"x_min":85,"x_max":627,"o":"m 85 541 l 627 541 l 627 479 l 85 479 l 85 541 m 85 323 l 627 323 l 627 262 l 85 262 l 85 323 z "},">":{"ha":915,"x_min":68,"x_max":847,"o":"m 68 163 l 669 382 l 68 600 l 68 665 l 847 382 l 68 98 l 68 163 z "},"?":{"ha":648,"x_min":86,"x_max":546,"o":"m 385 555 q 264 399 305 485 q 237 287 237 344 q 253 199 237 243 l 197 180 q 178 287 178 234 q 211 425 178 357 q 374 621 265 538 q 467 742 439 684 q 484 815 484 778 q 475 871 484 843 q 388 968 451 937 q 315 985 352 985 q 259 975 288 985 q 163 889 193 951 q 146 818 146 854 l 86 821 l 86 826 q 108 913 86 870 q 239 1031 150 1000 q 317 1044 279 1044 q 416 1021 367 1044 q 532 891 501 980 q 546 814 546 852 q 522 715 546 764 q 385 555 481 629 m 221 112 q 264 94 246 112 q 282 52 282 77 q 264 8 282 26 q 221 -9 246 -9 q 178 8 196 -9 q 160 52 160 26 q 178 94 160 77 q 221 112 196 112 z "},"@":{"ha":1103,"x_min":85,"x_max":1018,"o":"m 738 328 l 738 417 q 688 507 726 468 q 553 563 632 563 q 419 507 475 563 q 364 372 364 451 q 419 238 364 294 q 553 182 475 182 q 688 238 632 182 q 738 328 726 277 m 736 212 q 552 126 654 126 q 378 199 450 126 q 305 372 305 271 q 378 547 305 474 q 552 619 450 619 q 736 533 654 619 l 736 610 l 791 610 l 791 171 q 829 142 804 142 q 911 217 859 142 q 964 371 964 292 q 843 662 964 541 q 552 783 722 783 q 261 662 382 783 q 141 371 141 541 q 261 80 141 201 q 552 -40 382 -40 q 722 -7 669 -40 l 761 -47 q 552 -95 680 -95 q 222 42 359 -95 q 85 371 85 179 q 222 701 85 564 q 552 838 359 838 q 882 701 745 838 q 1018 371 1018 564 q 955 186 1018 285 q 817 88 892 88 q 800 90 808 88 q 736 157 741 102 l 736 212 z "},"A":{"ha":876,"x_min":34,"x_max":842,"o":"m 604 477 l 438 932 l 273 477 l 604 477 m 626 416 l 250 416 l 99 0 l 34 0 l 438 1110 l 842 0 l 777 0 l 626 416 z "},"B":{"ha":723,"x_min":102,"x_max":662,"o":"m 294 1085 q 437 1026 378 1085 q 496 884 496 967 q 410 727 496 800 q 553 637 486 711 q 662 374 662 528 q 553 107 662 220 q 312 1 452 3 l 312 0 l 102 0 l 102 1085 l 294 1085 m 163 682 l 163 61 l 312 61 l 312 60 q 507 153 425 68 q 597 374 597 246 q 507 591 597 501 q 290 682 417 682 l 163 682 m 163 1024 l 163 747 l 310 747 q 397 785 361 751 q 438 884 438 823 q 397 984 438 945 q 294 1024 355 1024 l 163 1024 z "},"C":{"ha":1082,"x_min":85,"x_max":1014,"o":"m 968 173 l 1014 132 q 640 -13 855 -13 q 247 150 410 -13 q 85 543 85 312 q 247 935 85 772 q 640 1098 410 1098 q 1014 954 855 1098 l 968 911 q 640 1036 828 1036 q 292 891 436 1036 q 147 543 147 747 q 292 193 147 338 q 640 49 436 49 q 968 173 828 49 z "},"D":{"ha":813,"x_min":102,"x_max":745,"o":"m 163 1021 l 163 63 l 168 63 q 538 193 409 63 q 683 543 683 338 q 538 892 683 747 q 168 1021 409 1021 l 163 1021 m 163 1084 l 168 1084 q 583 936 435 1084 q 745 543 745 772 q 583 149 745 312 q 168 1 435 1 l 163 1 l 163 0 l 102 0 l 102 1085 l 163 1085 l 163 1084 z "},"E":{"ha":729,"x_min":102,"x_max":644,"o":"m 644 1085 l 644 1024 l 163 1024 l 163 573 l 644 573 l 644 512 l 163 512 l 163 61 l 644 61 l 644 0 l 102 0 l 102 1085 l 644 1085 z "},"F":{"ha":661,"x_min":102,"x_max":576,"o":"m 576 1085 l 576 1024 l 163 1024 l 163 573 l 576 573 l 576 512 l 163 512 l 163 0 l 102 0 l 102 1085 l 576 1085 z "},"G":{"ha":1099,"x_min":85,"x_max":1014,"o":"m 1010 135 q 640 -13 855 -13 q 247 150 410 -13 q 85 543 85 312 q 247 935 85 772 q 640 1098 410 1098 q 1014 954 855 1098 l 968 911 q 640 1036 828 1036 q 292 891 436 1036 q 147 543 147 747 q 292 193 147 338 q 640 49 436 49 q 949 157 815 49 l 949 488 l 1010 488 l 1010 135 z "},"H":{"ha":780,"x_min":102,"x_max":678,"o":"m 163 486 l 163 0 l 102 0 l 102 1085 l 163 1085 l 163 547 l 617 547 l 617 1085 l 678 1085 l 678 0 l 617 0 l 617 486 l 163 486 z "},"I":{"ha":292,"x_min":115,"x_max":176,"o":"m 176 1085 l 176 0 l 115 0 l 115 1085 l 176 1085 z "},"J":{"ha":581,"x_min":85,"x_max":476,"o":"m 476 206 q 422 49 476 103 q 282 -9 364 -9 q 142 48 200 -9 q 85 176 85 106 l 125 191 q 182 81 138 118 q 265 50 219 50 q 282 52 273 50 q 379 92 338 52 q 415 213 415 127 l 415 1085 l 476 1085 l 476 206 z "},"K":{"ha":744,"x_min":102,"x_max":683,"o":"m 163 526 l 163 0 l 102 0 l 102 1085 l 163 1085 l 163 623 l 509 1085 l 588 1085 l 262 648 l 683 0 l 608 0 l 222 600 l 163 526 z "},"L":{"ha":644,"x_min":102,"x_max":583,"o":"m 102 0 l 102 1085 l 163 1085 l 163 61 l 583 61 l 583 0 l 102 0 z "},"M":{"ha":1158,"x_min":102,"x_max":1056,"o":"m 172 1085 l 579 380 l 986 1085 l 1056 1085 l 1053 1080 l 1053 0 l 992 0 l 992 975 l 579 260 l 165 975 l 165 0 l 104 0 l 104 1080 l 102 1085 l 172 1085 z "},"N":{"ha":889,"x_min":102,"x_max":787,"o":"m 102 1085 l 169 1085 l 726 120 l 726 1085 l 787 1085 l 787 0 l 726 0 l 163 975 l 163 0 l 102 0 l 102 1085 z "},"O":{"ha":1283,"x_min":85,"x_max":1198,"o":"m 642 1101 q 1035 938 872 1101 q 1198 544 1198 774 q 1035 150 1198 313 q 642 -13 872 -13 q 248 150 411 -13 q 85 544 85 313 q 248 938 85 774 q 642 1101 411 1101 m 642 1038 q 292 893 437 1038 q 147 544 147 749 q 292 194 147 339 q 642 49 437 49 q 991 194 846 49 q 1136 544 1136 339 q 991 893 1136 749 q 642 1038 846 1038 z "},"P":{"ha":739,"x_min":102,"x_max":701,"o":"m 163 376 l 163 0 l 102 0 l 102 1085 l 387 1085 q 597 981 511 1068 q 701 731 701 878 q 597 480 701 584 q 347 376 494 376 l 163 376 m 163 1023 l 163 438 l 347 438 q 554 524 468 438 q 640 731 640 610 q 554 938 640 852 q 347 1023 468 1023 l 163 1023 z "},"Q":{"ha":1283,"x_min":85,"x_max":1198,"o":"m 642 1038 q 292 893 437 1038 q 147 544 147 749 q 292 194 147 339 q 642 49 437 49 q 991 194 846 49 q 1136 544 1136 339 q 991 893 1136 749 q 642 1038 846 1038 m 635 -13 q 248 151 409 -11 q 85 544 85 313 q 248 938 85 774 q 642 1101 411 1101 q 1035 938 872 1101 q 1198 544 1198 774 q 1036 151 1198 313 q 765 0 918 33 q 772 -2 768 -1 q 905 -68 821 -16 q 985 -106 962 -99 q 1013 -110 1000 -110 q 1061 -97 1038 -110 q 1107 -37 1097 -77 q 1112 -16 1111 -26 l 1173 -16 q 1166 -53 1172 -34 q 1090 -149 1148 -117 q 1015 -170 1054 -170 q 969 -163 992 -170 q 854 -105 928 -153 q 755 -60 785 -68 q 717 -55 736 -55 q 652 -73 683 -55 q 587 -156 602 -101 q 583 -172 584 -164 l 522 -172 q 528 -139 523 -156 q 622 -20 550 -60 q 635 -13 629 -16 z "},"R":{"ha":739,"x_min":102,"x_max":701,"o":"m 163 1023 l 163 438 l 347 438 q 554 524 468 438 q 640 731 640 610 q 554 938 640 852 q 347 1023 468 1023 l 163 1023 m 366 377 q 347 376 357 376 l 163 376 l 163 0 l 102 0 l 102 1085 l 387 1085 q 597 981 511 1068 q 701 731 701 878 q 597 480 701 584 q 433 386 526 408 l 683 0 l 608 0 l 366 377 z "},"S":{"ha":707,"x_min":34,"x_max":673,"o":"m 372 601 q 189 707 256 640 q 121 869 121 774 q 189 1030 121 963 q 351 1098 256 1098 q 514 1031 446 1098 q 566 950 551 995 l 511 928 q 471 989 498 962 q 351 1038 421 1038 q 232 989 281 1038 q 182 869 182 940 q 232 750 182 800 q 359 667 278 705 q 578 536 490 625 q 673 309 673 442 q 578 81 673 176 q 351 -13 484 -13 q 124 82 218 -13 q 34 257 49 157 l 92 278 q 167 124 101 190 q 351 47 243 47 q 536 124 460 47 q 613 309 613 201 q 536 494 613 417 q 372 601 469 561 z "},"T":{"ha":678,"x_min":34,"x_max":644,"o":"m 370 1024 l 370 0 l 309 0 l 309 1024 l 34 1024 l 34 1085 l 644 1085 l 644 1024 l 370 1024 z "},"U":{"ha":912,"x_min":102,"x_max":810,"o":"m 749 1085 l 810 1085 l 810 305 q 707 94 793 181 q 456 -9 603 -9 q 205 94 309 -9 q 102 345 102 198 l 102 1085 l 163 1085 l 163 345 q 249 138 163 224 q 456 52 335 52 q 663 138 578 52 q 749 345 749 224 l 749 1085 z "},"V":{"ha":876,"x_min":34,"x_max":842,"o":"m 98 1085 l 437 153 l 777 1085 l 842 1085 l 437 -25 l 34 1085 l 98 1085 z "},"W":{"ha":1134,"x_min":85,"x_max":1049,"o":"m 536 163 l 536 1085 l 597 1085 l 597 163 q 636 111 613 134 q 781 52 697 52 q 927 112 865 52 q 988 256 988 172 l 988 1085 l 1049 1085 l 1049 251 q 971 69 1047 145 q 781 -9 892 -9 q 592 68 671 -9 q 567 96 578 82 q 542 68 556 82 q 353 -9 463 -9 q 163 69 241 -9 q 85 251 87 145 l 85 1085 l 146 1085 l 146 256 q 207 112 146 172 q 353 52 269 52 q 498 111 437 52 q 536 163 521 134 z "},"X":{"ha":826,"x_min":34,"x_max":792,"o":"m 34 0 l 378 596 l 96 1085 l 165 1085 l 412 656 l 661 1085 l 730 1085 l 447 596 l 792 0 l 722 0 l 412 536 l 103 0 l 34 0 z "},"Y":{"ha":876,"x_min":34,"x_max":842,"o":"m 407 439 l 34 1085 l 104 1085 l 437 507 l 772 1085 l 842 1085 l 468 439 l 468 0 l 407 0 l 407 439 z "},"Z":{"ha":900,"x_min":102,"x_max":798,"o":"m 693 1024 l 102 1024 l 102 1085 l 798 1085 l 206 61 l 798 61 l 798 0 l 102 0 l 693 1024 z "},"[":{"ha":380,"x_min":85,"x_max":295,"o":"m 146 -193 l 295 -193 l 295 -254 l 85 -254 l 85 1085 l 295 1085 l 295 1024 l 146 1024 l 146 -193 z "},"\\":{"ha":493,"x_min":-34,"x_max":527,"o":"m 527 0 l 458 0 l -34 1085 l 36 1085 l 527 0 z "},"]":{"ha":380,"x_min":85,"x_max":295,"o":"m 234 1024 l 85 1024 l 85 1085 l 295 1085 l 295 -254 l 85 -254 l 85 -193 l 234 -193 l 234 1024 z "},"^":{"ha":625,"x_min":68,"x_max":557,"o":"m 348 1085 l 557 723 l 486 723 l 313 1023 l 139 723 l 68 723 l 277 1085 l 348 1085 z "},"_":{"ha":712,"x_min":17,"x_max":695,"o":"m 17 -20 l 695 -20 l 695 -81 l 17 -81 l 17 -20 z "},"`":{"ha":427,"x_min":102,"x_max":325,"o":"m 214 941 l 325 814 l 268 814 l 102 941 l 214 941 z "},"a":{"ha":922,"x_min":85,"x_max":821,"o":"m 821 0 l 760 0 l 760 136 q 721 90 742 112 q 457 -19 612 -19 q 194 90 303 -19 q 85 353 85 199 q 194 617 85 508 q 457 726 303 726 q 721 617 612 726 q 760 572 742 595 l 760 666 l 821 666 l 821 0 m 760 293 l 760 414 q 675 571 743 503 q 457 661 585 661 q 239 571 330 661 q 149 353 149 481 q 239 136 149 226 q 457 46 330 46 q 675 136 585 46 q 760 293 743 204 z "},"b":{"ha":922,"x_min":102,"x_max":837,"o":"m 102 1085 l 163 1085 l 163 572 q 201 617 180 595 q 465 726 311 726 q 728 617 619 726 q 837 353 837 508 q 728 90 837 199 q 465 -19 619 -19 q 201 90 311 -19 q 163 135 180 112 l 163 0 l 102 0 l 102 1085 m 163 417 l 163 290 q 247 136 180 203 q 465 46 337 46 q 682 136 592 46 q 772 353 772 226 q 682 571 772 481 q 465 661 592 661 q 247 571 337 661 q 163 417 180 505 z "},"c":{"ha":798,"x_min":61,"x_max":737,"o":"m 673 160 l 737 137 q 697 90 720 113 q 433 -19 588 -19 q 170 90 279 -19 q 61 354 61 199 q 170 617 61 508 q 433 726 279 726 q 697 617 588 726 q 737 571 720 595 l 673 547 q 651 572 663 559 q 433 661 561 661 q 216 571 307 661 q 126 354 126 481 q 216 136 126 227 q 433 46 307 46 q 651 136 561 46 q 673 160 663 148 z "},"d":{"ha":922,"x_min":85,"x_max":821,"o":"m 821 0 l 760 0 l 760 136 q 721 90 742 112 q 457 -19 612 -19 q 194 90 303 -19 q 85 353 85 199 q 194 617 85 508 q 457 726 303 726 q 721 617 612 726 q 760 572 742 595 l 760 1085 l 821 1085 l 821 0 m 760 293 l 760 414 q 675 571 743 503 q 457 661 585 661 q 239 571 330 661 q 149 353 149 481 q 239 136 149 226 q 457 46 330 46 q 675 136 585 46 q 760 293 743 204 z "},"e":{"ha":798,"x_min":61,"x_max":737,"o":"m 229 125 q 433 46 315 46 q 651 136 561 46 q 673 160 663 148 l 737 137 q 697 90 720 113 q 433 -19 588 -19 q 170 90 279 -19 q 61 354 61 199 q 170 617 61 508 q 433 726 279 726 q 665 647 566 726 q 697 617 681 633 q 709 605 703 611 l 663 559 l 229 125 m 618 600 q 433 661 538 661 q 216 571 307 661 q 126 354 126 481 q 187 170 126 249 l 618 600 z "},"f":{"ha":355,"x_min":61,"x_max":395,"o":"m 190 605 l 190 0 l 129 0 l 129 605 l 61 605 l 61 666 l 129 666 l 129 846 q 186 976 133 922 q 315 1027 242 1027 q 395 1013 353 1027 l 376 959 q 321 971 347 971 q 230 932 273 971 q 190 842 192 895 l 190 666 l 326 666 l 326 605 l 190 605 z "},"g":{"ha":925,"x_min":85,"x_max":821,"o":"m 759 417 q 675 571 741 505 q 457 661 585 661 q 239 571 330 661 q 149 353 149 481 q 239 136 149 226 q 457 45 330 45 q 675 136 585 45 q 759 288 741 201 l 759 417 m 758 132 q 721 90 741 111 q 457 -19 612 -19 q 194 90 303 -19 q 85 353 85 199 q 194 617 85 508 q 457 726 303 726 q 721 617 612 726 q 760 572 742 595 l 760 666 l 821 666 l 821 149 q 714 -108 821 -1 q 451 -217 605 -217 q 187 -108 296 -217 q 147 -61 165 -85 l 212 -38 q 233 -62 222 -50 q 451 -152 323 -152 q 668 -62 578 -152 q 758 132 750 20 z "},"h":{"ha":718,"x_min":102,"x_max":616,"o":"m 102 1085 l 163 1085 l 163 631 q 349 706 240 706 q 541 632 467 706 q 616 446 614 558 l 616 0 l 555 0 l 555 440 q 494 585 555 525 q 349 645 433 645 q 203 586 264 645 q 163 530 176 559 l 163 0 l 102 0 l 102 1085 z "},"i":{"ha":292,"x_min":85,"x_max":207,"o":"m 176 666 l 176 0 l 115 0 l 115 666 l 176 666 m 146 902 q 189 884 171 902 q 207 842 207 867 q 189 798 207 816 q 146 781 171 781 q 103 798 121 781 q 85 842 85 816 q 103 884 85 867 q 146 902 121 902 z "},"j":{"ha":309,"x_min":33,"x_max":207,"o":"m 33 -94 q 115 -1 115 -84 l 115 666 l 176 666 l 176 0 q 33 -155 176 -143 l 33 -94 m 146 902 q 189 884 171 902 q 207 842 207 867 q 189 798 207 816 q 146 781 171 781 q 103 798 121 781 q 85 842 85 816 q 103 884 85 867 q 146 902 121 902 z "},"k":{"ha":558,"x_min":102,"x_max":524,"o":"m 427 666 l 262 463 l 524 0 l 448 0 l 222 414 l 163 340 l 163 0 l 102 0 l 102 949 l 163 949 l 163 437 l 348 666 l 427 666 z "},"l":{"ha":264,"x_min":102,"x_max":163,"o":"m 163 1085 l 163 0 l 102 0 l 102 1085 l 163 1085 z "},"m":{"ha":932,"x_min":102,"x_max":831,"o":"m 102 666 l 163 666 l 163 650 q 299 705 220 705 q 439 648 381 705 q 466 614 454 632 q 494 648 477 631 q 633 705 551 705 q 773 648 715 705 q 831 514 828 592 l 831 0 l 770 0 l 770 514 l 770 514 q 730 604 768 567 q 633 644 690 644 q 537 604 577 644 q 496 505 496 564 l 496 0 l 435 0 l 435 514 l 436 514 q 396 604 433 567 q 299 644 355 644 q 203 604 243 644 q 163 519 168 570 l 163 0 l 102 0 l 102 666 z "},"n":{"ha":726,"x_min":102,"x_max":625,"o":"m 163 517 l 163 0 l 102 0 l 102 666 l 163 666 l 163 623 q 357 706 246 706 q 549 632 475 706 q 625 446 623 558 l 625 0 l 564 0 l 564 440 q 502 585 564 525 q 357 645 441 645 q 212 586 273 645 q 163 517 178 553 z "},"o":{"ha":867,"x_min":61,"x_max":806,"o":"m 433 726 q 697 617 588 726 q 806 353 806 508 q 697 90 806 199 q 433 -19 588 -19 q 170 90 279 -19 q 61 353 61 199 q 170 617 61 508 q 433 726 279 726 m 433 661 q 216 571 306 661 q 125 353 125 481 q 216 136 125 226 q 433 46 306 46 q 651 136 561 46 q 741 353 741 226 q 651 571 741 481 q 433 661 561 661 z "},"p":{"ha":905,"x_min":102,"x_max":837,"o":"m 102 666 l 163 666 l 163 572 q 201 617 180 595 q 465 726 311 726 q 728 617 619 726 q 837 353 837 508 q 728 90 837 199 q 465 -19 619 -19 q 201 90 311 -19 q 163 135 180 112 l 163 -254 l 102 -254 l 102 666 m 163 417 l 163 290 q 247 136 180 202 q 465 45 337 45 q 682 136 592 45 q 772 353 772 226 q 682 571 772 481 q 465 661 592 661 q 247 571 337 661 q 163 417 180 505 z "},"q":{"ha":905,"x_min":68,"x_max":804,"o":"m 804 -254 l 743 -254 l 743 136 q 704 90 725 112 q 440 -19 595 -19 q 177 90 286 -19 q 68 353 68 199 q 177 617 68 508 q 440 726 286 726 q 704 617 595 726 q 743 572 725 595 l 743 666 l 804 666 l 804 -254 m 743 293 l 743 414 q 658 571 726 503 q 440 661 568 661 q 222 571 313 661 q 132 353 132 481 q 222 136 132 226 q 440 45 313 45 q 658 136 568 45 q 743 293 726 203 z "},"r":{"ha":406,"x_min":102,"x_max":372,"o":"m 102 666 l 163 666 l 163 545 q 207 597 182 572 q 372 682 288 677 l 372 615 q 253 551 315 612 q 163 344 166 465 l 163 0 l 102 0 l 102 666 z "},"s":{"ha":544,"x_min":78,"x_max":473,"o":"m 285 342 q 177 414 207 385 q 130 527 130 461 q 177 641 130 593 q 290 688 224 688 q 399 644 356 688 q 441 547 441 602 l 441 544 l 389 523 q 356 600 382 574 q 290 626 331 626 q 220 597 249 626 q 191 527 191 568 q 220 457 191 486 q 292 406 237 440 q 415 321 378 358 q 473 182 473 263 q 415 42 473 100 q 275 -16 357 -16 q 136 42 193 -16 q 78 169 78 100 l 138 184 q 179 85 138 125 q 275 45 219 45 q 372 85 332 45 q 412 182 412 125 q 372 279 412 239 q 285 342 351 300 z "},"t":{"ha":454,"x_min":61,"x_max":393,"o":"m 197 666 l 197 949 l 258 949 l 258 666 l 393 666 l 393 605 l 258 605 l 258 0 l 197 0 l 197 605 l 61 605 l 61 666 l 197 666 z "},"u":{"ha":745,"x_min":102,"x_max":644,"o":"m 376 -9 q 178 64 252 -9 q 102 251 104 138 l 102 666 l 163 666 l 163 256 q 224 112 163 172 q 376 52 286 52 q 521 112 460 52 q 583 256 583 172 l 583 666 l 644 666 l 644 251 q 568 64 642 138 q 376 -9 494 -9 z "},"v":{"ha":722,"x_min":34,"x_max":688,"o":"m 361 111 l 617 666 l 688 666 l 361 -18 l 34 666 l 104 666 l 361 111 z "},"w":{"ha":932,"x_min":102,"x_max":831,"o":"m 435 176 l 435 666 l 496 666 l 496 191 q 537 92 496 132 q 633 52 577 52 q 730 92 690 52 q 770 182 768 129 l 770 182 l 770 666 l 831 666 l 831 182 q 773 49 828 104 q 633 -9 715 -9 q 494 49 551 -9 q 467 81 478 64 q 439 49 455 64 q 299 -9 381 -9 q 159 49 217 -9 q 102 182 104 104 l 102 666 l 163 666 l 163 182 l 162 182 q 203 92 165 129 q 299 52 243 52 q 396 92 355 52 q 435 176 431 126 z "},"x":{"ha":591,"x_min":51,"x_max":540,"o":"m 503 666 l 331 369 l 329 366 l 331 362 l 540 0 l 469 0 l 296 300 l 122 0 l 51 0 l 260 362 l 262 366 l 260 369 l 89 666 l 159 666 l 296 431 l 431 666 l 503 666 z "},"y":{"ha":682,"x_min":51,"x_max":631,"o":"m 341 60 l 191 -254 l 131 -254 l 311 123 l 51 666 l 120 666 l 341 189 l 562 666 l 631 666 l 341 59 l 341 60 z "},"z":{"ha":678,"x_min":102,"x_max":576,"o":"m 446 605 l 102 605 l 102 666 l 551 666 l 206 61 l 576 61 l 576 0 l 102 0 l 446 605 z "},"{":{"ha":587,"x_min":85,"x_max":503,"o":"m 85 443 q 98 441 91 441 q 182 471 130 441 q 284 603 260 515 q 297 706 297 652 q 293 767 297 736 q 283 859 283 816 q 294 944 283 904 q 385 1059 315 1020 q 477 1085 429 1085 q 503 1083 490 1085 l 503 1032 q 478 1034 490 1034 q 410 1016 443 1034 q 344 930 359 987 q 334 846 334 893 q 336 802 334 825 q 347 701 347 751 q 332 589 347 644 q 207 427 302 482 q 183 416 195 421 q 207 404 195 410 q 332 241 302 349 q 347 130 347 187 q 336 28 347 80 q 334 -15 334 5 q 344 -100 334 -62 q 410 -184 359 -156 q 480 -203 444 -203 q 503 -202 491 -203 l 503 -252 q 477 -254 490 -254 q 385 -229 429 -254 q 294 -113 315 -189 q 283 -27 283 -73 q 293 64 283 16 q 297 125 297 95 q 284 228 297 179 q 182 360 260 315 q 98 390 130 390 q 85 388 91 390 l 85 443 z "},"|":{"ha":264,"x_min":102,"x_max":163,"o":"m 163 1085 l 163 -254 l 102 -254 l 102 1085 l 163 1085 z "},"}":{"ha":587,"x_min":85,"x_max":503,"o":"m 503 388 q 489 390 496 390 q 406 360 458 390 q 303 228 328 315 q 290 125 290 179 q 294 64 290 95 q 304 -27 304 16 q 293 -113 304 -73 q 203 -229 273 -189 q 111 -254 159 -254 q 85 -252 98 -254 l 85 -202 q 107 -203 96 -203 q 178 -184 143 -203 q 243 -100 229 -156 q 254 -15 254 -62 q 252 28 254 5 q 241 130 241 80 q 255 241 241 187 q 380 404 285 349 q 404 416 392 410 q 380 427 392 421 q 255 589 285 482 q 241 701 241 644 q 252 802 241 751 q 254 846 254 825 q 243 930 254 893 q 178 1016 229 987 q 109 1034 144 1034 q 85 1032 97 1034 l 85 1083 q 111 1085 98 1085 q 203 1059 159 1085 q 293 944 273 1020 q 304 859 304 904 q 294 767 304 816 q 290 706 290 736 q 303 603 290 652 q 406 471 328 515 q 489 441 458 441 q 503 443 496 441 l 503 388 z "},"~":{"ha":866,"x_min":85,"x_max":781,"o":"m 433 584 q 618 510 560 510 q 636 512 628 510 q 709 580 688 528 q 720 632 720 606 l 781 623 q 766 557 779 590 q 660 456 734 481 q 622 451 643 451 q 433 518 551 451 q 248 592 304 592 q 230 590 238 592 q 157 522 178 574 q 146 470 146 496 l 85 479 q 100 545 86 512 q 206 646 131 621 q 243 651 223 651 q 433 584 315 651 z "},"¡":{"ha":292,"x_min":85,"x_max":207,"o":"m 146 976 q 103 994 121 976 q 85 1036 85 1011 q 103 1080 85 1062 q 146 1097 121 1097 q 189 1080 171 1097 q 207 1036 207 1062 q 189 994 207 1011 q 146 976 171 976 m 117 3 l 117 901 l 178 901 l 178 3 l 117 3 z "},"¢":{"ha":687,"x_min":67,"x_max":618,"o":"m 374 478 q 541 549 471 479 q 559 570 549 558 l 618 549 q 583 507 601 525 q 374 418 496 419 l 374 313 l 313 313 l 313 422 q 156 507 224 438 q 67 720 67 595 q 156 934 67 845 q 313 1018 224 1002 l 313 1127 l 374 1127 l 374 1023 q 583 934 496 1021 q 618 892 601 916 l 559 870 q 541 892 549 882 q 374 962 471 961 l 374 478 m 313 956 q 199 892 248 941 q 127 720 127 821 q 199 549 127 620 q 313 484 248 499 l 313 956 z "},"£":{"ha":766,"x_min":68,"x_max":699,"o":"m 304 376 q 307 347 306 362 q 309 317 309 332 q 193 43 309 179 q 360 73 278 73 q 457 62 409 73 q 585 47 524 47 q 687 59 639 47 l 699 -1 q 585 -15 644 -15 q 460 0 524 -15 q 343 14 394 14 q 264 3 297 14 q 127 -56 193 -23 l 68 14 q 174 115 152 88 q 247 313 247 201 q 245 342 247 328 q 241 376 244 359 l 87 376 l 87 437 l 229 437 q 178 566 211 502 q 93 798 102 688 q 92 824 92 811 q 154 993 92 918 q 334 1086 224 1076 q 360 1087 347 1087 q 530 1025 454 1087 q 624 844 614 954 q 626 814 626 828 q 611 736 626 771 l 553 756 q 563 821 563 785 q 562 840 563 830 q 490 977 554 923 q 361 1025 433 1025 q 342 1024 351 1025 q 203 952 258 1017 q 156 824 156 895 q 157 804 156 814 q 210 630 163 727 q 292 437 268 536 l 426 437 l 426 376 l 304 376 z "},"¤":{"ha":754,"x_min":68,"x_max":686,"o":"m 205 991 q 377 1052 279 1052 q 549 991 475 1052 l 643 1086 l 686 1042 l 592 948 q 652 777 652 875 q 592 605 652 678 l 686 511 l 643 467 l 549 562 q 377 501 475 501 q 205 562 279 501 l 111 467 l 68 511 l 162 605 q 102 777 102 678 q 162 948 102 875 l 68 1042 l 111 1086 l 205 991 m 505 948 q 377 991 450 991 q 249 948 304 991 q 226 928 237 939 q 205 905 214 917 q 163 777 163 850 q 205 648 163 703 q 226 625 214 636 q 249 605 237 614 q 377 562 304 562 q 505 605 450 562 q 529 625 517 614 q 549 648 540 636 q 591 777 591 703 q 549 905 591 850 q 529 928 540 917 q 505 948 517 939 z "},"¥":{"ha":876,"x_min":34,"x_max":842,"o":"m 441 512 l 772 1085 l 842 1085 l 510 512 l 709 512 l 709 451 l 475 451 l 468 439 l 468 370 l 709 370 l 709 309 l 468 309 l 468 0 l 407 0 l 407 309 l 167 309 l 167 370 l 407 370 l 407 439 l 400 451 l 167 451 l 167 512 l 365 512 l 34 1085 l 104 1085 l 434 512 l 441 512 z "},"¦":{"ha":264,"x_min":102,"x_max":163,"o":"m 163 1085 l 163 509 l 102 509 l 102 1085 l 163 1085 m 163 321 l 163 -254 l 102 -254 l 102 321 l 163 321 z "},"§":{"ha":785,"x_min":68,"x_max":718,"o":"m 597 234 q 615 254 605 243 q 658 405 658 296 q 581 589 658 513 q 416 696 514 656 q 233 802 300 735 q 188 866 204 831 q 170 846 180 857 q 127 695 127 804 q 204 511 127 587 q 369 404 271 444 q 552 298 485 365 q 597 234 581 269 m 170 924 q 166 965 166 943 q 233 1126 166 1059 q 396 1194 300 1194 q 559 1126 491 1194 q 610 1046 596 1090 l 555 1024 q 515 1085 543 1057 q 396 1134 466 1134 q 277 1085 326 1134 q 227 965 227 1036 q 277 846 227 895 q 404 762 323 800 q 623 631 534 720 q 718 405 718 538 q 657 211 718 271 q 616 176 633 186 q 619 135 619 157 q 552 -26 619 41 q 389 -94 485 -94 q 227 -26 294 -94 q 175 54 189 9 l 230 76 q 270 15 242 43 q 389 -34 319 -34 q 509 15 459 -34 q 558 135 558 64 q 509 254 558 205 q 381 338 463 300 q 162 469 251 380 q 68 695 68 562 q 128 889 68 829 q 170 924 153 913 z "},"¨":{"ha":495,"x_min":85,"x_max":410,"o":"m 146 902 q 189 884 171 902 q 207 842 207 867 q 189 798 207 816 q 146 781 171 781 q 103 798 121 781 q 85 842 85 816 q 103 884 85 867 q 146 902 121 902 m 349 902 q 392 884 374 902 q 410 842 410 867 q 392 798 410 816 q 349 781 374 781 q 306 798 324 781 q 288 842 288 816 q 306 884 288 867 q 349 902 324 902 z "},"©":{"ha":953,"x_min":67,"x_max":882,"o":"m 622 300 l 668 283 q 641 250 654 264 q 482 184 575 184 q 323 250 389 184 q 258 409 258 316 q 323 568 258 502 q 482 633 389 633 q 641 568 575 633 q 668 535 654 554 l 622 518 q 608 535 614 528 q 482 587 555 587 q 357 535 409 587 q 304 409 304 483 q 357 283 304 336 q 482 231 409 231 q 608 283 555 231 q 622 300 614 290 m 475 817 q 762 697 643 817 q 882 409 882 578 q 762 121 882 240 q 475 1 643 1 q 186 121 306 1 q 67 409 67 240 q 186 697 67 578 q 475 817 306 817 m 475 768 q 220 663 326 768 q 115 409 115 558 q 220 155 115 260 q 475 50 326 50 q 728 155 623 50 q 833 409 833 260 q 728 663 833 558 q 475 768 623 768 z "},"ª":{"ha":595,"x_min":68,"x_max":528,"o":"m 89 640 l 479 640 l 479 619 l 68 619 l 68 1045 l 89 1045 l 89 640 m 528 726 l 490 726 l 490 784 q 479 771 489 782 q 349 718 425 718 q 218 771 272 718 q 165 901 165 825 q 218 1031 165 977 q 349 1085 272 1085 q 479 1031 425 1085 q 490 1019 489 1021 l 490 1056 l 528 1056 l 528 726 m 490 872 l 490 930 q 450 1004 483 972 q 349 1046 408 1046 q 246 1003 288 1046 q 203 901 203 961 q 246 799 203 841 q 349 757 288 757 q 450 799 408 757 q 490 872 483 831 z "},"«":{"ha":665,"x_min":68,"x_max":597,"o":"m 301 313 l 597 625 l 597 555 l 372 313 l 597 72 l 597 1 l 301 313 m 68 313 l 359 625 l 359 555 l 134 313 l 359 72 l 359 1 l 68 313 z "},"®":{"ha":787,"x_min":68,"x_max":720,"o":"m 317 930 l 317 673 l 395 673 q 486 711 448 673 q 524 802 524 749 q 486 892 524 854 q 395 930 448 930 l 317 930 m 495 489 l 401 635 l 317 635 l 317 530 l 279 530 l 279 966 l 414 966 q 513 918 472 958 q 561 801 561 869 q 513 683 561 732 q 442 641 479 650 l 530 505 q 597 555 566 526 q 681 759 681 640 q 597 962 681 878 q 394 1046 513 1046 q 191 962 275 1046 q 106 759 106 878 q 191 555 106 640 q 278 495 231 516 q 317 481 297 486 q 394 471 353 471 q 495 489 447 471 m 531 464 q 501 448 531 464 q 394 433 471 433 q 163 528 258 433 q 68 759 68 624 q 163 989 68 894 q 394 1085 258 1085 q 624 989 528 1085 q 720 759 720 894 q 624 528 720 624 q 531 464 591 495 z "},"¯":{"ha":570,"x_min":85,"x_max":485,"o":"m 85 968 l 485 968 l 485 907 l 85 907 l 85 968 z "},"°":{"ha":517,"x_min":102,"x_max":415,"o":"m 258 1085 q 369 1039 323 1085 q 415 928 415 994 q 369 818 415 863 q 258 772 323 772 q 148 818 193 772 q 102 928 102 863 q 148 1039 102 994 q 258 1085 193 1085 m 258 1037 q 182 1005 214 1037 q 150 928 150 973 q 182 852 150 884 q 258 820 214 820 q 335 852 303 820 q 367 928 367 884 q 335 1005 367 973 q 258 1037 303 1037 z "},"±":{"ha":712,"x_min":85,"x_max":627,"o":"m 326 371 l 85 371 l 85 432 l 326 432 l 326 673 l 387 673 l 387 432 l 627 432 l 627 371 l 387 371 l 387 130 l 326 130 l 326 371 m 85 61 l 627 61 l 627 0 l 85 0 l 85 61 z "},"²":{"ha":610,"x_min":85,"x_max":525,"o":"m 87 427 q 183 613 109 562 q 313 703 257 665 q 415 789 368 741 q 462 899 462 836 q 415 1005 462 962 q 304 1048 368 1048 q 194 1005 240 1048 q 146 905 153 968 l 85 926 q 146 1040 96 992 q 304 1100 212 1100 q 461 1041 397 1100 q 525 899 525 981 q 463 755 525 817 q 365 675 421 713 q 237 587 309 636 q 156 477 171 541 l 525 477 l 525 427 l 87 427 z "},"³":{"ha":610,"x_min":85,"x_max":525,"o":"m 279 790 l 237 791 l 237 841 q 310 849 286 841 q 362 886 334 858 q 391 955 391 915 q 362 1022 391 995 q 294 1048 334 1048 q 226 1023 254 1048 q 198 979 210 1007 l 141 999 q 178 1056 153 1034 q 294 1100 227 1100 q 409 1057 362 1100 q 455 955 455 1013 q 420 861 455 895 q 371 821 385 826 q 463 762 419 806 q 525 618 525 701 q 461 477 525 536 q 304 418 397 418 q 146 478 212 418 q 85 592 96 525 l 146 612 q 194 512 153 549 q 304 470 240 470 q 415 513 368 470 q 462 618 462 556 q 416 728 462 682 q 279 790 370 774 z "},"´":{"ha":427,"x_min":102,"x_max":325,"o":"m 325 941 l 159 814 l 102 814 l 212 941 l 325 941 z "},"µ":{"ha":709,"x_min":102,"x_max":608,"o":"m 548 75 q 541 68 545 72 q 349 -6 467 -6 q 163 68 240 -6 l 163 -254 l 102 -254 l 102 666 l 163 666 l 163 170 q 203 114 176 141 q 349 55 264 55 q 494 115 433 55 q 548 203 534 154 l 548 666 l 608 666 l 608 0 l 548 0 l 548 75 z "},"¶":{"ha":770,"x_min":35,"x_max":736,"o":"m 553 1086 l 553 -254 l 492 -254 l 492 438 l 389 438 q 138 542 242 438 q 35 793 35 646 q 138 1043 35 939 q 349 1147 225 1130 l 404 1147 l 404 1147 l 736 1147 l 736 1086 l 677 1086 l 677 -254 l 616 -254 l 616 1086 l 553 1086 z "},"·":{"ha":273,"x_min":85,"x_max":189,"o":"m 137 594 q 173 579 158 594 q 189 543 189 564 q 173 506 189 521 q 137 491 158 491 q 100 506 115 491 q 85 543 85 521 q 100 579 85 564 q 137 594 115 594 z "},"¸":{"ha":174,"x_min":7,"x_max":168,"o":"m 106 0 l 104 -20 l 103 -24 l 104 -24 l 102 -51 q 121 -61 111 -56 q 167 -125 161 -87 q 168 -134 168 -130 q 138 -187 168 -165 q 50 -214 104 -214 q 7 -209 27 -214 l 14 -172 q 45 -176 28 -176 q 96 -161 76 -176 q 113 -130 113 -148 l 113 -125 q 85 -87 109 -103 q 33 -73 62 -73 l 62 0 l 106 0 z "},"¹":{"ha":610,"x_min":250,"x_max":359,"o":"m 359 1085 l 359 420 l 298 420 l 298 1007 l 250 1007 l 315 1085 l 359 1085 z "},"º":{"ha":620,"x_min":68,"x_max":552,"o":"m 359 757 q 471 799 432 760 q 513 901 513 841 q 471 1004 513 961 q 359 1046 432 1042 q 246 1004 285 1042 q 203 901 203 961 q 246 799 203 841 q 359 757 285 760 m 349 718 q 218 771 272 718 q 165 901 165 825 q 218 1031 165 977 q 349 1085 272 1085 l 368 1085 q 498 1031 445 1085 q 552 901 552 977 q 498 771 552 825 q 368 718 445 718 l 349 718 m 89 640 l 479 640 l 479 619 l 68 619 l 68 1045 l 89 1045 l 89 640 z "},"»":{"ha":665,"x_min":68,"x_max":597,"o":"m 68 1 l 68 72 l 292 313 l 68 555 l 68 625 l 363 313 l 68 1 m 306 1 l 306 72 l 530 313 l 306 555 l 306 625 l 597 313 l 306 1 z "},"¿":{"ha":648,"x_min":102,"x_max":562,"o":"m 264 533 q 384 688 343 603 q 411 801 411 744 q 395 888 411 844 l 452 908 q 471 801 471 854 q 437 663 471 730 q 274 467 383 549 q 182 346 210 404 q 164 273 164 310 q 174 217 164 245 q 260 120 197 151 q 333 103 296 103 q 389 113 361 103 q 486 199 455 136 q 503 270 503 234 l 562 267 l 562 262 q 541 174 562 218 q 409 57 498 88 q 332 43 370 43 q 233 66 281 43 q 116 197 147 108 q 102 273 102 235 q 126 372 102 323 q 264 533 168 458 m 427 976 q 384 994 402 976 q 366 1036 366 1011 q 384 1080 366 1062 q 427 1097 402 1097 q 470 1080 452 1097 q 488 1036 488 1062 q 470 994 488 1011 q 427 976 452 976 z "},"À":{"ha":876,"x_min":34,"x_max":842,"o":"m 604 477 l 438 932 l 273 477 l 604 477 m 626 416 l 250 416 l 99 0 l 34 0 l 438 1110 l 842 0 l 777 0 l 626 416 m 401 1360 l 512 1233 l 455 1233 l 289 1360 l 401 1360 z "},"Á":{"ha":876,"x_min":34,"x_max":842,"o":"m 604 477 l 438 932 l 273 477 l 604 477 m 626 416 l 250 416 l 99 0 l 34 0 l 438 1110 l 842 0 l 777 0 l 626 416 m 587 1360 l 420 1233 l 363 1233 l 474 1360 l 587 1360 z "},"Â":{"ha":876,"x_min":34,"x_max":842,"o":"m 604 477 l 438 932 l 273 477 l 604 477 m 626 416 l 250 416 l 99 0 l 34 0 l 438 1110 l 842 0 l 777 0 l 626 416 m 470 1317 l 631 1158 l 561 1158 l 435 1255 l 315 1158 l 244 1158 l 399 1317 l 470 1317 z "},"Ã":{"ha":876,"x_min":34,"x_max":842,"o":"m 604 477 l 438 932 l 273 477 l 604 477 m 626 416 l 250 416 l 99 0 l 34 0 l 438 1110 l 842 0 l 777 0 l 626 416 m 434 1270 q 518 1230 485 1230 l 522 1230 q 569 1286 555 1232 l 616 1286 q 549 1183 602 1199 q 520 1179 534 1179 q 442 1211 481 1179 q 358 1251 391 1251 l 355 1251 q 307 1194 321 1249 l 260 1194 q 328 1297 275 1281 q 356 1301 342 1301 q 434 1270 395 1301 z "},"Ä":{"ha":876,"x_min":34,"x_max":842,"o":"m 604 477 l 438 932 l 273 477 l 604 477 m 626 416 l 250 416 l 99 0 l 34 0 l 438 1110 l 842 0 l 777 0 l 626 416 m 336 1321 q 379 1303 361 1321 q 397 1261 397 1286 q 379 1217 397 1235 q 336 1200 361 1200 q 293 1217 311 1200 q 275 1261 275 1235 q 293 1303 275 1286 q 336 1321 311 1321 m 540 1321 q 583 1303 565 1321 q 601 1261 601 1286 q 583 1217 601 1235 q 540 1200 565 1200 q 497 1217 515 1200 q 479 1261 479 1235 q 497 1303 479 1286 q 540 1321 515 1321 z "},"Å":{"ha":876,"x_min":34,"x_max":842,"o":"m 604 477 l 438 932 l 273 477 l 604 477 m 626 416 l 250 416 l 99 0 l 34 0 l 438 1110 l 842 0 l 777 0 l 626 416 m 438 1343 q 497 1318 473 1343 q 522 1259 522 1294 q 497 1201 522 1225 q 438 1177 473 1177 q 379 1201 404 1177 q 355 1259 355 1225 q 379 1318 355 1294 q 438 1343 404 1343 m 438 1299 q 410 1287 422 1299 q 399 1259 399 1276 q 410 1232 399 1244 q 438 1221 422 1221 q 465 1232 454 1221 q 477 1259 477 1244 q 465 1287 477 1276 q 438 1299 454 1299 z "},"Æ":{"ha":1137,"x_min":27,"x_max":1052,"o":"m 1052 1085 l 1052 1024 l 570 1024 l 570 573 l 1052 573 l 1052 512 l 570 512 l 570 61 l 1052 61 l 1052 0 l 509 0 l 509 416 l 291 416 l 113 0 l 27 0 l 509 1083 l 509 1085 l 1052 1085 m 509 931 l 313 477 l 509 477 l 509 931 z "},"Ç":{"ha":1082,"x_min":85,"x_max":1014,"o":"m 524 -2 q 248 150 367 30 q 85 543 85 312 q 247 935 85 772 q 640 1098 410 1098 q 1014 954 855 1098 l 968 911 q 640 1036 828 1036 q 292 891 436 1036 q 147 543 147 747 q 292 193 147 338 q 640 49 436 49 q 968 173 828 49 l 1014 132 q 640 -13 855 -13 q 568 -9 603 -13 l 566 -20 l 566 -24 l 566 -24 l 564 -51 q 583 -61 574 -56 q 629 -125 624 -87 q 630 -134 630 -130 q 601 -187 630 -165 q 513 -214 566 -214 q 469 -209 490 -214 l 477 -172 q 508 -176 491 -176 q 558 -161 538 -176 q 575 -130 575 -148 l 575 -125 q 548 -87 572 -103 q 496 -73 524 -73 l 524 -2 z "},"È":{"ha":729,"x_min":102,"x_max":644,"o":"m 644 1085 l 644 1024 l 163 1024 l 163 573 l 644 573 l 644 512 l 163 512 l 163 61 l 644 61 l 644 0 l 102 0 l 102 1085 l 644 1085 m 337 1360 l 448 1233 l 391 1233 l 224 1360 l 337 1360 z "},"É":{"ha":729,"x_min":102,"x_max":644,"o":"m 644 1085 l 644 1024 l 163 1024 l 163 573 l 644 573 l 644 512 l 163 512 l 163 61 l 644 61 l 644 0 l 102 0 l 102 1085 l 644 1085 m 522 1360 l 355 1233 l 298 1233 l 409 1360 l 522 1360 z "},"Ê":{"ha":729,"x_min":102,"x_max":644,"o":"m 644 1085 l 644 1024 l 163 1024 l 163 573 l 644 573 l 644 512 l 163 512 l 163 61 l 644 61 l 644 0 l 102 0 l 102 1085 l 644 1085 m 406 1317 l 567 1158 l 496 1158 l 370 1255 l 251 1158 l 180 1158 l 335 1317 l 406 1317 z "},"Ë":{"ha":729,"x_min":102,"x_max":644,"o":"m 644 1085 l 644 1024 l 163 1024 l 163 573 l 644 573 l 644 512 l 163 512 l 163 61 l 644 61 l 644 0 l 102 0 l 102 1085 l 644 1085 m 271 1321 q 314 1303 296 1321 q 332 1261 332 1286 q 314 1217 332 1235 q 271 1200 296 1200 q 228 1217 246 1200 q 210 1261 210 1235 q 228 1303 210 1286 q 271 1321 246 1321 m 475 1321 q 518 1303 500 1321 q 536 1261 536 1286 q 518 1217 536 1235 q 475 1200 500 1200 q 432 1217 450 1200 q 414 1261 414 1235 q 432 1303 414 1286 q 475 1321 450 1321 z "},"Ì":{"ha":292,"x_min":-3,"x_max":220,"o":"m 176 1085 l 176 0 l 115 0 l 115 1085 l 176 1085 m 110 1360 l 220 1233 l 163 1233 l -3 1360 l 110 1360 z "},"Í":{"ha":292,"x_min":71,"x_max":294,"o":"m 176 1085 l 176 0 l 115 0 l 115 1085 l 176 1085 m 294 1360 l 128 1233 l 71 1233 l 182 1360 l 294 1360 z "},"Î":{"ha":292,"x_min":-47,"x_max":340,"o":"m 177 1085 l 177 0 l 116 0 l 116 1085 l 177 1085 m 178 1317 l 340 1158 l 269 1158 l 143 1255 l 24 1158 l -47 1158 l 108 1317 l 178 1317 z "},"Ï":{"ha":292,"x_min":-17,"x_max":309,"o":"m 176 1085 l 176 0 l 115 0 l 115 1085 l 176 1085 m 44 1321 q 87 1303 69 1321 q 105 1261 105 1286 q 87 1217 105 1235 q 44 1200 69 1200 q 1 1217 19 1200 q -17 1261 -17 1235 q 1 1303 -17 1286 q 44 1321 19 1321 m 248 1321 q 291 1303 273 1321 q 309 1261 309 1286 q 291 1217 309 1235 q 248 1200 273 1200 q 204 1217 222 1200 q 186 1261 186 1235 q 204 1303 186 1286 q 248 1321 222 1321 z "},"Ð":{"ha":871,"x_min":34,"x_max":786,"o":"m 142 573 l 142 1085 l 203 1085 l 203 1084 l 208 1084 q 623 936 476 1084 q 786 543 786 772 q 623 149 786 312 q 208 1 476 1 l 203 1 l 203 0 l 142 0 l 142 512 l 34 512 l 34 573 l 142 573 m 203 573 l 454 573 l 454 512 l 203 512 l 203 63 l 208 63 q 579 193 450 63 q 724 543 724 338 q 579 892 724 747 q 208 1021 450 1021 l 203 1021 l 203 573 z "},"Ñ":{"ha":889,"x_min":102,"x_max":787,"o":"m 102 1085 l 169 1085 l 726 120 l 726 1085 l 787 1085 l 787 0 l 726 0 l 163 975 l 163 0 l 102 0 l 102 1085 m 441 1270 q 525 1230 492 1230 l 528 1230 q 576 1286 562 1232 l 623 1286 q 555 1183 608 1199 q 527 1179 541 1179 q 449 1211 488 1179 q 365 1251 398 1251 l 361 1251 q 314 1194 328 1249 l 267 1194 q 334 1297 281 1281 q 363 1301 349 1301 q 441 1270 401 1301 z "},"Ò":{"ha":1283,"x_min":85,"x_max":1198,"o":"m 642 1101 q 1035 938 872 1101 q 1198 544 1198 774 q 1035 150 1198 313 q 642 -13 872 -13 q 248 150 411 -13 q 85 544 85 313 q 248 938 85 774 q 642 1101 411 1101 m 642 1038 q 292 893 437 1038 q 147 544 147 749 q 292 194 147 339 q 642 49 437 49 q 991 194 846 49 q 1136 544 1136 339 q 991 893 1136 749 q 642 1038 846 1038 m 606 1360 l 716 1233 l 659 1233 l 493 1360 l 606 1360 z "},"Ó":{"ha":1283,"x_min":85,"x_max":1198,"o":"m 642 1101 q 1035 938 872 1101 q 1198 544 1198 774 q 1035 150 1198 313 q 642 -13 872 -13 q 248 150 411 -13 q 85 544 85 313 q 248 938 85 774 q 642 1101 411 1101 m 642 1038 q 292 893 437 1038 q 147 544 147 749 q 292 194 147 339 q 642 49 437 49 q 991 194 846 49 q 1136 544 1136 339 q 991 893 1136 749 q 642 1038 846 1038 m 790 1360 l 624 1233 l 567 1233 l 677 1360 l 790 1360 z "},"Ô":{"ha":1283,"x_min":85,"x_max":1198,"o":"m 642 1101 q 1035 938 872 1101 q 1198 544 1198 774 q 1035 150 1198 313 q 642 -13 872 -13 q 248 150 411 -13 q 85 544 85 313 q 248 938 85 774 q 642 1101 411 1101 m 642 1038 q 292 893 437 1038 q 147 544 147 749 q 292 194 147 339 q 642 49 437 49 q 991 194 846 49 q 1136 544 1136 339 q 991 893 1136 749 q 642 1038 846 1038 m 674 1317 l 836 1158 l 765 1158 l 639 1255 l 519 1158 l 448 1158 l 604 1317 l 674 1317 z "},"Õ":{"ha":1283,"x_min":85,"x_max":1198,"o":"m 642 1101 q 1035 938 872 1101 q 1198 544 1198 774 q 1035 150 1198 313 q 642 -13 872 -13 q 248 150 411 -13 q 85 544 85 313 q 248 938 85 774 q 642 1101 411 1101 m 642 1038 q 292 893 437 1038 q 147 544 147 749 q 292 194 147 339 q 642 49 437 49 q 991 194 846 49 q 1136 544 1136 339 q 991 893 1136 749 q 642 1038 846 1038 m 638 1270 q 722 1230 689 1230 l 726 1230 q 773 1286 760 1232 l 820 1286 q 753 1183 806 1199 q 724 1179 739 1179 q 646 1211 686 1179 q 562 1251 595 1251 l 559 1251 q 511 1194 525 1249 l 464 1194 q 532 1297 479 1281 q 560 1301 546 1301 q 638 1270 599 1301 z "},"Ö":{"ha":1283,"x_min":85,"x_max":1198,"o":"m 642 1101 q 1035 938 872 1101 q 1198 544 1198 774 q 1035 150 1198 313 q 642 -13 872 -13 q 248 150 411 -13 q 85 544 85 313 q 248 938 85 774 q 642 1101 411 1101 m 642 1038 q 292 893 437 1038 q 147 544 147 749 q 292 194 147 339 q 642 49 437 49 q 991 194 846 49 q 1136 544 1136 339 q 991 893 1136 749 q 642 1038 846 1038 m 540 1321 q 583 1303 565 1321 q 601 1261 601 1286 q 583 1217 601 1235 q 540 1200 565 1200 q 497 1217 515 1200 q 479 1261 479 1235 q 497 1303 479 1286 q 540 1321 515 1321 m 743 1321 q 786 1303 768 1321 q 804 1261 804 1286 q 786 1217 804 1235 q 743 1200 768 1200 q 700 1217 718 1200 q 682 1261 682 1235 q 700 1303 682 1286 q 743 1321 718 1321 z "},"×":{"ha":712,"x_min":142,"x_max":569,"o":"m 356 358 l 186 188 l 142 231 l 313 401 l 142 572 l 186 615 l 356 445 l 526 615 l 569 572 l 399 401 l 569 231 l 526 188 l 356 358 z "},"Ø":{"ha":1283,"x_min":85,"x_max":1198,"o":"m 823 1006 q 642 1038 739 1038 q 292 893 437 1038 q 147 544 147 749 q 292 194 147 339 q 405 108 345 142 l 823 1006 m 460 82 q 642 49 544 49 q 991 194 846 49 q 1136 544 1136 339 q 991 894 1136 749 q 878 979 939 946 l 460 82 m 905 1036 q 1036 938 975 998 q 1198 544 1198 774 q 1035 150 1198 313 q 642 -13 872 -13 q 434 26 530 -13 l 376 -99 l 320 -73 l 378 52 q 248 151 309 90 q 85 544 85 313 q 248 938 85 774 q 642 1101 411 1101 q 849 1062 753 1101 l 907 1187 l 963 1161 l 905 1036 z "},"Ù":{"ha":912,"x_min":102,"x_max":810,"o":"m 749 1085 l 810 1085 l 810 305 q 707 94 793 181 q 456 -9 603 -9 q 205 94 309 -9 q 102 345 102 198 l 102 1085 l 163 1085 l 163 345 q 249 138 163 224 q 456 52 335 52 q 663 138 578 52 q 749 345 749 224 l 749 1085 m 420 1360 l 530 1233 l 473 1233 l 307 1360 l 420 1360 z "},"Ú":{"ha":912,"x_min":102,"x_max":810,"o":"m 749 1085 l 810 1085 l 810 305 q 707 94 793 181 q 456 -9 603 -9 q 205 94 309 -9 q 102 345 102 198 l 102 1085 l 163 1085 l 163 345 q 249 138 163 224 q 456 52 335 52 q 663 138 578 52 q 749 345 749 224 l 749 1085 m 605 1360 l 439 1233 l 382 1233 l 492 1360 l 605 1360 z "},"Û":{"ha":912,"x_min":102,"x_max":810,"o":"m 749 1085 l 810 1085 l 810 305 q 707 94 793 181 q 456 -9 603 -9 q 205 94 309 -9 q 102 345 102 198 l 102 1085 l 163 1085 l 163 345 q 249 138 163 224 q 456 52 335 52 q 663 138 578 52 q 749 345 749 224 l 749 1085 m 488 1317 l 650 1158 l 579 1158 l 453 1255 l 334 1158 l 262 1158 l 418 1317 l 488 1317 z "},"Ü":{"ha":912,"x_min":102,"x_max":810,"o":"m 749 1085 l 810 1085 l 810 305 q 707 94 793 181 q 456 -9 603 -9 q 205 94 309 -9 q 102 345 102 198 l 102 1085 l 163 1085 l 163 345 q 249 138 163 224 q 456 52 335 52 q 663 138 578 52 q 749 345 749 224 l 749 1085 m 355 1321 q 398 1303 380 1321 q 416 1261 416 1286 q 398 1217 416 1235 q 355 1200 380 1200 q 312 1217 330 1200 q 294 1261 294 1235 q 312 1303 294 1286 q 355 1321 330 1321 m 558 1321 q 601 1303 583 1321 q 619 1261 619 1286 q 601 1217 619 1235 q 558 1200 583 1200 q 515 1217 533 1200 q 497 1261 497 1235 q 515 1303 497 1286 q 558 1321 533 1321 z "},"Ý":{"ha":876,"x_min":34,"x_max":842,"o":"m 407 439 l 34 1085 l 104 1085 l 437 507 l 772 1085 l 842 1085 l 468 439 l 468 0 l 407 0 l 407 439 m 587 1360 l 420 1233 l 363 1233 l 474 1360 l 587 1360 z "},"Þ":{"ha":762,"x_min":102,"x_max":701,"o":"m 163 897 l 387 897 q 597 793 511 880 q 701 543 701 690 q 597 292 701 396 q 347 189 494 189 l 163 189 l 163 0 l 102 0 l 102 1085 l 163 1085 l 163 897 m 163 250 l 347 250 q 554 336 468 250 q 640 543 640 422 q 554 750 640 665 q 347 836 468 836 l 163 836 l 163 250 z "},"ß":{"ha":735,"x_min":95,"x_max":674,"o":"m 292 1090 l 303 1090 q 443 1043 385 1090 q 510 889 505 992 l 510 878 q 422 727 510 783 q 674 374 665 630 q 566 107 674 220 q 324 1 465 3 l 324 0 l 211 0 l 211 61 l 324 61 l 324 60 q 519 153 437 68 q 610 374 610 246 q 519 591 610 501 q 279 682 429 682 l 279 747 q 412 787 373 751 q 450 883 450 823 q 412 986 450 943 q 310 1027 376 1027 l 302 1027 q 195 982 231 1024 q 156 859 160 941 l 156 0 l 95 0 l 95 869 q 153 1033 102 979 q 292 1090 203 1087 z "},"à":{"ha":922,"x_min":85,"x_max":821,"o":"m 821 0 l 760 0 l 760 136 q 721 90 742 112 q 457 -19 612 -19 q 194 90 303 -19 q 85 353 85 199 q 194 617 85 508 q 457 726 303 726 q 721 617 612 726 q 760 572 742 595 l 760 666 l 821 666 l 821 0 m 760 293 l 760 414 q 675 571 743 503 q 457 661 585 661 q 239 571 330 661 q 149 353 149 481 q 239 136 149 226 q 457 46 330 46 q 675 136 585 46 q 760 293 743 204 m 416 941 l 527 814 l 470 814 l 304 941 l 416 941 z "},"á":{"ha":922,"x_min":85,"x_max":821,"o":"m 821 0 l 760 0 l 760 136 q 721 90 742 112 q 457 -19 612 -19 q 194 90 303 -19 q 85 353 85 199 q 194 617 85 508 q 457 726 303 726 q 721 617 612 726 q 760 572 742 595 l 760 666 l 821 666 l 821 0 m 760 293 l 760 414 q 675 571 743 503 q 457 661 585 661 q 239 571 330 661 q 149 353 149 481 q 239 136 149 226 q 457 46 330 46 q 675 136 585 46 q 760 293 743 204 m 602 941 l 435 814 l 378 814 l 489 941 l 602 941 z "},"â":{"ha":922,"x_min":85,"x_max":821,"o":"m 821 0 l 760 0 l 760 136 q 721 90 742 112 q 457 -19 612 -19 q 194 90 303 -19 q 85 353 85 199 q 194 617 85 508 q 457 726 303 726 q 721 617 612 726 q 760 572 742 595 l 760 666 l 821 666 l 821 0 m 760 293 l 760 414 q 675 571 743 503 q 457 661 585 661 q 239 571 330 661 q 149 353 149 481 q 239 136 149 226 q 457 46 330 46 q 675 136 585 46 q 760 293 743 204 m 485 898 l 646 739 l 576 739 l 450 836 l 330 739 l 259 739 l 414 898 l 485 898 z "},"ã":{"ha":922,"x_min":85,"x_max":821,"o":"m 821 0 l 760 0 l 760 136 q 721 90 742 112 q 457 -19 612 -19 q 194 90 303 -19 q 85 353 85 199 q 194 617 85 508 q 457 726 303 726 q 721 617 612 726 q 760 572 742 595 l 760 666 l 821 666 l 821 0 m 760 293 l 760 414 q 675 571 743 503 q 457 661 585 661 q 239 571 330 661 q 149 353 149 481 q 239 136 149 226 q 457 46 330 46 q 675 136 585 46 q 760 293 743 204 m 449 851 q 533 810 500 810 l 536 810 q 584 867 570 812 l 631 867 q 564 764 616 780 q 535 760 549 760 q 457 791 496 760 q 373 831 406 831 l 370 831 q 322 774 336 829 l 275 774 q 342 878 290 862 q 371 882 357 882 q 449 851 410 882 z "},"ä":{"ha":922,"x_min":85,"x_max":821,"o":"m 821 0 l 760 0 l 760 136 q 721 90 742 112 q 457 -19 612 -19 q 194 90 303 -19 q 85 353 85 199 q 194 617 85 508 q 457 726 303 726 q 721 617 612 726 q 760 572 742 595 l 760 666 l 821 666 l 821 0 m 760 293 l 760 414 q 675 571 743 503 q 457 661 585 661 q 239 571 330 661 q 149 353 149 481 q 239 136 149 226 q 457 46 330 46 q 675 136 585 46 q 760 293 743 204 m 351 902 q 394 884 376 902 q 412 842 412 867 q 394 798 412 816 q 351 781 376 781 q 308 798 326 781 q 290 842 290 816 q 308 884 290 867 q 351 902 326 902 m 555 902 q 598 884 580 902 q 616 842 616 867 q 598 798 616 816 q 555 781 580 781 q 512 798 530 781 q 494 842 494 816 q 512 884 494 867 q 555 902 530 902 z "},"å":{"ha":922,"x_min":85,"x_max":821,"o":"m 821 0 l 760 0 l 760 136 q 721 90 742 112 q 457 -19 612 -19 q 194 90 303 -19 q 85 353 85 199 q 194 617 85 508 q 457 726 303 726 q 721 617 612 726 q 760 572 742 595 l 760 666 l 821 666 l 821 0 m 760 293 l 760 414 q 675 571 743 503 q 457 661 585 661 q 239 571 330 661 q 149 353 149 481 q 239 136 149 226 q 457 46 330 46 q 675 136 585 46 q 760 293 743 204 m 453 924 q 512 899 488 924 q 536 840 536 875 q 512 782 536 806 q 453 758 488 758 q 394 782 418 758 q 370 840 370 806 q 394 899 370 875 q 453 924 418 924 m 453 880 q 425 868 437 880 q 414 840 414 857 q 425 813 414 825 q 453 802 437 802 q 480 813 469 802 q 492 840 492 825 q 480 868 492 857 q 453 880 469 880 z "},"æ":{"ha":1472,"x_min":61,"x_max":1411,"o":"m 704 501 q 651 571 684 538 q 433 661 561 661 q 216 571 306 661 q 125 353 125 481 q 216 136 125 226 q 433 46 306 46 q 651 136 561 46 q 704 205 684 169 q 736 293 727 246 l 736 414 q 704 501 727 460 m 1338 450 q 1265 571 1316 519 q 1047 661 1175 661 q 829 571 920 661 q 797 534 811 553 l 797 450 l 1338 450 m 797 174 q 829 136 811 154 q 1047 46 920 46 q 1265 136 1175 46 q 1294 169 1280 152 l 1359 146 q 1311 90 1348 127 q 1047 -19 1202 -19 q 797 78 902 -19 l 797 0 l 736 0 l 736 136 q 697 90 718 112 q 433 -19 588 -19 q 170 90 279 -19 q 61 353 61 199 q 170 617 61 508 q 433 726 279 726 q 697 617 588 726 q 736 572 718 595 l 736 666 l 797 666 l 797 629 q 1047 726 902 726 q 1311 617 1202 726 q 1411 388 1407 520 l 797 389 l 797 174 z "},"ç":{"ha":798,"x_min":61,"x_max":737,"o":"m 369 -14 q 170 90 256 5 q 61 354 61 199 q 170 617 61 508 q 433 726 279 726 q 697 617 588 726 q 737 571 720 595 l 673 547 q 651 572 663 559 q 433 661 561 661 q 216 571 307 661 q 126 354 126 481 q 216 136 126 227 q 433 46 307 46 q 651 136 561 46 q 673 160 663 148 l 737 137 q 697 90 720 113 q 433 -19 588 -19 q 416 -18 425 -19 l 416 -20 l 415 -24 l 416 -24 l 414 -51 q 433 -61 423 -56 q 479 -125 473 -87 q 479 -134 479 -130 q 450 -187 479 -165 q 362 -214 416 -214 q 319 -209 339 -214 l 326 -172 q 357 -176 340 -176 q 408 -161 388 -176 q 425 -130 425 -148 l 425 -125 q 397 -87 421 -103 q 345 -73 374 -73 l 369 -14 z "},"è":{"ha":798,"x_min":61,"x_max":737,"o":"m 229 125 q 433 46 315 46 q 651 136 561 46 q 673 160 663 148 l 737 137 q 697 90 720 113 q 433 -19 588 -19 q 170 90 279 -19 q 61 354 61 199 q 170 617 61 508 q 433 726 279 726 q 665 647 566 726 q 697 617 681 633 q 709 605 703 611 l 663 559 l 229 125 m 618 600 q 433 661 538 661 q 216 571 307 661 q 126 354 126 481 q 187 170 126 249 l 618 600 m 363 941 l 473 814 l 416 814 l 250 941 l 363 941 z "},"é":{"ha":798,"x_min":61,"x_max":737,"o":"m 229 125 q 433 46 315 46 q 651 136 561 46 q 673 160 663 148 l 737 137 q 697 90 720 113 q 433 -19 588 -19 q 170 90 279 -19 q 61 354 61 199 q 170 617 61 508 q 433 726 279 726 q 665 647 566 726 q 697 617 681 633 q 709 605 703 611 l 663 559 l 229 125 m 618 600 q 433 661 538 661 q 216 571 307 661 q 126 354 126 481 q 187 170 126 249 l 618 600 m 548 941 l 382 814 l 325 814 l 435 941 l 548 941 z "},"ê":{"ha":798,"x_min":61,"x_max":737,"o":"m 229 125 q 433 46 315 46 q 651 136 561 46 q 673 160 663 148 l 737 137 q 697 90 720 113 q 433 -19 588 -19 q 170 90 279 -19 q 61 354 61 199 q 170 617 61 508 q 433 726 279 726 q 665 647 566 726 q 697 617 681 633 q 709 605 703 611 l 663 559 l 229 125 m 618 600 q 433 661 538 661 q 216 571 307 661 q 126 354 126 481 q 187 170 126 249 l 618 600 m 431 898 l 593 739 l 522 739 l 396 836 l 277 739 l 205 739 l 361 898 l 431 898 z "},"ë":{"ha":798,"x_min":61,"x_max":737,"o":"m 229 125 q 433 46 315 46 q 651 136 561 46 q 673 160 663 148 l 737 137 q 697 90 720 113 q 433 -19 588 -19 q 170 90 279 -19 q 61 354 61 199 q 170 617 61 508 q 433 726 279 726 q 665 647 566 726 q 697 617 681 633 q 709 605 703 611 l 663 559 l 229 125 m 618 600 q 433 661 538 661 q 216 571 307 661 q 126 354 126 481 q 187 170 126 249 l 618 600 m 298 902 q 341 884 323 902 q 359 842 359 867 q 341 798 359 816 q 298 781 323 781 q 255 798 273 781 q 237 842 237 816 q 255 884 237 867 q 298 902 273 902 m 501 902 q 544 884 526 902 q 562 842 562 867 q 544 798 562 816 q 501 781 526 781 q 458 798 476 781 q 440 842 440 816 q 458 884 440 867 q 501 902 476 902 z "},"ì":{"ha":292,"x_min":-3,"x_max":220,"o":"m 176 666 l 176 0 l 115 0 l 115 666 l 176 666 m 110 941 l 220 814 l 163 814 l -3 941 l 110 941 z "},"í":{"ha":292,"x_min":71,"x_max":294,"o":"m 176 666 l 176 0 l 115 0 l 115 666 l 176 666 m 294 941 l 128 814 l 71 814 l 182 941 l 294 941 z "},"î":{"ha":292,"x_min":-47,"x_max":340,"o":"m 177 666 l 177 0 l 116 0 l 116 666 l 177 666 m 178 898 l 340 739 l 269 739 l 143 836 l 24 739 l -47 739 l 108 898 l 178 898 z "},"ï":{"ha":292,"x_min":-17,"x_max":309,"o":"m 176 666 l 176 0 l 115 0 l 115 666 l 176 666 m 44 902 q 87 884 69 902 q 105 842 105 867 q 87 798 105 816 q 44 781 69 781 q 1 798 19 781 q -17 842 -17 816 q 1 884 -17 867 q 44 902 19 902 m 248 902 q 291 884 273 902 q 309 842 309 867 q 291 798 309 816 q 248 781 273 781 q 204 798 222 781 q 186 842 186 816 q 204 884 186 867 q 248 902 222 902 z "},"ð":{"ha":867,"x_min":61,"x_max":806,"o":"m 216 571 q 171 526 216 571 q 125 353 125 481 q 216 136 125 226 q 433 46 306 46 q 651 136 561 46 q 741 353 741 226 q 651 571 741 481 q 433 661 561 661 q 216 571 306 661 m 649 659 q 697 617 674 640 q 806 353 806 508 q 697 90 806 199 q 433 -19 588 -19 q 170 90 279 -19 q 61 353 61 199 q 170 617 61 508 q 433 726 279 726 q 477 724 456 726 l 441 765 l 327 765 l 327 826 l 386 826 l 315 904 l 402 904 l 480 826 l 591 826 l 591 765 l 542 765 l 649 659 z "},"ñ":{"ha":726,"x_min":102,"x_max":625,"o":"m 163 517 l 163 0 l 102 0 l 102 666 l 163 666 l 163 623 q 357 706 246 706 q 549 632 475 706 q 625 446 623 558 l 625 0 l 564 0 l 564 440 q 502 585 564 525 q 357 645 441 645 q 212 586 273 645 q 163 517 178 553 m 359 851 q 444 810 410 810 l 447 810 q 494 867 481 812 l 541 867 q 474 764 527 780 q 446 760 460 760 q 368 791 407 760 q 283 831 317 831 l 280 831 q 233 774 246 829 l 185 774 q 253 878 200 862 q 281 882 267 882 q 359 851 320 882 z "},"ò":{"ha":867,"x_min":61,"x_max":806,"o":"m 433 726 q 697 617 588 726 q 806 353 806 508 q 697 90 806 199 q 433 -19 588 -19 q 170 90 279 -19 q 61 353 61 199 q 170 617 61 508 q 433 726 279 726 m 433 661 q 216 571 306 661 q 125 353 125 481 q 216 136 125 226 q 433 46 306 46 q 651 136 561 46 q 741 353 741 226 q 651 571 741 481 q 433 661 561 661 m 397 941 l 508 814 l 451 814 l 285 941 l 397 941 z "},"ó":{"ha":867,"x_min":61,"x_max":806,"o":"m 433 726 q 697 617 588 726 q 806 353 806 508 q 697 90 806 199 q 433 -19 588 -19 q 170 90 279 -19 q 61 353 61 199 q 170 617 61 508 q 433 726 279 726 m 433 661 q 216 571 306 661 q 125 353 125 481 q 216 136 125 226 q 433 46 306 46 q 651 136 561 46 q 741 353 741 226 q 651 571 741 481 q 433 661 561 661 m 582 941 l 416 814 l 359 814 l 469 941 l 582 941 z "},"ô":{"ha":867,"x_min":61,"x_max":806,"o":"m 433 726 q 697 617 588 726 q 806 353 806 508 q 697 90 806 199 q 433 -19 588 -19 q 170 90 279 -19 q 61 353 61 199 q 170 617 61 508 q 433 726 279 726 m 433 661 q 216 571 306 661 q 125 353 125 481 q 216 136 125 226 q 433 46 306 46 q 651 136 561 46 q 741 353 741 226 q 651 571 741 481 q 433 661 561 661 m 466 898 l 627 739 l 557 739 l 431 836 l 311 739 l 240 739 l 395 898 l 466 898 z "},"õ":{"ha":867,"x_min":61,"x_max":806,"o":"m 433 726 q 697 617 588 726 q 806 353 806 508 q 697 90 806 199 q 433 -19 588 -19 q 170 90 279 -19 q 61 353 61 199 q 170 617 61 508 q 433 726 279 726 m 433 661 q 216 571 306 661 q 125 353 125 481 q 216 136 125 226 q 433 46 306 46 q 651 136 561 46 q 741 353 741 226 q 651 571 741 481 q 433 661 561 661 m 430 851 q 514 810 481 810 l 517 810 q 565 867 551 812 l 612 867 q 545 764 597 780 q 516 760 530 760 q 438 791 477 760 q 354 831 387 831 l 351 831 q 303 774 317 829 l 256 774 q 323 878 271 862 q 352 882 338 882 q 430 851 391 882 z "},"ö":{"ha":867,"x_min":61,"x_max":806,"o":"m 433 726 q 697 617 588 726 q 806 353 806 508 q 697 90 806 199 q 433 -19 588 -19 q 170 90 279 -19 q 61 353 61 199 q 170 617 61 508 q 433 726 279 726 m 433 661 q 216 571 306 661 q 125 353 125 481 q 216 136 125 226 q 433 46 306 46 q 651 136 561 46 q 741 353 741 226 q 651 571 741 481 q 433 661 561 661 m 332 902 q 375 884 357 902 q 393 842 393 867 q 375 798 393 816 q 332 781 357 781 q 289 798 307 781 q 271 842 271 816 q 289 884 271 867 q 332 902 307 902 m 535 902 q 578 884 560 902 q 596 842 596 867 q 578 798 596 816 q 535 781 560 781 q 492 798 510 781 q 474 842 474 816 q 492 884 474 867 q 535 902 510 902 z "},"÷":{"ha":712,"x_min":85,"x_max":627,"o":"m 85 447 l 627 447 l 627 386 l 85 386 l 85 447 m 356 612 q 399 595 381 612 q 417 552 417 577 q 399 509 417 526 q 356 491 381 491 q 313 509 331 491 q 295 552 295 526 q 313 595 295 577 q 356 612 331 612 m 356 341 q 399 323 381 341 q 417 281 417 306 q 399 237 417 255 q 356 220 381 220 q 313 237 331 220 q 295 281 295 255 q 313 323 295 306 q 356 341 331 341 z "},"ø":{"ha":867,"x_min":61,"x_max":806,"o":"m 561 635 q 433 662 503 662 q 216 572 306 662 q 125 354 125 481 q 216 137 125 227 q 254 104 234 118 l 561 635 m 613 604 l 306 73 q 433 47 364 47 q 651 137 561 47 q 741 354 741 227 q 651 572 741 481 q 613 604 633 590 m 222 47 q 170 91 195 66 q 61 354 61 200 q 170 618 61 509 q 433 727 279 727 q 594 692 521 727 l 677 836 l 730 808 l 646 661 q 697 618 673 642 q 806 354 806 509 q 697 91 806 200 q 433 -18 588 -18 q 273 17 346 -18 l 190 -127 l 136 -102 l 222 47 z "},"ù":{"ha":745,"x_min":102,"x_max":644,"o":"m 376 -9 q 178 64 252 -9 q 102 251 104 138 l 102 666 l 163 666 l 163 256 q 224 112 163 172 q 376 52 286 52 q 521 112 460 52 q 583 256 583 172 l 583 666 l 644 666 l 644 251 q 568 64 642 138 q 376 -9 494 -9 m 336 941 l 447 814 l 390 814 l 224 941 l 336 941 z "},"ú":{"ha":745,"x_min":102,"x_max":644,"o":"m 376 -9 q 178 64 252 -9 q 102 251 104 138 l 102 666 l 163 666 l 163 256 q 224 112 163 172 q 376 52 286 52 q 521 112 460 52 q 583 256 583 172 l 583 666 l 644 666 l 644 251 q 568 64 642 138 q 376 -9 494 -9 m 522 941 l 355 814 l 298 814 l 409 941 l 522 941 z "},"û":{"ha":745,"x_min":102,"x_max":644,"o":"m 376 -9 q 178 64 252 -9 q 102 251 104 138 l 102 666 l 163 666 l 163 256 q 224 112 163 172 q 376 52 286 52 q 521 112 460 52 q 583 256 583 172 l 583 666 l 644 666 l 644 251 q 568 64 642 138 q 376 -9 494 -9 m 405 898 l 566 739 l 496 739 l 370 836 l 250 739 l 179 739 l 334 898 l 405 898 z "},"ü":{"ha":745,"x_min":102,"x_max":644,"o":"m 376 -9 q 178 64 252 -9 q 102 251 104 138 l 102 666 l 163 666 l 163 256 q 224 112 163 172 q 376 52 286 52 q 521 112 460 52 q 583 256 583 172 l 583 666 l 644 666 l 644 251 q 568 64 642 138 q 376 -9 494 -9 m 271 902 q 314 884 296 902 q 332 842 332 867 q 314 798 332 816 q 271 781 296 781 q 228 798 246 781 q 210 842 210 816 q 228 884 210 867 q 271 902 246 902 m 475 902 q 518 884 500 902 q 536 842 536 867 q 518 798 536 816 q 475 781 500 781 q 432 798 450 781 q 414 842 414 816 q 432 884 414 867 q 475 902 450 902 z "},"ý":{"ha":682,"x_min":51,"x_max":631,"o":"m 341 60 l 191 -254 l 131 -254 l 311 123 l 51 666 l 120 666 l 341 189 l 562 666 l 631 666 l 341 59 l 341 60 m 490 941 l 323 814 l 267 814 l 377 941 l 490 941 z "},"þ":{"ha":905,"x_min":102,"x_max":837,"o":"m 163 572 q 201 617 180 595 q 465 726 311 726 q 728 617 619 726 q 837 353 837 508 q 728 90 837 199 q 465 -19 619 -19 q 201 90 311 -19 q 163 135 180 112 l 163 -254 l 102 -254 l 102 1085 l 163 1085 l 163 572 m 163 290 q 247 136 180 202 q 465 45 337 45 q 682 136 592 45 q 772 353 772 226 q 682 571 772 481 q 465 661 592 661 q 247 571 337 661 q 163 417 180 505 l 163 290 z "},"ÿ":{"ha":682,"x_min":51,"x_max":631,"o":"m 341 60 l 191 -254 l 131 -254 l 311 123 l 51 666 l 120 666 l 341 189 l 562 666 l 631 666 l 341 59 l 341 60 m 239 902 q 282 884 264 902 q 300 842 300 867 q 282 798 300 816 q 239 781 264 781 q 196 798 214 781 q 178 842 178 816 q 196 884 178 867 q 239 902 214 902 m 443 902 q 486 884 468 902 q 504 842 504 867 q 486 798 504 816 q 443 781 468 781 q 400 798 418 781 q 382 842 382 816 q 400 884 382 867 q 443 902 418 902 z "},"Ā":{"ha":876,"x_min":34,"x_max":842,"o":"m 604 477 l 438 932 l 273 477 l 604 477 m 626 416 l 250 416 l 99 0 l 34 0 l 438 1110 l 842 0 l 777 0 l 626 416 m 238 1251 l 638 1251 l 638 1204 l 238 1204 l 238 1251 z "},"ā":{"ha":922,"x_min":85,"x_max":821,"o":"m 821 0 l 760 0 l 760 136 q 721 90 742 112 q 457 -19 612 -19 q 194 90 303 -19 q 85 353 85 199 q 194 617 85 508 q 457 726 303 726 q 721 617 612 726 q 760 572 742 595 l 760 666 l 821 666 l 821 0 m 760 293 l 760 414 q 675 571 743 503 q 457 661 585 661 q 239 571 330 661 q 149 353 149 481 q 239 136 149 226 q 457 46 330 46 q 675 136 585 46 q 760 293 743 204 m 253 832 l 653 832 l 653 785 l 253 785 l 253 832 z "},"Ă":{"ha":876,"x_min":34,"x_max":842,"o":"m 604 477 l 438 932 l 273 477 l 604 477 m 626 416 l 250 416 l 99 0 l 34 0 l 438 1110 l 842 0 l 777 0 l 626 416 m 329 1326 q 360 1265 334 1291 q 439 1232 393 1232 q 517 1265 484 1232 q 548 1326 543 1291 l 597 1326 q 551 1230 592 1270 q 439 1183 505 1183 q 326 1230 372 1183 q 279 1326 281 1274 l 329 1326 z "},"ă":{"ha":922,"x_min":85,"x_max":821,"o":"m 821 0 l 760 0 l 760 136 q 721 90 742 112 q 457 -19 612 -19 q 194 90 303 -19 q 85 353 85 199 q 194 617 85 508 q 457 726 303 726 q 721 617 612 726 q 760 572 742 595 l 760 666 l 821 666 l 821 0 m 760 293 l 760 414 q 675 571 743 503 q 457 661 585 661 q 239 571 330 661 q 149 353 149 481 q 239 136 149 226 q 457 46 330 46 q 675 136 585 46 q 760 293 743 204 m 344 907 q 375 846 349 871 q 454 813 408 813 q 532 846 499 813 q 563 907 558 871 l 612 907 q 566 810 607 851 q 454 764 520 764 q 340 810 387 764 q 294 907 296 855 l 344 907 z "},"Ą":{"ha":876,"x_min":34,"x_max":842,"o":"m 604 477 l 438 932 l 273 477 l 604 477 m 767 28 l 626 416 l 250 416 l 99 0 l 34 0 l 438 1110 l 842 0 l 777 0 q 720 -69 726 -26 q 718 -92 718 -81 q 733 -142 718 -125 q 787 -167 753 -167 q 827 -157 808 -167 l 842 -191 q 766 -207 804 -207 q 687 -174 717 -207 q 663 -109 663 -147 q 665 -89 663 -99 q 767 28 674 -22 z "},"ą":{"ha":922,"x_min":85,"x_max":827,"o":"m 760 293 l 760 414 q 675 571 743 503 q 457 661 585 661 q 239 571 330 661 q 149 353 149 481 q 239 136 149 226 q 457 46 330 46 q 675 136 585 46 q 760 293 743 204 m 760 31 l 760 136 q 721 90 742 112 q 457 -19 612 -19 q 194 90 303 -19 q 85 353 85 199 q 194 617 85 508 q 457 726 303 726 q 721 617 612 726 q 760 572 742 595 l 760 666 l 821 666 l 821 0 l 760 0 q 705 -69 711 -26 q 704 -92 704 -81 q 719 -142 704 -125 q 773 -167 739 -167 q 812 -157 793 -167 l 827 -191 q 752 -207 789 -207 q 673 -174 703 -207 q 649 -109 649 -147 q 650 -89 649 -99 q 760 31 661 -19 z "},"Ć":{"ha":1082,"x_min":85,"x_max":1014,"o":"m 968 173 l 1014 132 q 640 -13 855 -13 q 247 150 410 -13 q 85 543 85 312 q 247 935 85 772 q 640 1098 410 1098 q 1014 954 855 1098 l 968 911 q 640 1036 828 1036 q 292 891 436 1036 q 147 543 147 747 q 292 193 147 338 q 640 49 436 49 q 968 173 828 49 m 766 1360 l 600 1233 l 543 1233 l 653 1360 l 766 1360 z "},"ć":{"ha":798,"x_min":61,"x_max":737,"o":"m 673 160 l 737 137 q 697 90 720 113 q 433 -19 588 -19 q 170 90 279 -19 q 61 354 61 199 q 170 617 61 508 q 433 726 279 726 q 697 617 588 726 q 737 571 720 595 l 673 547 q 651 572 663 559 q 433 661 561 661 q 216 571 307 661 q 126 354 126 481 q 216 136 126 227 q 433 46 307 46 q 651 136 561 46 q 673 160 663 148 m 582 941 l 416 814 l 359 814 l 469 941 l 582 941 z "},"Ĉ":{"ha":1082,"x_min":85,"x_max":1014,"o":"m 968 173 l 1014 132 q 640 -13 855 -13 q 247 150 410 -13 q 85 543 85 312 q 247 935 85 772 q 640 1098 410 1098 q 1014 954 855 1098 l 968 911 q 640 1036 828 1036 q 292 891 436 1036 q 147 543 147 747 q 292 193 147 338 q 640 49 436 49 q 968 173 828 49 m 650 1317 l 811 1158 l 741 1158 l 614 1255 l 495 1158 l 424 1158 l 579 1317 l 650 1317 z "},"ĉ":{"ha":798,"x_min":61,"x_max":737,"o":"m 673 160 l 737 137 q 697 90 720 113 q 433 -19 588 -19 q 170 90 279 -19 q 61 354 61 199 q 170 617 61 508 q 433 726 279 726 q 697 617 588 726 q 737 571 720 595 l 673 547 q 651 572 663 559 q 433 661 561 661 q 216 571 307 661 q 126 354 126 481 q 216 136 126 227 q 433 46 307 46 q 651 136 561 46 q 673 160 663 148 m 465 898 l 627 739 l 556 739 l 430 836 l 311 739 l 239 739 l 395 898 l 465 898 z "},"Ċ":{"ha":1082,"x_min":85,"x_max":1014,"o":"m 968 173 l 1014 132 q 640 -13 855 -13 q 247 150 410 -13 q 85 543 85 312 q 247 935 85 772 q 640 1098 410 1098 q 1014 954 855 1098 l 968 911 q 640 1036 828 1036 q 292 891 436 1036 q 147 543 147 747 q 292 193 147 338 q 640 49 436 49 q 968 173 828 49 m 638 1303 q 674 1288 659 1303 q 690 1251 690 1273 q 674 1215 690 1230 q 638 1200 659 1200 q 601 1215 616 1200 q 586 1251 586 1230 q 601 1288 586 1273 q 638 1303 616 1303 z "},"ċ":{"ha":798,"x_min":61,"x_max":737,"o":"m 673 160 l 737 137 q 697 90 720 113 q 433 -19 588 -19 q 170 90 279 -19 q 61 354 61 199 q 170 617 61 508 q 433 726 279 726 q 697 617 588 726 q 737 571 720 595 l 673 547 q 651 572 663 559 q 433 661 561 661 q 216 571 307 661 q 126 354 126 481 q 216 136 126 227 q 433 46 307 46 q 651 136 561 46 q 673 160 663 148 m 433 884 q 470 869 454 884 q 485 832 485 854 q 470 795 485 810 q 433 781 454 781 q 396 795 412 781 q 381 832 381 810 q 396 869 381 854 q 433 884 412 884 z "},"Č":{"ha":1082,"x_min":85,"x_max":1014,"o":"m 968 173 l 1014 132 q 640 -13 855 -13 q 247 150 410 -13 q 85 543 85 312 q 247 935 85 772 q 640 1098 410 1098 q 1014 954 855 1098 l 968 911 q 640 1036 828 1036 q 292 891 436 1036 q 147 543 147 747 q 292 193 147 338 q 640 49 436 49 q 968 173 828 49 m 511 1158 l 356 1317 l 427 1317 l 547 1220 l 673 1317 l 743 1317 l 582 1158 l 511 1158 z "},"č":{"ha":798,"x_min":61,"x_max":737,"o":"m 673 160 l 737 137 q 697 90 720 113 q 433 -19 588 -19 q 170 90 279 -19 q 61 354 61 199 q 170 617 61 508 q 433 726 279 726 q 697 617 588 726 q 737 571 720 595 l 673 547 q 651 572 663 559 q 433 661 561 661 q 216 571 307 661 q 126 354 126 481 q 216 136 126 227 q 433 46 307 46 q 651 136 561 46 q 673 160 663 148 m 361 739 l 205 898 l 277 898 l 396 801 l 522 898 l 593 898 l 431 739 l 361 739 z "},"Ď":{"ha":813,"x_min":102,"x_max":745,"o":"m 163 1021 l 163 63 l 168 63 q 538 193 409 63 q 683 543 683 338 q 538 892 683 747 q 168 1021 409 1021 l 163 1021 m 163 1084 l 168 1084 q 583 936 435 1084 q 745 543 745 772 q 583 149 745 312 q 168 1 435 1 l 163 1 l 163 0 l 102 0 l 102 1085 l 163 1085 l 163 1084 m 385 1090 l 230 1249 l 301 1249 l 420 1152 l 547 1249 l 617 1249 l 456 1090 l 385 1090 z "},"ď":{"ha":997,"x_min":85,"x_max":997,"o":"m 821 0 l 760 0 l 760 136 q 721 90 742 112 q 457 -19 612 -19 q 194 90 303 -19 q 85 353 85 199 q 194 617 85 508 q 457 726 303 726 q 721 617 612 726 q 760 572 742 595 l 760 1085 l 821 1085 l 821 0 m 760 293 l 760 414 q 675 571 743 503 q 457 661 585 661 q 239 571 330 661 q 149 353 149 481 q 239 136 149 226 q 457 46 330 46 q 675 136 585 46 q 760 293 743 204 m 920 968 q 893 983 905 971 q 875 1027 875 1001 q 893 1069 875 1052 q 936 1087 911 1087 q 979 1069 961 1087 q 997 1027 997 1052 q 992 1000 997 1013 l 926 866 l 882 866 l 920 968 z "},"Đ":{"ha":871,"x_min":34,"x_max":786,"o":"m 142 573 l 142 1085 l 203 1085 l 203 1084 l 208 1084 q 623 936 476 1084 q 786 543 786 772 q 623 149 786 312 q 208 1 476 1 l 203 1 l 203 0 l 142 0 l 142 512 l 34 512 l 34 573 l 142 573 m 203 573 l 454 573 l 454 512 l 203 512 l 203 63 l 208 63 q 579 193 450 63 q 724 543 724 338 q 579 892 724 747 q 208 1021 450 1021 l 203 1021 l 203 573 z "},"đ":{"ha":922,"x_min":85,"x_max":888,"o":"m 760 293 l 760 414 q 675 571 743 503 q 457 661 585 661 q 239 571 330 661 q 149 353 149 481 q 239 136 149 226 q 457 46 330 46 q 675 136 585 46 q 760 293 743 204 m 821 870 l 821 0 l 760 0 l 760 136 q 721 90 742 112 q 457 -19 612 -19 q 194 90 303 -19 q 85 353 85 199 q 194 617 85 508 q 457 726 303 726 q 721 617 612 726 q 760 572 742 595 l 760 870 l 562 870 l 562 931 l 760 931 l 760 1085 l 821 1085 l 821 931 l 888 931 l 888 870 l 821 870 z "},"Ē":{"ha":729,"x_min":102,"x_max":644,"o":"m 644 1085 l 644 1024 l 163 1024 l 163 573 l 644 573 l 644 512 l 163 512 l 163 61 l 644 61 l 644 0 l 102 0 l 102 1085 l 644 1085 m 173 1251 l 573 1251 l 573 1204 l 173 1204 l 173 1251 z "},"ē":{"ha":798,"x_min":61,"x_max":737,"o":"m 229 125 q 433 46 315 46 q 651 136 561 46 q 673 160 663 148 l 737 137 q 697 90 720 113 q 433 -19 588 -19 q 170 90 279 -19 q 61 354 61 199 q 170 617 61 508 q 433 726 279 726 q 665 647 566 726 q 697 617 681 633 q 709 605 703 611 l 663 559 l 229 125 m 618 600 q 433 661 538 661 q 216 571 307 661 q 126 354 126 481 q 187 170 126 249 l 618 600 m 199 832 l 600 832 l 600 785 l 199 785 l 199 832 z "},"Ĕ":{"ha":729,"x_min":102,"x_max":644,"o":"m 644 1085 l 644 1024 l 163 1024 l 163 573 l 644 573 l 644 512 l 163 512 l 163 61 l 644 61 l 644 0 l 102 0 l 102 1085 l 644 1085 m 264 1326 q 295 1265 269 1291 q 374 1232 328 1232 q 452 1265 419 1232 q 483 1326 478 1291 l 532 1326 q 486 1230 527 1270 q 374 1183 440 1183 q 260 1230 307 1183 q 214 1326 216 1274 l 264 1326 z "},"ĕ":{"ha":798,"x_min":61,"x_max":737,"o":"m 229 125 q 433 46 315 46 q 651 136 561 46 q 673 160 663 148 l 737 137 q 697 90 720 113 q 433 -19 588 -19 q 170 90 279 -19 q 61 354 61 199 q 170 617 61 508 q 433 726 279 726 q 665 647 566 726 q 697 617 681 633 q 709 605 703 611 l 663 559 l 229 125 m 618 600 q 433 661 538 661 q 216 571 307 661 q 126 354 126 481 q 187 170 126 249 l 618 600 m 290 907 q 321 846 296 871 q 400 813 354 813 q 478 846 446 813 q 509 907 505 871 l 559 907 q 513 810 553 851 q 400 764 467 764 q 287 810 333 764 q 240 907 243 855 l 290 907 z "},"Ė":{"ha":729,"x_min":102,"x_max":644,"o":"m 644 1085 l 644 1024 l 163 1024 l 163 573 l 644 573 l 644 512 l 163 512 l 163 61 l 644 61 l 644 0 l 102 0 l 102 1085 l 644 1085 m 374 1303 q 410 1288 395 1303 q 425 1251 425 1273 q 410 1215 425 1230 q 374 1200 395 1200 q 337 1215 352 1200 q 321 1251 321 1230 q 337 1288 321 1273 q 374 1303 352 1303 z "},"ė":{"ha":798,"x_min":61,"x_max":737,"o":"m 229 125 q 433 46 315 46 q 651 136 561 46 q 673 160 663 148 l 737 137 q 697 90 720 113 q 433 -19 588 -19 q 170 90 279 -19 q 61 354 61 199 q 170 617 61 508 q 433 726 279 726 q 665 647 566 726 q 697 617 681 633 q 709 605 703 611 l 663 559 l 229 125 m 618 600 q 433 661 538 661 q 216 571 307 661 q 126 354 126 481 q 187 170 126 249 l 618 600 m 399 884 q 436 869 420 884 q 451 832 451 854 q 436 795 451 810 q 399 781 420 781 q 362 795 378 781 q 347 832 347 810 q 362 869 347 854 q 399 884 378 884 z "},"Ę":{"ha":729,"x_min":102,"x_max":644,"o":"m 526 0 l 102 0 l 102 1085 l 644 1085 l 644 1024 l 163 1024 l 163 573 l 644 573 l 644 512 l 163 512 l 163 61 l 644 61 l 644 0 l 572 0 q 522 -69 528 -28 q 521 -92 521 -81 q 536 -142 521 -125 q 590 -167 556 -167 q 629 -157 610 -167 l 644 -191 q 569 -207 606 -207 q 490 -174 519 -207 q 466 -109 466 -147 q 467 -89 466 -99 q 526 0 474 -39 z "},"ę":{"ha":798,"x_min":61,"x_max":737,"o":"m 618 600 q 433 661 538 661 q 216 571 307 661 q 126 354 126 481 q 187 170 126 249 l 618 600 m 606 19 q 433 -19 516 -19 q 170 90 279 -19 q 61 354 61 199 q 170 617 61 508 q 433 726 279 726 q 665 647 566 726 q 697 617 681 633 q 709 605 703 611 l 663 559 l 229 125 q 433 46 315 46 q 651 136 561 46 q 673 160 663 148 l 737 137 q 697 90 720 113 q 647 47 673 66 q 595 -70 602 -26 q 593 -93 593 -82 q 608 -143 593 -125 q 663 -168 629 -168 q 702 -158 683 -168 l 717 -192 q 642 -208 679 -208 q 562 -174 592 -208 q 538 -109 538 -148 q 540 -90 538 -100 q 606 19 546 -45 z "},"Ě":{"ha":729,"x_min":102,"x_max":644,"o":"m 644 1085 l 644 1024 l 163 1024 l 163 573 l 644 573 l 644 512 l 163 512 l 163 61 l 644 61 l 644 0 l 102 0 l 102 1085 l 644 1085 m 335 1158 l 180 1317 l 251 1317 l 370 1220 l 496 1317 l 567 1317 l 406 1158 l 335 1158 z "},"ě":{"ha":798,"x_min":61,"x_max":737,"o":"m 229 125 q 433 46 315 46 q 651 136 561 46 q 673 160 663 148 l 737 137 q 697 90 720 113 q 433 -19 588 -19 q 170 90 279 -19 q 61 354 61 199 q 170 617 61 508 q 433 726 279 726 q 665 647 566 726 q 697 617 681 633 q 709 605 703 611 l 663 559 l 229 125 m 618 600 q 433 661 538 661 q 216 571 307 661 q 126 354 126 481 q 187 170 126 249 l 618 600 m 361 739 l 205 898 l 277 898 l 396 801 l 522 898 l 593 898 l 431 739 l 361 739 z "},"Ĝ":{"ha":1099,"x_min":85,"x_max":1014,"o":"m 1010 135 q 640 -13 855 -13 q 247 150 410 -13 q 85 543 85 312 q 247 935 85 772 q 640 1098 410 1098 q 1014 954 855 1098 l 968 911 q 640 1036 828 1036 q 292 891 436 1036 q 147 543 147 747 q 292 193 147 338 q 640 49 436 49 q 949 157 815 49 l 949 488 l 1010 488 l 1010 135 m 650 1317 l 811 1158 l 741 1158 l 614 1255 l 495 1158 l 424 1158 l 579 1317 l 650 1317 z "},"ĝ":{"ha":925,"x_min":85,"x_max":821,"o":"m 759 417 q 675 571 741 505 q 457 661 585 661 q 239 571 330 661 q 149 353 149 481 q 239 136 149 226 q 457 45 330 45 q 675 136 585 45 q 759 288 741 201 l 759 417 m 758 132 q 721 90 741 111 q 457 -19 612 -19 q 194 90 303 -19 q 85 353 85 199 q 194 617 85 508 q 457 726 303 726 q 721 617 612 726 q 760 572 742 595 l 760 666 l 821 666 l 821 149 q 714 -108 821 -1 q 451 -217 605 -217 q 187 -108 296 -217 q 147 -61 165 -85 l 212 -38 q 233 -62 222 -50 q 451 -152 323 -152 q 668 -62 578 -152 q 758 132 750 20 m 485 898 l 646 739 l 576 739 l 450 836 l 330 739 l 259 739 l 414 898 l 485 898 z "},"Ğ":{"ha":1099,"x_min":85,"x_max":1014,"o":"m 1010 135 q 640 -13 855 -13 q 247 150 410 -13 q 85 543 85 312 q 247 935 85 772 q 640 1098 410 1098 q 1014 954 855 1098 l 968 911 q 640 1036 828 1036 q 292 891 436 1036 q 147 543 147 747 q 292 193 147 338 q 640 49 436 49 q 949 157 815 49 l 949 488 l 1010 488 l 1010 135 m 535 1326 q 566 1265 541 1291 q 645 1232 599 1232 q 723 1265 690 1232 q 754 1326 749 1291 l 804 1326 q 758 1230 798 1270 q 645 1183 711 1183 q 532 1230 578 1183 q 485 1326 488 1274 l 535 1326 z "},"ğ":{"ha":925,"x_min":85,"x_max":821,"o":"m 759 417 q 675 571 741 505 q 457 661 585 661 q 239 571 330 661 q 149 353 149 481 q 239 136 149 226 q 457 45 330 45 q 675 136 585 45 q 759 288 741 201 l 759 417 m 758 132 q 721 90 741 111 q 457 -19 612 -19 q 194 90 303 -19 q 85 353 85 199 q 194 617 85 508 q 457 726 303 726 q 721 617 612 726 q 760 572 742 595 l 760 666 l 821 666 l 821 149 q 714 -108 821 -1 q 451 -217 605 -217 q 187 -108 296 -217 q 147 -61 165 -85 l 212 -38 q 233 -62 222 -50 q 451 -152 323 -152 q 668 -62 578 -152 q 758 132 750 20 m 344 907 q 375 846 349 871 q 454 813 408 813 q 532 846 499 813 q 563 907 558 871 l 612 907 q 566 810 607 851 q 454 764 520 764 q 340 810 387 764 q 294 907 296 855 l 344 907 z "},"Ġ":{"ha":1099,"x_min":85,"x_max":1014,"o":"m 1010 135 q 640 -13 855 -13 q 247 150 410 -13 q 85 543 85 312 q 247 935 85 772 q 640 1098 410 1098 q 1014 954 855 1098 l 968 911 q 640 1036 828 1036 q 292 891 436 1036 q 147 543 147 747 q 292 193 147 338 q 640 49 436 49 q 949 157 815 49 l 949 488 l 1010 488 l 1010 135 m 638 1303 q 674 1288 659 1303 q 690 1251 690 1273 q 674 1215 690 1230 q 638 1200 659 1200 q 601 1215 616 1200 q 586 1251 586 1230 q 601 1288 586 1273 q 638 1303 616 1303 z "},"ġ":{"ha":925,"x_min":85,"x_max":821,"o":"m 759 417 q 675 571 741 505 q 457 661 585 661 q 239 571 330 661 q 149 353 149 481 q 239 136 149 226 q 457 45 330 45 q 675 136 585 45 q 759 288 741 201 l 759 417 m 758 132 q 721 90 741 111 q 457 -19 612 -19 q 194 90 303 -19 q 85 353 85 199 q 194 617 85 508 q 457 726 303 726 q 721 617 612 726 q 760 572 742 595 l 760 666 l 821 666 l 821 149 q 714 -108 821 -1 q 451 -217 605 -217 q 187 -108 296 -217 q 147 -61 165 -85 l 212 -38 q 233 -62 222 -50 q 451 -152 323 -152 q 668 -62 578 -152 q 758 132 750 20 m 453 884 q 489 869 474 884 q 505 832 505 854 q 489 795 505 810 q 453 781 474 781 q 416 795 431 781 q 401 832 401 810 q 416 869 401 854 q 453 884 431 884 z "},"Ģ":{"ha":1099,"x_min":85,"x_max":1014,"o":"m 524 -2 q 248 150 367 30 q 85 543 85 312 q 247 935 85 772 q 640 1098 410 1098 q 1014 954 855 1098 l 968 911 q 640 1036 828 1036 q 292 891 436 1036 q 147 543 147 747 q 292 193 147 338 q 640 49 436 49 q 949 157 815 49 l 949 488 l 1010 488 l 1010 135 q 640 -13 855 -13 q 568 -9 603 -13 l 566 -20 l 566 -24 l 566 -24 l 564 -51 q 583 -61 574 -56 q 629 -125 624 -87 q 630 -134 630 -130 q 601 -187 630 -165 q 513 -214 566 -214 q 469 -209 490 -214 l 477 -172 q 508 -176 491 -176 q 558 -161 538 -176 q 575 -130 575 -148 l 575 -125 q 548 -87 572 -103 q 496 -73 524 -73 l 524 -2 z "},"ģ":{"ha":925,"x_min":85,"x_max":821,"o":"m 759 417 q 675 571 741 505 q 457 661 585 661 q 239 571 330 661 q 149 353 149 481 q 239 136 149 226 q 457 45 330 45 q 675 136 585 45 q 759 288 741 201 l 759 417 m 758 132 q 721 90 741 111 q 457 -19 612 -19 q 194 90 303 -19 q 85 353 85 199 q 194 617 85 508 q 457 726 303 726 q 721 617 612 726 q 760 572 742 595 l 760 666 l 821 666 l 821 149 q 714 -108 821 -1 q 451 -217 605 -217 q 187 -108 296 -217 q 147 -61 165 -85 l 212 -38 q 233 -62 222 -50 q 451 -152 323 -152 q 668 -62 578 -152 q 758 132 750 20 m 486 889 q 513 873 502 886 q 532 830 532 856 q 514 787 532 805 q 471 770 496 770 q 428 787 446 770 q 410 830 410 805 q 414 857 410 844 l 481 991 l 525 991 l 486 889 z "},"Ĥ":{"ha":780,"x_min":102,"x_max":678,"o":"m 163 486 l 163 0 l 102 0 l 102 1085 l 163 1085 l 163 547 l 617 547 l 617 1085 l 678 1085 l 678 0 l 617 0 l 617 486 l 163 486 m 422 1317 l 584 1158 l 513 1158 l 387 1255 l 268 1158 l 197 1158 l 352 1317 l 422 1317 z "},"ĥ":{"ha":718,"x_min":102,"x_max":616,"o":"m 102 1085 l 163 1085 l 163 631 q 349 706 240 706 q 541 632 467 706 q 616 446 614 558 l 616 0 l 555 0 l 555 440 q 494 585 555 525 q 349 645 433 645 q 203 586 264 645 q 163 530 176 559 l 163 0 l 102 0 l 102 1085 m 422 1317 l 584 1158 l 513 1158 l 387 1255 l 268 1158 l 197 1158 l 352 1317 l 422 1317 z "},"Ħ":{"ha":773,"x_min":47,"x_max":726,"o":"m 675 888 l 675 0 l 614 0 l 614 486 l 159 486 l 159 0 l 98 0 l 98 888 l 47 888 l 47 949 l 98 949 l 98 1085 l 159 1085 l 159 949 l 614 949 l 614 1085 l 675 1085 l 675 949 l 726 949 l 726 888 l 675 888 m 159 888 l 159 547 l 614 547 l 614 888 l 159 888 z "},"ħ":{"ha":718,"x_min":34,"x_max":616,"o":"m 102 931 l 102 1085 l 163 1085 l 163 931 l 441 931 l 441 870 l 163 870 l 163 631 q 349 706 240 706 q 541 632 467 706 q 616 446 614 558 l 616 0 l 555 0 l 555 440 q 494 585 555 525 q 349 645 433 645 q 203 586 264 645 q 163 530 176 559 l 163 0 l 102 0 l 102 870 l 34 870 l 34 931 l 102 931 z "},"Ĩ":{"ha":292,"x_min":-32,"x_max":324,"o":"m 177 1085 l 177 0 l 116 0 l 116 1085 l 177 1085 m 142 1270 q 227 1230 193 1230 l 230 1230 q 277 1286 264 1232 l 324 1286 q 257 1183 310 1199 q 229 1179 243 1179 q 151 1211 190 1179 q 66 1251 100 1251 l 63 1251 q 16 1194 29 1249 l -32 1194 q 36 1297 -17 1281 q 64 1301 50 1301 q 142 1270 103 1301 z "},"ĩ":{"ha":292,"x_min":-32,"x_max":324,"o":"m 177 666 l 177 0 l 116 0 l 116 666 l 177 666 m 142 851 q 227 810 193 810 l 230 810 q 277 867 264 812 l 324 867 q 257 764 310 780 q 229 760 243 760 q 151 791 190 760 q 66 831 100 831 l 63 831 q 16 774 29 829 l -32 774 q 36 878 -17 862 q 64 882 50 882 q 142 851 103 882 z "},"Ī":{"ha":292,"x_min":-54,"x_max":346,"o":"m 176 1085 l 176 0 l 115 0 l 115 1085 l 176 1085 m -54 1251 l 346 1251 l 346 1204 l -54 1204 l -54 1251 z "},"ī":{"ha":292,"x_min":-54,"x_max":346,"o":"m 176 666 l 176 0 l 115 0 l 115 666 l 176 666 m -54 832 l 346 832 l 346 785 l -54 785 l -54 832 z "},"Ĭ":{"ha":292,"x_min":-14,"x_max":305,"o":"m 176 1085 l 176 0 l 115 0 l 115 1085 l 176 1085 m 37 1326 q 68 1265 42 1291 q 146 1232 100 1232 q 224 1265 192 1232 q 256 1326 251 1291 l 305 1326 q 259 1230 300 1270 q 146 1183 213 1183 q 33 1230 79 1183 q -14 1326 -11 1274 l 37 1326 z "},"ĭ":{"ha":292,"x_min":-14,"x_max":305,"o":"m 176 666 l 176 0 l 115 0 l 115 666 l 176 666 m 37 907 q 68 846 42 871 q 146 813 100 813 q 224 846 192 813 q 256 907 251 871 l 305 907 q 259 810 300 851 q 146 764 213 764 q 33 810 79 764 q -14 907 -11 855 l 37 907 z "},"Į":{"ha":292,"x_min":45,"x_max":224,"o":"m 115 7 l 115 1085 l 176 1085 l 176 0 l 151 0 q 102 -69 108 -28 q 100 -92 100 -81 q 115 -142 100 -125 q 170 -167 136 -167 q 209 -157 190 -167 l 224 -191 q 149 -207 186 -207 q 69 -174 99 -207 q 45 -109 45 -147 q 47 -89 45 -99 q 115 7 54 -35 z "},"į":{"ha":292,"x_min":49,"x_max":227,"o":"m 146 902 q 189 884 171 902 q 207 842 207 867 q 189 798 207 816 q 146 781 171 781 q 103 798 121 781 q 85 842 85 816 q 103 884 85 867 q 146 902 121 902 m 115 5 l 115 666 l 176 666 l 176 0 l 155 0 q 105 -69 111 -28 q 104 -92 104 -81 q 119 -142 104 -125 q 173 -167 139 -167 q 212 -157 193 -167 l 227 -191 q 152 -207 189 -207 q 73 -174 102 -207 q 49 -109 49 -147 q 50 -89 49 -99 q 115 5 58 -37 z "},"ı":{"ha":292,"x_min":115,"x_max":176,"o":"m 176 666 l 176 0 l 115 0 l 115 666 l 176 666 z "},"Ĳ":{"ha":873,"x_min":115,"x_max":768,"o":"m 176 1085 l 176 0 l 115 0 l 115 1085 l 176 1085 m 768 206 q 713 49 768 103 q 574 -9 656 -9 q 434 48 492 -9 q 376 176 376 106 l 416 191 q 474 81 430 118 q 557 50 511 50 q 574 52 565 50 q 671 92 630 52 q 707 213 707 127 l 707 1085 l 768 1085 l 768 206 z "},"ĳ":{"ha":600,"x_min":85,"x_max":498,"o":"m 176 666 l 176 0 l 115 0 l 115 666 l 176 666 m 146 902 q 189 884 171 902 q 207 842 207 867 q 189 798 207 816 q 146 781 171 781 q 103 798 121 781 q 85 842 85 816 q 103 884 85 867 q 146 902 121 902 m 325 -94 q 407 -1 407 -84 l 407 666 l 468 666 l 468 0 q 325 -155 468 -143 l 325 -94 m 437 902 q 480 884 463 902 q 498 842 498 867 q 480 798 498 816 q 437 781 463 781 q 394 798 412 781 q 376 842 376 816 q 394 884 376 867 q 437 902 412 902 z "},"Ĵ":{"ha":581,"x_min":85,"x_max":623,"o":"m 476 206 q 422 49 476 103 q 282 -9 364 -9 q 142 48 200 -9 q 85 176 85 106 l 125 191 q 182 81 138 118 q 265 50 219 50 q 282 52 273 50 q 379 92 338 52 q 415 213 415 127 l 415 1085 l 476 1085 l 476 206 m 462 1317 l 623 1158 l 553 1158 l 427 1255 l 307 1158 l 236 1158 l 391 1317 l 462 1317 z "},"ĵ":{"ha":292,"x_min":-47,"x_max":340,"o":"m 178 898 l 340 739 l 269 739 l 143 836 l 24 739 l -47 739 l 108 898 l 178 898 m 33 -94 q 115 -1 115 -84 l 115 666 l 176 666 l 176 0 q 33 -155 176 -143 l 33 -94 z "},"Ķ":{"ha":767,"x_min":86,"x_max":777,"o":"m 585 1085 l 303 677 l 777 0 l 703 0 l 264 627 l 148 460 l 148 0 l 86 0 l 86 1085 l 148 1085 l 148 566 l 511 1085 l 585 1085 m 410 -39 q 490 -56 467 -39 q 520 -113 520 -80 l 520 -120 q 473 -189 516 -157 q 393 -210 435 -210 q 344 -203 370 -210 l 357 -164 q 399 -173 378 -173 q 445 -161 422 -173 q 468 -128 464 -147 q 469 -120 469 -124 q 458 -95 469 -106 q 410 -81 444 -82 l 410 -39 z "},"ķ":{"ha":558,"x_min":102,"x_max":524,"o":"m 427 666 l 262 463 l 524 0 l 448 0 l 222 414 l 163 340 l 163 0 l 102 0 l 102 949 l 163 949 l 163 437 l 348 666 l 427 666 m 291 -39 q 370 -56 349 -39 q 401 -113 401 -80 l 401 -120 q 355 -189 397 -157 q 275 -210 317 -210 q 224 -203 251 -210 l 238 -164 q 280 -173 259 -173 q 326 -161 304 -173 q 349 -128 345 -147 q 350 -120 350 -124 q 339 -95 350 -106 q 291 -81 326 -82 l 291 -39 z "},"ĸ":{"ha":558,"x_min":102,"x_max":524,"o":"m 427 666 l 262 463 l 524 0 l 448 0 l 222 414 l 163 340 l 163 0 l 102 0 l 102 666 l 163 666 l 163 437 l 348 666 l 427 666 z "},"Ĺ":{"ha":601,"x_min":86,"x_max":561,"o":"m 86 0 l 86 1085 l 148 1085 l 148 61 l 561 61 l 561 0 l 86 0 m 473 1291 l 307 1164 l 250 1164 l 360 1291 l 473 1291 z "},"ĺ":{"ha":231,"x_min":4,"x_max":227,"o":"m 146 1085 l 146 0 l 85 0 l 85 1085 l 146 1085 m 227 1319 l 61 1192 l 4 1192 l 115 1319 l 227 1319 z "},"Ļ":{"ha":601,"x_min":86,"x_max":561,"o":"m 334 0 l 86 0 l 86 1085 l 148 1085 l 148 61 l 561 61 l 561 0 l 377 0 l 375 -20 l 374 -24 l 375 -24 l 373 -51 q 392 -61 382 -56 q 438 -125 433 -87 q 439 -134 439 -130 q 410 -187 439 -165 q 321 -214 375 -214 q 278 -209 298 -214 l 286 -172 q 317 -176 300 -176 q 367 -161 347 -176 q 384 -130 384 -148 l 384 -125 q 357 -87 380 -103 q 304 -73 333 -73 l 334 0 z "},"ļ":{"ha":337,"x_min":47,"x_max":208,"o":"m 103 0 l 86 0 l 86 1085 l 148 1085 l 148 0 l 146 0 l 144 -20 l 144 -24 l 144 -24 l 142 -51 q 161 -61 152 -56 q 208 -125 202 -87 q 208 -134 208 -130 q 179 -187 208 -165 q 91 -214 144 -214 q 47 -209 68 -214 l 55 -172 q 86 -176 69 -176 q 136 -161 117 -176 q 153 -130 153 -148 l 153 -125 q 126 -87 150 -103 q 74 -73 102 -73 l 103 0 z "},"Ľ":{"ha":601,"x_min":86,"x_max":561,"o":"m 86 0 l 86 1085 l 148 1085 l 148 61 l 561 61 l 561 0 l 86 0 m 452 973 q 425 988 437 976 q 407 1032 407 1006 q 425 1075 407 1057 q 468 1092 443 1092 q 511 1075 493 1092 q 529 1032 529 1057 q 524 1005 529 1017 l 458 871 l 414 871 l 452 973 z "},"ľ":{"ha":337,"x_min":86,"x_max":337,"o":"m 148 1085 l 148 0 l 86 0 l 86 1085 l 148 1085 m 260 973 q 233 988 245 976 q 215 1032 215 1006 q 233 1075 215 1057 q 277 1092 251 1092 q 319 1075 301 1092 q 337 1032 337 1057 q 332 1005 337 1017 l 266 871 l 222 871 l 260 973 z "},"Ŀ":{"ha":601,"x_min":86,"x_max":561,"o":"m 86 0 l 86 1085 l 148 1085 l 148 61 l 561 61 l 561 0 l 86 0 m 479 594 q 515 579 500 594 q 530 543 530 564 q 515 506 530 521 q 479 491 500 491 q 442 506 458 491 q 427 543 427 521 q 442 579 427 564 q 479 594 458 594 z "},"ŀ":{"ha":338,"x_min":76,"x_max":317,"o":"m 138 1085 l 138 0 l 76 0 l 76 1085 l 138 1085 m 267 594 q 302 579 287 594 q 317 543 317 564 q 302 506 317 521 q 267 491 287 491 q 230 506 245 491 q 214 543 214 521 q 230 579 214 564 q 267 594 245 594 z "},"Ł":{"ha":669,"x_min":0,"x_max":630,"o":"m 216 534 l 525 785 l 525 713 l 216 462 l 216 61 l 630 61 l 630 0 l 155 0 l 155 411 l 0 286 l 0 357 l 155 484 l 155 1085 l 216 1085 l 216 534 z "},"ł":{"ha":288,"x_min":0,"x_max":288,"o":"m 113 546 l 113 1085 l 175 1085 l 175 596 l 288 689 l 288 617 l 175 524 l 175 0 l 113 0 l 113 474 l 0 381 l 0 454 l 113 546 z "},"Ń":{"ha":889,"x_min":102,"x_max":787,"o":"m 102 1085 l 169 1085 l 726 120 l 726 1085 l 787 1085 l 787 0 l 726 0 l 163 975 l 163 0 l 102 0 l 102 1085 m 593 1360 l 427 1233 l 370 1233 l 481 1360 l 593 1360 z "},"ń":{"ha":726,"x_min":102,"x_max":625,"o":"m 163 517 l 163 0 l 102 0 l 102 666 l 163 666 l 163 623 q 357 706 246 706 q 549 632 475 706 q 625 446 623 558 l 625 0 l 564 0 l 564 440 q 502 585 564 525 q 357 645 441 645 q 212 586 273 645 q 163 517 178 553 m 512 941 l 346 814 l 289 814 l 399 941 l 512 941 z "},"Ņ":{"ha":889,"x_min":102,"x_max":787,"o":"m 102 1085 l 169 1085 l 726 120 l 726 1085 l 787 1085 l 787 0 l 726 0 l 163 975 l 163 0 l 102 0 l 102 1085 m 422 -39 q 502 -56 480 -39 q 533 -113 533 -80 l 533 -120 q 486 -189 529 -157 q 406 -210 448 -210 q 356 -203 382 -210 l 370 -164 q 412 -173 391 -173 q 458 -161 435 -173 q 481 -128 477 -147 q 481 -120 481 -124 q 471 -95 481 -106 q 422 -81 457 -82 l 422 -39 z "},"ņ":{"ha":726,"x_min":102,"x_max":625,"o":"m 163 517 l 163 0 l 102 0 l 102 666 l 163 666 l 163 623 q 357 706 246 706 q 549 632 475 706 q 625 446 623 558 l 625 0 l 564 0 l 564 440 q 502 585 564 525 q 357 645 441 645 q 212 586 273 645 q 163 517 178 553 m 341 -39 q 420 -56 399 -39 q 452 -113 452 -80 l 452 -120 q 405 -189 448 -157 q 325 -210 367 -210 q 275 -203 301 -210 l 288 -164 q 330 -173 309 -173 q 376 -161 354 -173 q 399 -128 395 -147 q 400 -120 400 -124 q 389 -95 400 -106 q 341 -81 376 -82 l 341 -39 z "},"Ň":{"ha":889,"x_min":102,"x_max":787,"o":"m 102 1085 l 169 1085 l 726 120 l 726 1085 l 787 1085 l 787 0 l 726 0 l 163 975 l 163 0 l 102 0 l 102 1085 m 406 1158 l 251 1317 l 322 1317 l 441 1220 l 568 1317 l 638 1317 l 477 1158 l 406 1158 z "},"ň":{"ha":726,"x_min":102,"x_max":625,"o":"m 163 517 l 163 0 l 102 0 l 102 666 l 163 666 l 163 623 q 357 706 246 706 q 549 632 475 706 q 625 446 623 558 l 625 0 l 564 0 l 564 440 q 502 585 564 525 q 357 645 441 645 q 212 586 273 645 q 163 517 178 553 m 325 739 l 170 898 l 241 898 l 360 801 l 486 898 l 557 898 l 395 739 l 325 739 z "},"ŉ":{"ha":726,"x_min":14,"x_max":625,"o":"m 163 517 l 163 0 l 102 0 l 102 666 l 163 666 l 163 623 q 357 706 246 706 q 549 632 475 706 q 625 446 623 558 l 625 0 l 564 0 l 564 440 q 502 585 564 525 q 357 645 441 645 q 212 586 273 645 q 163 517 178 553 m 60 951 q 33 966 44 954 q 14 1010 14 983 q 32 1052 14 1035 q 76 1069 50 1069 q 118 1052 100 1069 q 136 1010 136 1035 q 132 983 136 995 l 65 848 l 21 848 l 60 951 z "},"Ŋ":{"ha":889,"x_min":102,"x_max":787,"o":"m 726 1 l 163 975 l 163 0 l 102 0 l 102 1085 l 169 1085 l 726 121 l 726 640 l 726 640 l 726 1085 l 787 1085 l 787 0 l 787 0 q 684 -235 780 -188 l 656 -204 q 728 -35 728 -140 q 726 1 728 -18 z "},"ŋ":{"ha":726,"x_min":102,"x_max":625,"o":"m 564 369 l 564 440 q 502 585 564 525 q 357 645 441 645 q 212 586 273 645 q 163 517 178 553 l 163 0 l 102 0 l 102 666 l 163 666 l 163 623 q 357 706 246 706 q 549 632 475 706 q 625 446 623 558 l 625 0 l 624 0 q 522 -235 610 -169 l 494 -208 q 563 -27 550 -169 l 563 369 l 564 369 z "},"Ō":{"ha":1283,"x_min":85,"x_max":1198,"o":"m 642 1101 q 1035 938 872 1101 q 1198 544 1198 774 q 1035 150 1198 313 q 642 -13 872 -13 q 248 150 411 -13 q 85 544 85 313 q 248 938 85 774 q 642 1101 411 1101 m 642 1038 q 292 893 437 1038 q 147 544 147 749 q 292 194 147 339 q 642 49 437 49 q 991 194 846 49 q 1136 544 1136 339 q 991 893 1136 749 q 642 1038 846 1038 m 441 1251 l 842 1251 l 842 1204 l 441 1204 l 441 1251 z "},"ō":{"ha":867,"x_min":61,"x_max":806,"o":"m 433 726 q 697 617 588 726 q 806 353 806 508 q 697 90 806 199 q 433 -19 588 -19 q 170 90 279 -19 q 61 353 61 199 q 170 617 61 508 q 433 726 279 726 m 433 661 q 216 571 306 661 q 125 353 125 481 q 216 136 125 226 q 433 46 306 46 q 651 136 561 46 q 741 353 741 226 q 651 571 741 481 q 433 661 561 661 m 233 832 l 633 832 l 633 785 l 233 785 l 233 832 z "},"Ŏ":{"ha":1283,"x_min":85,"x_max":1198,"o":"m 642 1101 q 1035 938 872 1101 q 1198 544 1198 774 q 1035 150 1198 313 q 642 -13 872 -13 q 248 150 411 -13 q 85 544 85 313 q 248 938 85 774 q 642 1101 411 1101 m 642 1038 q 292 893 437 1038 q 147 544 147 749 q 292 194 147 339 q 642 49 437 49 q 991 194 846 49 q 1136 544 1136 339 q 991 893 1136 749 q 642 1038 846 1038 m 532 1326 q 564 1265 538 1291 q 642 1232 596 1232 q 720 1265 688 1232 q 751 1326 747 1291 l 801 1326 q 755 1230 795 1270 q 642 1183 709 1183 q 529 1230 575 1183 q 482 1326 485 1274 l 532 1326 z "},"ŏ":{"ha":867,"x_min":61,"x_max":806,"o":"m 433 726 q 697 617 588 726 q 806 353 806 508 q 697 90 806 199 q 433 -19 588 -19 q 170 90 279 -19 q 61 353 61 199 q 170 617 61 508 q 433 726 279 726 m 433 661 q 216 571 306 661 q 125 353 125 481 q 216 136 125 226 q 433 46 306 46 q 651 136 561 46 q 741 353 741 226 q 651 571 741 481 q 433 661 561 661 m 324 907 q 355 846 330 871 q 434 813 388 813 q 512 846 479 813 q 543 907 538 871 l 593 907 q 547 810 587 851 q 434 764 500 764 q 321 810 367 764 q 274 907 277 855 l 324 907 z "},"Ő":{"ha":1283,"x_min":85,"x_max":1198,"o":"m 642 1101 q 1035 938 872 1101 q 1198 544 1198 774 q 1035 150 1198 313 q 642 -13 872 -13 q 248 150 411 -13 q 85 544 85 313 q 248 938 85 774 q 642 1101 411 1101 m 642 1038 q 292 893 437 1038 q 147 544 147 749 q 292 194 147 339 q 642 49 437 49 q 991 194 846 49 q 1136 544 1136 339 q 991 893 1136 749 q 642 1038 846 1038 m 675 1333 l 509 1206 l 452 1206 l 563 1333 l 675 1333 m 831 1333 l 665 1206 l 608 1206 l 718 1333 l 831 1333 z "},"ő":{"ha":867,"x_min":61,"x_max":806,"o":"m 433 726 q 697 617 588 726 q 806 353 806 508 q 697 90 806 199 q 433 -19 588 -19 q 170 90 279 -19 q 61 353 61 199 q 170 617 61 508 q 433 726 279 726 m 433 661 q 216 571 306 661 q 125 353 125 481 q 216 136 125 226 q 433 46 306 46 q 651 136 561 46 q 741 353 741 226 q 651 571 741 481 q 433 661 561 661 m 467 914 l 301 787 l 244 787 l 355 914 l 467 914 m 623 914 l 456 787 l 399 787 l 510 914 l 623 914 z "},"Œ":{"ha":1556,"x_min":61,"x_max":1472,"o":"m 902 1024 q 1012 938 960 989 q 1174 573 1164 785 l 1472 573 l 1472 512 l 1174 512 q 1012 151 1163 302 q 898 61 958 97 l 1472 61 l 1472 0 l 793 0 q 618 -13 711 -13 q 224 150 387 -13 q 61 544 61 313 q 224 938 61 774 q 618 1101 387 1101 q 793 1085 711 1101 l 1472 1085 l 1472 1024 l 902 1024 m 1112 573 q 968 894 1102 759 q 854 979 915 946 q 793 1008 825 996 q 618 1038 712 1038 q 268 893 413 1038 q 123 544 123 749 q 268 194 123 339 q 618 49 413 49 q 793 79 712 49 q 854 108 825 92 q 968 194 915 141 q 1112 512 1101 328 q 1112 544 1112 528 q 1112 573 1112 559 z "},"œ":{"ha":1442,"x_min":61,"x_max":1381,"o":"m 216 571 q 171 526 216 571 q 125 353 125 481 q 216 136 125 226 q 433 46 306 46 q 651 136 561 46 q 741 353 741 226 q 651 571 741 481 q 433 661 561 661 q 216 571 306 661 m 764 528 q 794 450 783 491 l 1308 450 q 1235 571 1286 519 q 1017 661 1145 661 q 800 571 890 661 q 764 528 779 551 m 763 178 q 800 136 779 157 q 1017 46 890 46 q 1235 136 1145 46 q 1264 169 1251 152 l 1329 146 q 1281 90 1318 127 q 1017 -19 1172 -19 q 754 90 863 -19 q 726 122 739 106 q 697 90 712 106 q 433 -19 588 -19 q 170 90 279 -19 q 61 353 61 199 q 170 617 61 508 q 433 726 279 726 q 697 617 588 726 q 726 585 712 602 q 754 617 739 602 q 1017 726 863 726 q 1281 617 1172 726 q 1381 388 1377 520 l 804 389 q 806 353 806 371 q 763 178 806 257 z "},"Ŕ":{"ha":739,"x_min":102,"x_max":701,"o":"m 163 1023 l 163 438 l 347 438 q 554 524 468 438 q 640 731 640 610 q 554 938 640 852 q 347 1023 468 1023 l 163 1023 m 366 377 q 347 376 357 376 l 163 376 l 163 0 l 102 0 l 102 1085 l 387 1085 q 597 981 511 1068 q 701 731 701 878 q 597 480 701 584 q 433 386 526 408 l 683 0 l 608 0 l 366 377 m 550 1360 l 384 1233 l 327 1233 l 437 1360 l 550 1360 z "},"ŕ":{"ha":406,"x_min":102,"x_max":386,"o":"m 102 666 l 163 666 l 163 545 q 207 597 182 572 q 372 682 288 677 l 372 615 q 253 551 315 612 q 163 344 166 465 l 163 0 l 102 0 l 102 666 m 386 941 l 220 814 l 163 814 l 273 941 l 386 941 z "},"Ŗ":{"ha":736,"x_min":86,"x_max":686,"o":"m 148 1023 l 148 438 l 332 438 q 538 524 452 438 q 624 731 624 609 q 538 938 624 852 q 332 1023 452 1023 l 148 1023 m 350 376 q 332 376 341 376 l 148 376 l 148 0 l 86 0 l 86 1085 l 371 1085 q 582 981 495 1068 q 686 731 686 877 q 582 480 686 584 q 417 386 510 408 l 667 0 l 592 0 l 350 376 m 313 -39 q 393 -56 371 -39 q 424 -113 424 -80 l 424 -120 q 377 -189 420 -157 q 297 -210 339 -210 q 248 -203 273 -210 l 260 -164 q 302 -173 282 -173 q 349 -161 326 -173 q 372 -128 368 -147 q 372 -120 372 -124 q 361 -95 372 -106 q 313 -81 348 -82 l 313 -39 z "},"ŗ":{"ha":311,"x_min":17,"x_max":311,"o":"m 311 612 q 210 550 262 602 q 121 344 123 464 l 121 0 l 59 0 l 59 666 l 121 666 l 121 545 q 164 597 139 572 q 278 671 220 653 l 311 612 m 83 -39 q 163 -56 140 -39 q 193 -113 193 -80 l 193 -120 q 146 -189 190 -157 q 67 -210 109 -210 q 17 -203 43 -210 l 30 -164 q 72 -173 52 -173 q 118 -161 96 -173 q 141 -128 138 -147 q 142 -120 142 -124 q 132 -95 142 -106 q 83 -81 117 -82 l 83 -39 z "},"Ř":{"ha":739,"x_min":102,"x_max":701,"o":"m 163 1023 l 163 438 l 347 438 q 554 524 468 438 q 640 731 640 610 q 554 938 640 852 q 347 1023 468 1023 l 163 1023 m 366 377 q 347 376 357 376 l 163 376 l 163 0 l 102 0 l 102 1085 l 387 1085 q 597 981 511 1068 q 701 731 701 878 q 597 480 701 584 q 433 386 526 408 l 683 0 l 608 0 l 366 377 m 363 1158 l 208 1317 l 279 1317 l 399 1220 l 525 1317 l 595 1317 l 434 1158 l 363 1158 z "},"ř":{"ha":406,"x_min":43,"x_max":431,"o":"m 102 666 l 163 666 l 163 545 q 207 597 182 572 q 372 682 288 677 l 372 615 q 253 551 315 612 q 163 344 166 465 l 163 0 l 102 0 l 102 666 m 199 739 l 43 898 l 115 898 l 234 801 l 360 898 l 431 898 l 269 739 l 199 739 z "},"Ś":{"ha":707,"x_min":34,"x_max":673,"o":"m 372 601 q 189 707 256 640 q 121 869 121 774 q 189 1030 121 963 q 351 1098 256 1098 q 514 1031 446 1098 q 566 950 551 995 l 511 928 q 471 989 498 962 q 351 1038 421 1038 q 232 989 281 1038 q 182 869 182 940 q 232 750 182 800 q 359 667 278 705 q 578 536 490 625 q 673 309 673 442 q 578 81 673 176 q 351 -13 484 -13 q 124 82 218 -13 q 34 257 49 157 l 92 278 q 167 124 101 190 q 351 47 243 47 q 536 124 460 47 q 613 309 613 201 q 536 494 613 417 q 372 601 469 561 m 502 1360 l 336 1233 l 279 1233 l 389 1360 l 502 1360 z "},"ś":{"ha":544,"x_min":78,"x_max":473,"o":"m 285 342 q 177 414 207 385 q 130 527 130 461 q 177 641 130 593 q 290 688 224 688 q 399 644 356 688 q 441 547 441 602 l 441 544 l 389 523 q 356 600 382 574 q 290 626 331 626 q 220 597 249 626 q 191 527 191 568 q 220 457 191 486 q 292 406 237 440 q 415 321 378 358 q 473 182 473 263 q 415 42 473 100 q 275 -16 357 -16 q 136 42 193 -16 q 78 169 78 100 l 138 184 q 179 85 138 125 q 275 45 219 45 q 372 85 332 45 q 412 182 412 125 q 372 279 412 239 q 285 342 351 300 m 424 941 l 258 814 l 201 814 l 311 941 l 424 941 z "},"Ŝ":{"ha":707,"x_min":34,"x_max":673,"o":"m 372 601 q 189 707 256 640 q 121 869 121 774 q 189 1030 121 963 q 351 1098 256 1098 q 514 1031 446 1098 q 566 950 551 995 l 511 928 q 471 989 498 962 q 351 1038 421 1038 q 232 989 281 1038 q 182 869 182 940 q 232 750 182 800 q 359 667 278 705 q 578 536 490 625 q 673 309 673 442 q 578 81 673 176 q 351 -13 484 -13 q 124 82 218 -13 q 34 257 49 157 l 92 278 q 167 124 101 190 q 351 47 243 47 q 536 124 460 47 q 613 309 613 201 q 536 494 613 417 q 372 601 469 561 m 386 1317 l 547 1158 l 477 1158 l 351 1255 l 231 1158 l 160 1158 l 315 1317 l 386 1317 z "},"ŝ":{"ha":544,"x_min":78,"x_max":473,"o":"m 285 342 q 177 414 207 385 q 130 527 130 461 q 177 641 130 593 q 290 688 224 688 q 399 644 356 688 q 441 547 441 602 l 441 544 l 389 523 q 356 600 382 574 q 290 626 331 626 q 220 597 249 626 q 191 527 191 568 q 220 457 191 486 q 292 406 237 440 q 415 321 378 358 q 473 182 473 263 q 415 42 473 100 q 275 -16 357 -16 q 136 42 193 -16 q 78 169 78 100 l 138 184 q 179 85 138 125 q 275 45 219 45 q 372 85 332 45 q 412 182 412 125 q 372 279 412 239 q 285 342 351 300 m 308 898 l 469 739 l 399 739 l 273 836 l 153 739 l 82 739 l 237 898 l 308 898 z "},"Ş":{"ha":707,"x_min":34,"x_max":673,"o":"m 324 -12 q 124 82 209 -3 q 34 257 49 157 l 92 278 q 167 124 101 190 q 351 47 243 47 q 536 124 460 47 q 613 309 613 201 q 536 494 613 417 q 372 601 469 561 q 189 707 256 640 q 121 869 121 774 q 189 1030 121 963 q 351 1098 256 1098 q 514 1031 446 1098 q 566 950 551 995 l 511 928 q 471 989 498 962 q 351 1038 421 1038 q 232 989 281 1038 q 182 869 182 940 q 232 750 182 800 q 359 667 278 705 q 578 536 490 625 q 673 309 673 442 q 578 81 673 176 q 371 -12 491 -6 l 370 -20 l 370 -24 l 370 -24 l 368 -51 q 387 -61 378 -56 q 433 -125 428 -87 q 434 -134 434 -130 q 405 -187 434 -165 q 317 -214 370 -214 q 273 -209 294 -214 l 281 -172 q 312 -176 295 -176 q 362 -161 342 -176 q 379 -130 379 -148 l 379 -125 q 352 -87 376 -103 q 300 -73 328 -73 l 324 -12 z "},"ş":{"ha":544,"x_min":78,"x_max":473,"o":"m 245 -14 q 136 42 182 -5 q 78 169 78 100 l 138 184 q 179 85 138 125 q 275 45 219 45 q 372 85 332 45 q 412 182 412 125 q 372 279 412 239 q 285 342 351 300 q 177 414 207 385 q 130 527 130 461 q 177 641 130 593 q 290 688 224 688 q 399 644 356 688 q 441 547 441 602 l 441 544 l 389 523 q 356 600 382 574 q 290 626 331 626 q 220 597 249 626 q 191 527 191 568 q 220 457 191 486 q 292 406 237 440 q 415 321 378 358 q 473 182 473 263 q 415 42 473 100 q 293 -16 363 -10 l 292 -20 l 292 -24 l 292 -24 l 290 -51 q 309 -61 300 -56 q 355 -125 350 -87 q 356 -134 356 -130 q 327 -187 356 -165 q 239 -214 292 -214 q 195 -209 216 -214 l 203 -172 q 234 -176 217 -176 q 284 -161 264 -176 q 301 -130 301 -148 l 301 -125 q 274 -87 298 -103 q 222 -73 250 -73 l 245 -14 z "},"Š":{"ha":707,"x_min":34,"x_max":673,"o":"m 372 601 q 189 707 256 640 q 121 869 121 774 q 189 1030 121 963 q 351 1098 256 1098 q 514 1031 446 1098 q 566 950 551 995 l 511 928 q 471 989 498 962 q 351 1038 421 1038 q 232 989 281 1038 q 182 869 182 940 q 232 750 182 800 q 359 667 278 705 q 578 536 490 625 q 673 309 673 442 q 578 81 673 176 q 351 -13 484 -13 q 124 82 218 -13 q 34 257 49 157 l 92 278 q 167 124 101 190 q 351 47 243 47 q 536 124 460 47 q 613 309 613 201 q 536 494 613 417 q 372 601 469 561 m 315 1158 l 160 1317 l 231 1317 l 351 1220 l 477 1317 l 547 1317 l 386 1158 l 315 1158 z "},"š":{"ha":544,"x_min":78,"x_max":473,"o":"m 285 342 q 177 414 207 385 q 130 527 130 461 q 177 641 130 593 q 290 688 224 688 q 399 644 356 688 q 441 547 441 602 l 441 544 l 389 523 q 356 600 382 574 q 290 626 331 626 q 220 597 249 626 q 191 527 191 568 q 220 457 191 486 q 292 406 237 440 q 415 321 378 358 q 473 182 473 263 q 415 42 473 100 q 275 -16 357 -16 q 136 42 193 -16 q 78 169 78 100 l 138 184 q 179 85 138 125 q 275 45 219 45 q 372 85 332 45 q 412 182 412 125 q 372 279 412 239 q 285 342 351 300 m 237 739 l 82 898 l 153 898 l 273 801 l 399 898 l 469 898 l 308 739 l 237 739 z "},"Ţ":{"ha":678,"x_min":34,"x_max":644,"o":"m 315 0 l 309 0 l 309 1024 l 34 1024 l 34 1085 l 644 1085 l 644 1024 l 370 1024 l 370 0 l 358 0 l 356 -20 l 355 -24 l 356 -24 l 354 -51 q 373 -61 363 -56 q 419 -125 414 -87 q 420 -134 420 -130 q 391 -187 420 -165 q 302 -214 356 -214 q 259 -209 279 -214 l 267 -172 q 298 -176 281 -176 q 348 -161 328 -176 q 365 -130 365 -148 l 365 -125 q 338 -87 361 -103 q 286 -73 314 -73 l 315 0 z "},"ţ":{"ha":454,"x_min":61,"x_max":393,"o":"m 203 0 l 197 0 l 197 605 l 61 605 l 61 666 l 197 666 l 197 949 l 258 949 l 258 666 l 393 666 l 393 605 l 258 605 l 258 0 l 246 0 l 244 -20 l 243 -24 l 244 -24 l 242 -51 q 261 -61 252 -56 q 307 -125 302 -87 q 308 -134 308 -130 q 279 -187 308 -165 q 191 -214 244 -214 q 147 -209 168 -214 l 155 -172 q 186 -176 169 -176 q 236 -161 216 -176 q 253 -130 253 -148 l 253 -125 q 226 -87 250 -103 q 174 -73 202 -73 l 203 0 z "},"Ť":{"ha":678,"x_min":34,"x_max":644,"o":"m 370 1024 l 370 0 l 309 0 l 309 1024 l 34 1024 l 34 1085 l 644 1085 l 644 1024 l 370 1024 m 301 1158 l 146 1317 l 217 1317 l 336 1220 l 463 1317 l 533 1317 l 372 1158 l 301 1158 z "},"ť":{"ha":433,"x_min":24,"x_max":433,"o":"m 160 666 l 160 949 l 221 949 l 221 666 l 357 666 l 357 604 l 221 604 l 221 0 l 160 0 l 160 604 l 24 604 l 24 666 l 160 666 m 356 951 q 329 966 340 954 q 311 1010 311 983 q 329 1052 311 1035 q 372 1069 347 1069 q 415 1052 397 1069 q 433 1010 433 1035 q 428 983 433 995 l 361 848 l 317 848 l 356 951 z "},"Ŧ":{"ha":678,"x_min":34,"x_max":644,"o":"m 309 573 l 309 1024 l 34 1024 l 34 1085 l 644 1085 l 644 1024 l 370 1024 l 370 573 l 543 573 l 543 512 l 370 512 l 370 0 l 309 0 l 309 512 l 136 512 l 136 573 l 309 573 z "},"ŧ":{"ha":454,"x_min":61,"x_max":393,"o":"m 61 410 l 197 410 l 197 605 l 61 605 l 61 666 l 197 666 l 197 949 l 258 949 l 258 666 l 393 666 l 393 605 l 258 605 l 258 410 l 393 410 l 393 349 l 258 349 l 258 0 l 197 0 l 197 349 l 61 349 l 61 410 z "},"Ũ":{"ha":912,"x_min":102,"x_max":810,"o":"m 749 1085 l 810 1085 l 810 305 q 707 94 793 181 q 456 -9 603 -9 q 205 94 309 -9 q 102 345 102 198 l 102 1085 l 163 1085 l 163 345 q 249 138 163 224 q 456 52 335 52 q 663 138 578 52 q 749 345 749 224 l 749 1085 m 452 1270 q 536 1230 503 1230 l 540 1230 q 587 1286 574 1232 l 634 1286 q 567 1183 620 1199 q 538 1179 553 1179 q 460 1211 500 1179 q 376 1251 410 1251 l 373 1251 q 326 1194 339 1249 l 278 1194 q 346 1297 293 1281 q 374 1301 360 1301 q 452 1270 413 1301 z "},"ũ":{"ha":745,"x_min":102,"x_max":644,"o":"m 376 -9 q 178 64 252 -9 q 102 251 104 138 l 102 666 l 163 666 l 163 256 q 224 112 163 172 q 376 52 286 52 q 521 112 460 52 q 583 256 583 172 l 583 666 l 644 666 l 644 251 q 568 64 642 138 q 376 -9 494 -9 m 369 851 q 453 810 420 810 l 456 810 q 504 867 490 812 l 551 867 q 484 764 536 780 q 455 760 469 760 q 377 791 416 760 q 293 831 326 831 l 290 831 q 242 774 256 829 l 195 774 q 262 878 210 862 q 291 882 277 882 q 369 851 330 882 z "},"Ū":{"ha":912,"x_min":102,"x_max":810,"o":"m 749 1085 l 810 1085 l 810 305 q 707 94 793 181 q 456 -9 603 -9 q 205 94 309 -9 q 102 345 102 198 l 102 1085 l 163 1085 l 163 345 q 249 138 163 224 q 456 52 335 52 q 663 138 578 52 q 749 345 749 224 l 749 1085 m 256 1251 l 656 1251 l 656 1204 l 256 1204 l 256 1251 z "},"ū":{"ha":745,"x_min":102,"x_max":644,"o":"m 376 -9 q 178 64 252 -9 q 102 251 104 138 l 102 666 l 163 666 l 163 256 q 224 112 163 172 q 376 52 286 52 q 521 112 460 52 q 583 256 583 172 l 583 666 l 644 666 l 644 251 q 568 64 642 138 q 376 -9 494 -9 m 173 832 l 573 832 l 573 785 l 173 785 l 173 832 z "},"Ŭ":{"ha":912,"x_min":102,"x_max":810,"o":"m 749 1085 l 810 1085 l 810 305 q 707 94 793 181 q 456 -9 603 -9 q 205 94 309 -9 q 102 345 102 198 l 102 1085 l 163 1085 l 163 345 q 249 138 163 224 q 456 52 335 52 q 663 138 578 52 q 749 345 749 224 l 749 1085 m 347 1326 q 378 1265 353 1291 q 457 1232 411 1232 q 535 1265 503 1232 q 566 1326 562 1291 l 616 1326 q 570 1230 610 1270 q 457 1183 524 1183 q 344 1230 390 1183 q 297 1326 300 1274 l 347 1326 z "},"ŭ":{"ha":745,"x_min":102,"x_max":644,"o":"m 376 -9 q 178 64 252 -9 q 102 251 104 138 l 102 666 l 163 666 l 163 256 q 224 112 163 172 q 376 52 286 52 q 521 112 460 52 q 583 256 583 172 l 583 666 l 644 666 l 644 251 q 568 64 642 138 q 376 -9 494 -9 m 264 907 q 295 846 269 871 q 374 813 328 813 q 452 846 419 813 q 483 907 478 871 l 532 907 q 486 810 527 851 q 374 764 440 764 q 260 810 307 764 q 214 907 216 855 l 264 907 z "},"Ů":{"ha":912,"x_min":102,"x_max":810,"o":"m 749 1085 l 810 1085 l 810 305 q 707 94 793 181 q 456 -9 603 -9 q 205 94 309 -9 q 102 345 102 198 l 102 1085 l 163 1085 l 163 345 q 249 138 163 224 q 456 52 335 52 q 663 138 578 52 q 749 345 749 224 l 749 1085 m 456 1343 q 515 1318 491 1343 q 540 1259 540 1294 q 515 1201 540 1225 q 456 1177 491 1177 q 397 1201 422 1177 q 373 1259 373 1225 q 397 1318 373 1294 q 456 1343 422 1343 m 456 1299 q 429 1287 440 1299 q 417 1259 417 1276 q 429 1232 417 1244 q 456 1221 440 1221 q 484 1232 472 1221 q 495 1259 495 1244 q 484 1287 495 1276 q 456 1299 472 1299 z "},"ů":{"ha":745,"x_min":102,"x_max":644,"o":"m 376 -9 q 178 64 252 -9 q 102 251 104 138 l 102 666 l 163 666 l 163 256 q 224 112 163 172 q 376 52 286 52 q 521 112 460 52 q 583 256 583 172 l 583 666 l 644 666 l 644 251 q 568 64 642 138 q 376 -9 494 -9 m 373 924 q 432 899 408 924 q 456 840 456 875 q 432 782 456 806 q 373 758 408 758 q 314 782 338 758 q 290 840 290 806 q 314 899 290 875 q 373 924 338 924 m 373 880 q 345 868 357 880 q 334 840 334 857 q 345 813 334 825 q 373 802 357 802 q 400 813 389 802 q 412 840 412 825 q 400 868 412 857 q 373 880 389 880 z "},"Ű":{"ha":912,"x_min":102,"x_max":810,"o":"m 749 1085 l 810 1085 l 810 305 q 707 94 793 181 q 456 -9 603 -9 q 205 94 309 -9 q 102 345 102 198 l 102 1085 l 163 1085 l 163 345 q 249 138 163 224 q 456 52 335 52 q 663 138 578 52 q 749 345 749 224 l 749 1085 m 490 1333 l 324 1206 l 267 1206 l 378 1333 l 490 1333 m 646 1333 l 479 1206 l 422 1206 l 533 1333 l 646 1333 z "},"ű":{"ha":745,"x_min":102,"x_max":644,"o":"m 376 -9 q 178 64 252 -9 q 102 251 104 138 l 102 666 l 163 666 l 163 256 q 224 112 163 172 q 376 52 286 52 q 521 112 460 52 q 583 256 583 172 l 583 666 l 644 666 l 644 251 q 568 64 642 138 q 376 -9 494 -9 m 407 914 l 241 787 l 184 787 l 294 914 l 407 914 m 562 914 l 396 787 l 339 787 l 450 914 l 562 914 z "},"Ų":{"ha":912,"x_min":102,"x_max":810,"o":"m 579 12 q 456 -9 522 -9 q 205 94 309 -9 q 102 345 102 198 l 102 1085 l 163 1085 l 163 345 q 249 138 163 224 q 456 52 335 52 q 663 138 578 52 q 749 345 749 224 l 749 1085 l 810 1085 l 810 305 q 707 94 793 181 q 648 47 679 66 q 581 -70 588 -26 q 580 -93 580 -82 q 595 -143 580 -125 q 649 -168 615 -168 q 688 -158 669 -168 l 703 -192 q 628 -208 665 -208 q 549 -174 578 -208 q 525 -109 525 -148 q 526 -90 525 -100 q 579 12 532 -45 z "},"ų":{"ha":745,"x_min":102,"x_max":644,"o":"m 497 15 q 376 -9 444 -9 q 178 64 252 -9 q 102 251 104 138 l 102 666 l 163 666 l 163 256 q 224 112 163 172 q 376 52 286 52 q 521 112 460 52 q 583 256 583 172 l 583 666 l 644 666 l 644 251 q 568 64 642 138 q 558 56 563 60 q 508 -69 515 -26 q 507 -92 507 -81 q 522 -142 507 -125 q 576 -167 542 -167 q 615 -157 596 -167 l 630 -191 q 555 -207 592 -207 q 475 -174 505 -207 q 452 -109 452 -147 q 453 -89 452 -99 q 497 15 459 -46 z "},"Ŵ":{"ha":1134,"x_min":85,"x_max":1049,"o":"m 536 163 l 536 1085 l 597 1085 l 597 163 q 636 111 613 134 q 781 52 697 52 q 927 112 865 52 q 988 256 988 172 l 988 1085 l 1049 1085 l 1049 251 q 971 69 1047 145 q 781 -9 892 -9 q 592 68 671 -9 q 567 96 578 82 q 542 68 556 82 q 353 -9 463 -9 q 163 69 241 -9 q 85 251 87 145 l 85 1085 l 146 1085 l 146 256 q 207 112 146 172 q 353 52 269 52 q 498 111 437 52 q 536 163 521 134 m 600 1317 l 761 1158 l 690 1158 l 564 1255 l 445 1158 l 374 1158 l 529 1317 l 600 1317 z "},"ŵ":{"ha":932,"x_min":102,"x_max":831,"o":"m 435 176 l 435 666 l 496 666 l 496 191 q 537 92 496 132 q 633 52 577 52 q 730 92 690 52 q 770 182 768 129 l 770 182 l 770 666 l 831 666 l 831 182 q 773 49 828 104 q 633 -9 715 -9 q 494 49 551 -9 q 467 81 478 64 q 439 49 455 64 q 299 -9 381 -9 q 159 49 217 -9 q 102 182 104 104 l 102 666 l 163 666 l 163 182 l 162 182 q 203 92 165 129 q 299 52 243 52 q 396 92 355 52 q 435 176 431 126 m 498 898 l 660 739 l 589 739 l 463 836 l 344 739 l 273 739 l 428 898 l 498 898 z "},"Ŷ":{"ha":876,"x_min":34,"x_max":842,"o":"m 407 439 l 34 1085 l 104 1085 l 437 507 l 772 1085 l 842 1085 l 468 439 l 468 0 l 407 0 l 407 439 m 470 1317 l 631 1158 l 561 1158 l 435 1255 l 315 1158 l 244 1158 l 399 1317 l 470 1317 z "},"ŷ":{"ha":682,"x_min":51,"x_max":631,"o":"m 341 60 l 191 -254 l 131 -254 l 311 123 l 51 666 l 120 666 l 341 189 l 562 666 l 631 666 l 341 59 l 341 60 m 373 898 l 534 739 l 464 739 l 338 836 l 218 739 l 147 739 l 302 898 l 373 898 z "},"Ÿ":{"ha":876,"x_min":34,"x_max":842,"o":"m 407 439 l 34 1085 l 104 1085 l 437 507 l 772 1085 l 842 1085 l 468 439 l 468 0 l 407 0 l 407 439 m 336 1321 q 379 1303 361 1321 q 397 1261 397 1286 q 379 1217 397 1235 q 336 1200 361 1200 q 293 1217 311 1200 q 275 1261 275 1235 q 293 1303 275 1286 q 336 1321 311 1321 m 540 1321 q 583 1303 565 1321 q 601 1261 601 1286 q 583 1217 601 1235 q 540 1200 565 1200 q 497 1217 515 1200 q 479 1261 479 1235 q 497 1303 479 1286 q 540 1321 515 1321 z "},"Ź":{"ha":900,"x_min":102,"x_max":798,"o":"m 693 1024 l 102 1024 l 102 1085 l 798 1085 l 206 61 l 798 61 l 798 0 l 102 0 l 693 1024 m 599 1360 l 433 1233 l 376 1233 l 486 1360 l 599 1360 z "},"ź":{"ha":678,"x_min":102,"x_max":576,"o":"m 446 605 l 102 605 l 102 666 l 551 666 l 206 61 l 576 61 l 576 0 l 102 0 l 446 605 m 488 941 l 321 814 l 264 814 l 375 941 l 488 941 z "},"Ż":{"ha":900,"x_min":102,"x_max":798,"o":"m 693 1024 l 102 1024 l 102 1085 l 798 1085 l 206 61 l 798 61 l 798 0 l 102 0 l 693 1024 m 450 1303 q 487 1288 471 1303 q 502 1251 502 1273 q 487 1215 502 1230 q 450 1200 471 1200 q 413 1215 429 1200 q 398 1251 398 1230 q 413 1288 398 1273 q 450 1303 429 1303 z "},"ż":{"ha":678,"x_min":102,"x_max":576,"o":"m 446 605 l 102 605 l 102 666 l 551 666 l 206 61 l 576 61 l 576 0 l 102 0 l 446 605 m 340 884 q 376 869 361 884 q 391 832 391 854 q 376 795 391 810 q 340 781 361 781 q 303 795 318 781 q 288 832 288 810 q 303 869 288 854 q 340 884 318 884 z "},"Ž":{"ha":900,"x_min":102,"x_max":798,"o":"m 693 1024 l 102 1024 l 102 1085 l 798 1085 l 206 61 l 798 61 l 798 0 l 102 0 l 693 1024 m 412 1158 l 256 1317 l 328 1317 l 447 1220 l 573 1317 l 644 1317 l 482 1158 l 412 1158 z "},"ž":{"ha":678,"x_min":102,"x_max":576,"o":"m 446 605 l 102 605 l 102 666 l 551 666 l 206 61 l 576 61 l 576 0 l 102 0 l 446 605 m 301 739 l 146 898 l 217 898 l 336 801 l 463 898 l 533 898 l 372 739 l 301 739 z "},"ſ":{"ha":294,"x_min":84,"x_max":351,"o":"m 146 0 l 84 0 l 84 846 q 142 976 89 922 q 270 1027 197 1027 q 351 1013 308 1027 l 331 958 q 276 970 302 970 q 185 932 229 970 q 146 842 148 895 l 146 0 z "},"ƒ":{"ha":303,"x_min":-42,"x_max":360,"o":"m 155 0 l 155 0 l 155 -54 q -42 -246 146 -246 l -42 -190 q 94 -56 86 -190 l 94 604 l 26 604 l 26 666 l 94 666 l 94 846 q 151 976 98 922 q 279 1027 208 1027 q 360 1013 318 1027 l 341 958 q 286 970 313 970 q 195 932 238 970 q 155 842 157 895 l 155 666 l 291 666 l 291 604 l 155 604 l 155 0 z "},"Ǻ":{"ha":857,"x_min":-1,"x_max":854,"o":"m 602 484 l 429 939 l 256 484 l 602 484 m 427 1146 q 399 1135 410 1146 q 388 1106 388 1123 q 399 1080 388 1091 q 427 1068 410 1068 q 454 1080 443 1068 q 466 1106 466 1091 q 454 1135 466 1123 q 427 1146 443 1146 m 409 1189 l 482 1291 l 595 1291 l 462 1182 q 487 1166 475 1176 q 511 1106 511 1141 q 487 1049 511 1073 q 460 1031 474 1036 l 854 0 l 789 0 l 624 423 l 233 423 l 64 0 l -1 0 l 397 1029 q 368 1049 381 1036 q 344 1106 344 1073 q 368 1166 344 1141 q 409 1189 386 1183 z "},"ǻ":{"ha":861,"x_min":57,"x_max":793,"o":"m 732 293 l 732 368 q 647 525 715 457 q 429 615 557 615 q 212 532 302 615 q 121 330 121 450 q 212 128 121 210 q 429 46 302 46 q 647 136 557 46 q 732 293 715 204 m 425 796 q 397 785 408 796 q 385 756 385 773 q 397 730 385 741 q 425 718 408 718 q 452 730 441 718 q 464 756 464 741 q 452 785 464 773 q 425 796 441 796 m 458 833 q 484 816 472 827 q 508 756 508 791 q 484 699 508 723 q 454 679 471 685 q 693 571 593 671 q 732 526 714 549 l 732 620 l 793 620 l 793 0 l 732 0 l 732 136 q 693 90 714 112 q 429 -19 584 -19 q 166 82 275 -19 q 57 330 57 184 q 161 573 57 477 q 399 679 264 668 q 366 699 380 684 q 342 756 342 723 q 366 816 342 791 q 404 837 382 831 l 507 953 l 621 953 l 458 833 z "},"Ǽ":{"ha":1137,"x_min":27,"x_max":1052,"o":"m 1052 1085 l 1052 1024 l 570 1024 l 570 573 l 1052 573 l 1052 512 l 570 512 l 570 61 l 1052 61 l 1052 0 l 509 0 l 509 416 l 291 416 l 113 0 l 27 0 l 509 1083 l 509 1085 l 1052 1085 m 509 931 l 313 477 l 509 477 l 509 931 m 688 1360 l 522 1233 l 465 1233 l 576 1360 l 688 1360 z "},"ǽ":{"ha":1472,"x_min":61,"x_max":1411,"o":"m 704 501 q 651 571 684 538 q 433 661 561 661 q 216 571 306 661 q 125 353 125 481 q 216 136 125 226 q 433 46 306 46 q 651 136 561 46 q 704 205 684 169 q 736 293 727 246 l 736 414 q 704 501 727 460 m 1338 450 q 1265 571 1316 519 q 1047 661 1175 661 q 829 571 920 661 q 797 534 811 553 l 797 450 l 1338 450 m 797 174 q 829 136 811 154 q 1047 46 920 46 q 1265 136 1175 46 q 1294 169 1280 152 l 1359 146 q 1311 90 1348 127 q 1047 -19 1202 -19 q 797 78 902 -19 l 797 0 l 736 0 l 736 136 q 697 90 718 112 q 433 -19 588 -19 q 170 90 279 -19 q 61 353 61 199 q 170 617 61 508 q 433 726 279 726 q 697 617 588 726 q 736 572 718 595 l 736 666 l 797 666 l 797 629 q 1047 726 902 726 q 1311 617 1202 726 q 1411 388 1407 520 l 797 389 l 797 174 m 885 941 l 719 814 l 662 814 l 772 941 l 885 941 z "},"Ǿ":{"ha":1283,"x_min":85,"x_max":1198,"o":"m 823 1006 q 642 1038 739 1038 q 292 893 437 1038 q 147 544 147 749 q 292 194 147 339 q 405 108 345 142 l 823 1006 m 460 82 q 642 49 544 49 q 991 194 846 49 q 1136 544 1136 339 q 991 894 1136 749 q 878 979 939 946 l 460 82 m 905 1036 q 1036 938 975 998 q 1198 544 1198 774 q 1035 150 1198 313 q 642 -13 872 -13 q 434 26 530 -13 l 376 -99 l 320 -73 l 378 52 q 248 151 309 90 q 85 544 85 313 q 248 938 85 774 q 642 1101 411 1101 q 849 1062 753 1101 l 907 1187 l 963 1161 l 905 1036 m 790 1360 l 624 1233 l 567 1233 l 677 1360 l 790 1360 z "},"ǿ":{"ha":867,"x_min":61,"x_max":806,"o":"m 561 635 q 433 662 503 662 q 216 572 306 662 q 125 354 125 481 q 216 137 125 227 q 254 104 234 118 l 561 635 m 613 604 l 306 73 q 433 47 364 47 q 651 137 561 47 q 741 354 741 227 q 651 572 741 481 q 613 604 633 590 m 222 47 q 170 91 195 66 q 61 354 61 200 q 170 618 61 509 q 433 727 279 727 q 594 692 521 727 l 677 836 l 730 808 l 646 661 q 697 618 673 642 q 806 354 806 509 q 697 91 806 200 q 433 -18 588 -18 q 273 17 346 -18 l 190 -127 l 136 -102 l 222 47 m 582 941 l 416 814 l 359 814 l 469 941 l 582 941 z "},"ˆ":{"ha":550,"x_min":82,"x_max":469,"o":"m 308 898 l 469 739 l 399 739 l 273 836 l 153 739 l 82 739 l 237 898 l 308 898 z "},"ˇ":{"ha":550,"x_min":82,"x_max":469,"o":"m 237 739 l 82 898 l 153 898 l 273 801 l 399 898 l 469 898 l 308 739 l 237 739 z "},"ˉ":{"ha":604,"x_min":102,"x_max":502,"o":"m 102 832 l 502 832 l 502 785 l 102 785 l 102 832 z "},"˘":{"ha":597,"x_min":139,"x_max":458,"o":"m 189 907 q 220 846 195 871 q 299 813 253 813 q 377 846 345 813 q 408 907 404 871 l 458 907 q 412 810 452 851 q 299 764 366 764 q 186 810 232 764 q 139 907 142 855 l 189 907 z "},"˙":{"ha":273,"x_min":85,"x_max":189,"o":"m 137 884 q 173 869 158 884 q 189 832 189 854 q 173 795 189 810 q 137 781 158 781 q 100 795 115 781 q 85 832 85 810 q 100 869 85 854 q 137 884 115 884 z "},"˚":{"ha":517,"x_min":176,"x_max":342,"o":"m 259 924 q 318 899 294 924 q 342 840 342 875 q 318 782 342 806 q 259 758 294 758 q 200 782 224 758 q 176 840 176 806 q 200 899 176 875 q 259 924 224 924 m 259 880 q 231 868 243 880 q 220 840 220 857 q 231 813 220 825 q 259 802 243 802 q 286 813 275 802 q 298 840 298 825 q 286 868 298 857 q 259 880 275 880 z "},"˛":{"ha":192,"x_min":7,"x_max":185,"o":"m 134 12 q 63 -69 71 -20 q 62 -92 62 -81 q 77 -142 62 -125 q 131 -167 97 -167 q 170 -157 151 -167 l 185 -191 q 110 -207 147 -207 q 31 -174 60 -207 q 7 -109 7 -147 q 8 -89 7 -99 q 120 33 18 -18 l 134 12 z "},"˜":{"ha":559,"x_min":102,"x_max":458,"o":"m 276 851 q 360 810 327 810 l 363 810 q 411 867 397 812 l 458 867 q 391 764 444 780 q 362 760 376 760 q 284 791 323 760 q 200 831 233 831 l 197 831 q 149 774 163 829 l 102 774 q 170 878 117 862 q 198 882 184 882 q 276 851 237 882 z "},"˝":{"ha":582,"x_min":102,"x_max":480,"o":"m 325 914 l 159 787 l 102 787 l 212 914 l 325 914 m 480 914 l 314 787 l 257 787 l 368 914 l 480 914 z "},"΄":{"ha":296,"x_min":58,"x_max":281,"o":"m 281 1085 l 115 958 l 58 958 l 168 1085 l 281 1085 z "},"΅":{"ha":545,"x_min":84,"x_max":461,"o":"m 392 1085 l 256 958 l 199 958 l 279 1085 l 392 1085 m 418 1042 q 448 1029 435 1042 q 461 1000 461 1017 q 448 970 461 982 q 418 958 435 958 q 388 970 401 958 q 376 1000 376 982 q 388 1029 376 1017 q 418 1042 401 1042 m 127 1042 q 157 1029 144 1042 q 170 1000 170 1017 q 157 970 170 982 q 127 958 144 958 q 97 970 109 958 q 84 1000 84 982 q 97 1029 84 1017 q 127 1042 109 1042 z "},"Ά":{"ha":876,"x_min":92,"x_max":899,"o":"m 338 1085 l 172 958 l 115 958 l 226 1085 l 338 1085 z "},"·":{"ha":188,"x_min":42,"x_max":146,"o":"m 94 769 q 130 754 115 769 q 146 718 146 739 q 130 681 146 696 q 94 666 115 666 q 57 681 73 666 q 42 718 42 696 q 57 754 42 739 q 94 769 73 769 z "},"Έ":{"ha":908,"x_min":58,"x_max":1037,"o":"m 281 1085 l 115 958 l 58 958 l 168 1085 l 281 1085 z "},"Ή":{"ha":959,"x_min":58,"x_max":1071,"o":"m 281 1085 l 115 958 l 58 958 l 168 1085 l 281 1085 z "},"Ί":{"ha":547,"x_min":58,"x_max":454,"o":"m 281 1085 l 115 958 l 58 958 l 168 1085 l 281 1085 m 454 1085 l 454 0 l 393 0 l 393 1085 l 454 1085 z "},"Ό":{"ha":1479,"x_min":58,"x_max":1368,"o":"m 281 1085 l 115 958 l 58 958 l 168 1085 l 281 1085 z "},"Ύ":{"ha":1122,"x_min":58,"x_max":1234,"o":"m 281 1085 l 115 958 l 58 958 l 168 1085 l 281 1085 z "},"Ώ":{"ha":1300,"x_min":58,"x_max":1189,"o":"m 281 1085 l 115 958 l 58 958 l 168 1085 l 281 1085 z "},"ΐ":{"ha":283,"x_min":-47,"x_max":330,"o":"m 172 666 l 172 0 l 111 0 l 111 666 l 172 666 m 261 934 l 125 807 l 68 807 l 148 934 l 261 934 m 288 890 q 317 878 304 890 q 330 849 330 866 q 317 819 330 831 q 288 806 304 806 q 257 819 270 806 q 245 849 245 831 q 257 878 245 866 q 288 890 270 890 m -4 890 q 26 878 13 890 q 39 849 39 866 q 26 819 39 831 q -4 806 13 806 q -34 819 -22 806 q -47 849 -47 831 q -34 878 -47 866 q -4 890 -22 890 z "},"Α":{"ha":876,"x_min":34,"x_max":842,"o":"m 604 477 l 438 932 l 273 477 l 604 477 m 626 416 l 250 416 l 99 0 l 34 0 l 438 1110 l 842 0 l 777 0 l 626 416 z "},"Β":{"ha":723,"x_min":102,"x_max":662,"o":"m 294 1085 q 437 1026 378 1085 q 496 884 496 967 q 410 727 496 800 q 553 637 486 711 q 662 374 662 528 q 553 107 662 220 q 312 1 452 3 l 312 0 l 102 0 l 102 1085 l 294 1085 m 163 682 l 163 61 l 312 61 l 312 60 q 507 153 425 68 q 597 374 597 246 q 507 591 597 501 q 290 682 417 682 l 163 682 m 163 1024 l 163 747 l 310 747 q 397 785 361 751 q 438 884 438 823 q 397 984 438 945 q 294 1024 355 1024 l 163 1024 z "},"Γ":{"ha":578,"x_min":86,"x_max":561,"o":"m 561 1085 l 561 1023 l 148 1023 l 148 0 l 86 0 l 86 1085 l 561 1085 z "},"Δ":{"ha":846,"x_min":-23,"x_max":846,"o":"m 23 1 l -23 1 l 372 1085 l 446 1085 l 846 0 l 23 0 l 23 1 m 759 61 l 409 1008 l 64 61 l 759 61 z "},"Ε":{"ha":729,"x_min":102,"x_max":644,"o":"m 644 1085 l 644 1024 l 163 1024 l 163 573 l 644 573 l 644 512 l 163 512 l 163 61 l 644 61 l 644 0 l 102 0 l 102 1085 l 644 1085 z "},"Ζ":{"ha":900,"x_min":102,"x_max":798,"o":"m 693 1024 l 102 1024 l 102 1085 l 798 1085 l 206 61 l 798 61 l 798 0 l 102 0 l 693 1024 z "},"Η":{"ha":780,"x_min":102,"x_max":678,"o":"m 163 486 l 163 0 l 102 0 l 102 1085 l 163 1085 l 163 547 l 617 547 l 617 1085 l 678 1085 l 678 0 l 617 0 l 617 486 l 163 486 z "},"Θ":{"ha":1208,"x_min":47,"x_max":1161,"o":"m 604 1100 q 998 937 835 1100 q 1161 544 1161 774 q 998 150 1161 313 q 604 -13 835 -13 q 211 150 374 -13 q 47 544 47 313 q 211 937 47 774 q 604 1100 374 1100 m 604 1038 q 255 893 399 1038 q 110 544 110 748 q 255 194 110 339 q 604 49 399 49 q 954 194 808 49 q 1099 544 1099 339 q 954 893 1099 748 q 604 1038 808 1038 m 298 574 l 911 574 l 911 513 l 298 513 l 298 574 z "},"Ι":{"ha":249,"x_min":94,"x_max":155,"o":"m 155 1085 l 155 0 l 94 0 l 94 1085 l 155 1085 z "},"Κ":{"ha":744,"x_min":102,"x_max":683,"o":"m 163 526 l 163 0 l 102 0 l 102 1085 l 163 1085 l 163 623 l 509 1085 l 588 1085 l 262 648 l 683 0 l 608 0 l 222 600 l 163 526 z "},"Λ":{"ha":869,"x_min":0,"x_max":869,"o":"m 469 1085 l 869 0 l 805 0 l 432 1008 l 64 1 l 0 1 l 395 1085 l 469 1085 z "},"Μ":{"ha":1158,"x_min":102,"x_max":1056,"o":"m 172 1085 l 579 380 l 986 1085 l 1056 1085 l 1053 1080 l 1053 0 l 992 0 l 992 975 l 579 260 l 165 975 l 165 0 l 104 0 l 104 1080 l 102 1085 l 172 1085 z "},"Ν":{"ha":889,"x_min":102,"x_max":787,"o":"m 102 1085 l 169 1085 l 726 120 l 726 1085 l 787 1085 l 787 0 l 726 0 l 163 975 l 163 0 l 102 0 l 102 1085 z "},"Ξ":{"ha":844,"x_min":39,"x_max":806,"o":"m 115 574 l 728 574 l 728 513 l 115 513 l 115 574 m 39 1086 l 806 1086 l 806 1024 l 39 1024 l 39 1086 m 39 62 l 806 62 l 806 1 l 39 1 l 39 62 z "},"Ο":{"ha":1283,"x_min":85,"x_max":1198,"o":"m 642 1101 q 1035 938 872 1101 q 1198 544 1198 774 q 1035 150 1198 313 q 642 -13 872 -13 q 248 150 411 -13 q 85 544 85 313 q 248 938 85 774 q 642 1101 411 1101 m 642 1038 q 292 893 437 1038 q 147 544 147 749 q 292 194 147 339 q 642 49 437 49 q 991 194 846 49 q 1136 544 1136 339 q 991 893 1136 749 q 642 1038 846 1038 z "},"Π":{"ha":823,"x_min":72,"x_max":750,"o":"m 134 1023 l 134 0 l 72 0 l 72 1085 l 750 1085 l 750 0 l 689 0 l 689 1023 l 134 1023 z "},"Ρ":{"ha":739,"x_min":102,"x_max":701,"o":"m 163 376 l 163 0 l 102 0 l 102 1085 l 387 1085 q 597 981 511 1068 q 701 731 701 878 q 597 480 701 584 q 347 376 494 376 l 163 376 m 163 1023 l 163 438 l 347 438 q 554 524 468 438 q 640 731 640 610 q 554 938 640 852 q 347 1023 468 1023 l 163 1023 z "},"Σ":{"ha":814,"x_min":18,"x_max":796,"o":"m 18 1084 l 796 1084 l 796 1023 l 84 1023 l 481 542 l 84 61 l 796 61 l 796 0 l 18 0 l 18 89 l 402 542 l 18 995 l 18 1084 z "},"Τ":{"ha":678,"x_min":34,"x_max":644,"o":"m 370 1024 l 370 0 l 309 0 l 309 1024 l 34 1024 l 34 1085 l 644 1085 l 644 1024 l 370 1024 z "},"Υ":{"ha":876,"x_min":34,"x_max":842,"o":"m 407 439 l 34 1085 l 104 1085 l 437 507 l 772 1085 l 842 1085 l 468 439 l 468 0 l 407 0 l 407 439 z "},"Φ":{"ha":1211,"x_min":54,"x_max":1158,"o":"m 574 227 l 574 840 q 247 751 367 835 q 119 533 119 661 q 247 316 119 406 q 574 227 367 232 m 636 162 l 636 3 l 574 3 l 574 162 q 201 271 340 168 q 54 534 54 380 q 201 797 54 688 q 574 905 340 899 l 574 1084 l 636 1084 l 636 905 q 1010 797 871 899 q 1158 534 1158 688 q 1010 271 1158 380 q 636 162 871 168 m 636 840 l 636 227 q 964 316 845 232 q 1093 533 1093 406 q 964 751 1093 661 q 636 840 845 835 z "},"Χ":{"ha":826,"x_min":34,"x_max":792,"o":"m 34 0 l 378 596 l 96 1085 l 165 1085 l 412 656 l 661 1085 l 730 1085 l 447 596 l 792 0 l 722 0 l 412 536 l 103 0 l 34 0 z "},"Ψ":{"ha":1238,"x_min":69,"x_max":1170,"o":"m 648 239 l 648 3 l 587 3 l 587 239 q 214 347 351 245 q 69 613 73 456 l 69 1084 l 131 1084 l 131 610 q 258 393 131 483 q 587 303 378 309 l 587 1084 l 648 1084 l 648 303 q 976 393 857 309 q 1104 613 1104 483 l 1108 613 l 1108 1084 l 1170 1084 l 1170 609 q 1022 347 1168 456 q 648 239 884 245 z "},"Ω":{"ha":1080,"x_min":61,"x_max":1019,"o":"m 545 1085 q 889 934 760 1085 q 1019 526 1019 783 q 916 209 1019 337 q 730 60 812 81 l 950 60 l 950 0 l 587 0 l 587 60 q 846 213 734 94 q 958 526 958 332 q 845 896 958 758 q 542 1034 732 1034 l 538 1034 q 235 896 349 1034 q 122 526 122 758 q 234 213 122 332 q 493 60 347 94 l 493 0 l 130 0 l 130 60 l 351 60 q 164 209 268 81 q 61 526 61 337 q 191 934 61 783 q 535 1085 321 1085 l 545 1085 z "},"Ϊ":{"ha":249,"x_min":-39,"x_max":287,"o":"m 155 1085 l 155 0 l 94 0 l 94 1085 l 155 1085 m 22 1321 q 65 1303 47 1321 q 83 1261 83 1286 q 65 1217 83 1235 q 22 1200 47 1200 q -21 1217 -3 1200 q -39 1261 -39 1235 q -21 1303 -39 1286 q 22 1321 -3 1321 m 226 1321 q 269 1303 251 1321 q 287 1261 287 1286 q 269 1217 287 1235 q 226 1200 251 1200 q 183 1217 201 1200 q 165 1261 165 1235 q 183 1303 165 1286 q 226 1321 201 1321 z "},"Ϋ":{"ha":876,"x_min":34,"x_max":842,"o":"m 407 439 l 34 1085 l 104 1085 l 437 507 l 772 1085 l 842 1085 l 468 439 l 468 0 l 407 0 l 407 439 m 336 1321 q 379 1303 361 1321 q 397 1261 397 1286 q 379 1217 397 1235 q 336 1200 361 1200 q 293 1217 311 1200 q 275 1261 275 1235 q 293 1303 275 1286 q 336 1321 311 1321 m 540 1321 q 583 1303 565 1321 q 601 1261 601 1286 q 583 1217 601 1235 q 540 1200 565 1200 q 497 1217 515 1200 q 479 1261 479 1235 q 497 1303 479 1286 q 540 1321 515 1321 z "},"ά":{"ha":892,"x_min":62,"x_max":861,"o":"m 752 159 q 698 90 729 123 q 434 -19 589 -19 q 171 90 280 -19 q 62 353 62 199 q 171 617 62 508 q 434 726 280 726 q 698 617 589 726 q 752 513 732 583 l 801 666 l 861 666 l 785 333 l 861 0 l 801 0 l 752 159 m 723 336 q 652 571 723 497 q 434 661 562 661 q 216 571 307 661 q 126 353 126 480 q 216 136 126 225 q 434 46 307 46 q 652 136 562 46 q 723 336 721 205 m 610 1085 l 444 958 l 387 958 l 498 1085 l 610 1085 z "},"έ":{"ha":578,"x_min":69,"x_max":509,"o":"m 239 309 q 170 272 214 304 q 126 174 126 240 q 176 87 126 123 q 307 51 226 51 q 509 177 426 58 l 509 77 q 307 -14 418 -14 q 138 38 207 -14 q 69 182 69 90 q 178 340 69 274 q 69 505 69 406 q 138 637 69 597 q 307 677 207 677 q 509 591 416 677 l 509 508 q 307 612 427 612 q 176 587 226 612 q 126 512 126 562 q 170 407 126 438 q 239 369 214 375 l 407 369 l 407 309 l 239 309 m 438 1085 l 272 958 l 215 958 l 326 1085 l 438 1085 z "},"ή":{"ha":646,"x_min":69,"x_max":592,"o":"m 131 517 l 131 0 l 69 0 l 69 666 l 131 666 l 131 623 q 324 706 214 706 q 516 632 442 706 q 592 446 590 557 l 592 -254 l 531 -254 l 531 439 q 470 585 531 525 q 324 644 408 644 q 179 585 240 644 q 131 517 146 553 m 479 1085 l 313 958 l 256 958 l 367 1085 l 479 1085 z "},"ί":{"ha":283,"x_min":67,"x_max":290,"o":"m 172 666 l 172 0 l 111 0 l 111 666 l 172 666 m 290 1085 l 124 958 l 67 958 l 178 1085 l 290 1085 z "},"ΰ":{"ha":745,"x_min":102,"x_max":644,"o":"m 376 -9 q 178 64 252 -9 q 102 251 104 138 l 102 666 l 163 666 l 163 256 q 224 112 163 172 q 376 52 286 52 q 521 112 460 52 q 583 256 583 172 l 583 666 l 644 666 l 644 251 q 568 64 642 138 q 376 -9 494 -9 m 492 1085 l 356 958 l 300 958 l 379 1085 l 492 1085 m 519 1042 q 549 1029 536 1042 q 562 1000 562 1017 q 549 970 562 982 q 519 958 536 958 q 489 970 501 958 q 476 1000 476 982 q 489 1029 476 1017 q 519 1042 501 1042 m 227 1042 q 257 1029 244 1042 q 270 1000 270 1017 q 257 970 270 982 q 227 958 244 958 q 197 970 210 958 q 184 1000 184 982 q 197 1029 184 1017 q 227 1042 210 1042 z "},"α":{"ha":892,"x_min":62,"x_max":861,"o":"m 752 159 q 698 90 729 123 q 434 -19 589 -19 q 171 90 280 -19 q 62 353 62 199 q 171 617 62 508 q 434 726 280 726 q 698 617 589 726 q 752 513 732 583 l 801 666 l 861 666 l 785 333 l 861 0 l 801 0 l 752 159 m 723 336 q 652 571 723 497 q 434 661 562 661 q 216 571 307 661 q 126 353 126 480 q 216 136 126 225 q 434 46 307 46 q 652 136 562 46 q 723 336 721 205 z "},"β":{"ha":699,"x_min":92,"x_max":653,"o":"m 155 1032 q 187 1066 155 1032 q 314 1099 218 1099 q 478 1031 411 1099 q 546 869 546 964 q 494 717 546 772 q 397 644 443 662 q 560 543 496 612 q 653 309 653 443 q 558 80 653 175 q 330 -15 464 -15 q 203 10 261 -15 l 222 72 q 330 50 272 50 q 513 125 437 50 q 589 309 589 201 q 515 497 589 416 q 293 606 441 578 l 243 607 l 243 667 q 346 684 306 668 q 433 750 386 700 q 481 869 481 800 q 432 987 481 939 q 314 1036 383 1036 q 200 985 245 1036 q 154 847 154 934 l 154 -252 l 92 -252 l 92 854 q 155 1032 92 964 z "},"γ":{"ha":686,"x_min":31,"x_max":655,"o":"m 310 0 l 31 666 l 102 666 l 341 96 l 584 666 l 655 666 l 374 3 l 374 -254 l 310 -254 l 310 0 z "},"δ":{"ha":854,"x_min":55,"x_max":800,"o":"m 210 571 q 164 525 210 571 q 119 353 119 480 q 210 136 119 225 q 427 46 300 46 q 645 136 555 46 q 735 353 735 225 q 645 571 735 480 q 427 661 555 661 q 210 571 300 661 m 549 726 q 582 710 549 726 q 707 601 614 694 q 800 353 800 508 q 691 90 800 199 q 427 -19 582 -19 q 164 90 273 -19 q 55 353 55 199 q 165 617 55 508 q 437 732 260 713 l 148 1081 l 631 1081 l 631 1020 l 292 1020 q 549 726 484 758 z "},"ε":{"ha":578,"x_min":69,"x_max":509,"o":"m 239 309 q 170 272 214 304 q 126 174 126 240 q 176 87 126 123 q 307 51 226 51 q 509 177 426 58 l 509 77 q 307 -14 418 -14 q 138 38 207 -14 q 69 182 69 90 q 178 340 69 274 q 69 505 69 406 q 138 637 69 597 q 307 677 207 677 q 509 591 416 677 l 509 508 q 307 612 427 612 q 176 587 226 612 q 126 512 126 562 q 170 407 126 438 q 239 369 214 375 l 407 369 l 407 309 l 239 309 z "},"ζ":{"ha":606,"x_min":77,"x_max":621,"o":"m 621 1065 q 146 352 204 646 q 136 266 136 305 q 398 47 136 56 q 588 -99 588 41 q 450 -226 565 -222 l 450 -162 q 526 -91 522 -162 l 526 -87 q 403 -15 526 -15 q 77 256 77 -7 q 82 322 77 287 q 516 1023 125 650 l 105 1023 l 105 1085 l 621 1085 l 621 1065 z "},"η":{"ha":646,"x_min":69,"x_max":592,"o":"m 131 517 l 131 0 l 69 0 l 69 666 l 131 666 l 131 623 q 324 706 214 706 q 516 632 442 706 q 592 446 590 557 l 592 -254 l 531 -254 l 531 439 q 470 585 531 525 q 324 644 408 644 q 179 585 240 644 q 131 517 146 553 z "},"θ":{"ha":867,"x_min":62,"x_max":806,"o":"m 742 533 q 652 892 742 764 q 434 1020 562 1020 q 216 892 307 1020 q 126 533 126 764 q 216 174 126 302 q 434 46 307 46 q 652 174 562 46 q 742 533 742 302 m 806 533 q 697 129 806 276 q 435 -19 589 -19 q 171 129 280 -19 q 62 533 62 276 q 171 937 62 789 q 435 1085 280 1085 q 697 937 589 1085 q 806 533 806 789 m 226 564 l 643 564 l 643 503 l 226 503 l 226 564 z "},"ι":{"ha":283,"x_min":111,"x_max":172,"o":"m 172 666 l 172 0 l 111 0 l 111 666 l 172 666 z "},"κ":{"ha":566,"x_min":77,"x_max":575,"o":"m 478 666 l 314 463 l 575 0 l 500 0 l 274 414 l 138 263 l 138 0 l 77 0 l 77 666 l 138 666 l 138 361 l 399 666 l 478 666 z "},"λ":{"ha":652,"x_min":39,"x_max":613,"o":"m 361 541 l 613 0 l 545 0 l 326 465 l 107 0 l 39 0 l 292 543 l 101 950 l 169 950 l 360 541 l 361 541 z "},"μ":{"ha":674,"x_min":84,"x_max":590,"o":"m 530 75 q 523 67 527 72 q 331 -6 448 -6 q 146 68 222 -6 l 146 -254 l 84 -254 l 84 666 l 146 666 l 146 170 q 186 113 159 141 q 331 55 247 55 q 477 115 415 55 q 530 203 516 154 l 530 666 l 590 666 l 590 0 l 530 0 l 530 75 z "},"ν":{"ha":640,"x_min":33,"x_max":606,"o":"m 104 666 l 319 157 l 535 666 l 606 666 l 319 -23 l 33 666 l 104 666 z "},"ξ":{"ha":686,"x_min":62,"x_max":693,"o":"m 441 -7 q 346 1 441 -7 q 156 92 251 8 q 62 309 62 175 q 155 543 62 443 q 317 644 219 612 q 220 710 272 662 q 169 854 169 758 q 465 1084 182 1084 l 631 1085 l 631 1029 l 487 1029 q 242 859 242 1029 l 242 854 q 286 742 242 785 q 410 668 329 700 l 626 667 l 626 607 l 422 608 q 199 497 273 578 q 125 309 125 416 q 201 137 125 201 q 485 49 277 73 q 693 -122 693 26 l 693 -138 q 549 -241 670 -229 l 549 -170 q 632 -114 627 -170 l 632 -110 q 441 -7 632 -22 z "},"ο":{"ha":867,"x_min":61,"x_max":806,"o":"m 433 726 q 697 617 588 726 q 806 353 806 508 q 697 90 806 199 q 433 -19 588 -19 q 170 90 279 -19 q 61 353 61 199 q 170 617 61 508 q 433 726 279 726 m 433 661 q 216 571 306 661 q 125 353 125 481 q 216 136 125 226 q 433 46 306 46 q 651 136 561 46 q 741 353 741 226 q 651 571 741 481 q 433 661 561 661 z "},"π":{"ha":856,"x_min":46,"x_max":810,"o":"m 304 604 l 304 0 l 244 0 l 244 604 l 46 604 l 46 666 l 810 666 l 810 604 l 612 604 l 612 0 l 551 0 l 551 604 l 304 604 z "},"ρ":{"ha":852,"x_min":71,"x_max":806,"o":"m 71 444 q 190 640 100 554 q 433 725 279 725 q 697 616 588 725 q 806 353 806 508 q 697 90 806 199 q 433 -19 588 -19 q 170 90 279 -19 q 132 135 149 112 l 132 -254 l 71 -254 l 71 444 m 132 416 l 132 289 q 216 136 149 201 q 433 45 306 45 q 651 135 561 45 q 741 353 741 225 q 651 571 741 480 q 433 661 561 661 q 216 571 306 661 q 132 416 149 504 z "},"ς":{"ha":694,"x_min":77,"x_max":641,"o":"m 434 -11 q 365 3 434 -11 q 187 96 297 16 q 77 309 77 175 q 170 543 77 443 q 494 668 271 654 l 641 667 l 641 607 l 528 607 q 230 509 319 601 q 140 309 140 416 q 232 141 140 201 q 477 46 323 81 q 631 -99 631 11 l 631 -115 q 487 -233 608 -222 l 487 -162 q 570 -91 566 -162 l 570 -87 q 434 -11 570 -38 z "},"σ":{"ha":919,"x_min":63,"x_max":865,"o":"m 218 571 q 173 525 218 571 q 127 353 127 480 q 218 136 127 225 q 435 46 308 46 q 653 136 563 46 q 743 353 743 225 q 653 571 743 480 q 435 661 563 661 q 218 571 308 661 m 711 604 q 808 353 808 499 q 699 90 808 199 q 435 -19 590 -19 q 172 90 281 -19 q 63 353 63 199 q 172 617 63 508 q 435 726 281 726 q 640 666 551 726 l 865 666 l 865 604 l 711 604 z "},"τ":{"ha":705,"x_min":47,"x_max":658,"o":"m 382 604 l 382 0 l 322 0 l 322 604 l 47 604 l 47 666 l 658 666 l 658 604 l 382 604 z "},"υ":{"ha":745,"x_min":102,"x_max":644,"o":"m 376 -9 q 178 64 252 -9 q 102 251 104 138 l 102 666 l 163 666 l 163 256 q 224 112 163 172 q 376 52 286 52 q 521 112 460 52 q 583 256 583 172 l 583 666 l 644 666 l 644 251 q 568 64 642 138 q 376 -9 494 -9 z "},"φ":{"ha":868,"x_min":62,"x_max":807,"o":"m 412 -12 q 172 98 272 -4 q 62 360 62 206 q 172 624 62 515 q 227 672 208 661 l 250 607 q 218 578 233 593 q 127 360 127 487 q 217 142 127 233 q 401 54 304 54 l 407 54 l 407 625 q 489 696 418 696 q 616 662 538 696 q 807 360 807 576 q 698 98 807 206 q 473 -11 603 1 l 473 -250 l 412 -250 l 412 -12 m 469 66 q 652 142 598 89 q 743 360 743 233 q 609 595 743 518 q 506 633 541 633 q 469 596 471 633 l 469 66 z "},"χ":{"ha":743,"x_min":39,"x_max":704,"o":"m 372 182 l 108 -250 l 39 -250 l 336 239 l 77 666 l 147 666 l 372 297 l 595 666 l 665 666 l 406 239 l 704 -250 l 635 -250 l 372 182 z "},"ψ":{"ha":895,"x_min":69,"x_max":826,"o":"m 480 -12 l 480 -243 l 414 -243 l 414 -12 q 179 98 278 -3 q 69 360 69 206 l 69 667 l 134 667 l 134 360 q 224 142 134 233 q 409 54 312 54 l 414 54 l 414 667 l 480 667 l 480 54 l 486 54 q 671 142 583 54 q 760 360 760 233 l 760 667 l 826 667 l 826 360 q 716 98 826 206 q 480 -12 617 -3 z "},"ω":{"ha":1044,"x_min":54,"x_max":989,"o":"m 496 151 l 492 151 l 492 510 l 552 510 l 552 151 l 546 151 q 557 136 551 143 q 566 125 561 130 q 709 37 606 37 q 869 118 814 37 q 925 372 925 199 q 844 655 925 530 l 844 666 l 904 666 q 989 372 989 519 q 919 80 989 180 q 718 -19 849 -19 q 522 89 589 -19 q 327 -19 456 -19 q 124 80 195 -19 q 54 372 54 180 q 145 666 54 522 l 206 666 l 206 660 q 118 372 118 545 q 174 118 118 199 q 334 37 229 37 q 479 125 438 37 q 486 136 483 131 q 496 151 492 143 z "},"ϊ":{"ha":283,"x_min":-21,"x_max":304,"o":"m 172 666 l 172 0 l 111 0 l 111 666 l 172 666 m 40 902 q 83 884 65 902 q 101 842 101 867 q 83 798 101 816 q 40 781 65 781 q -3 798 15 781 q -21 842 -21 816 q -3 884 -21 867 q 40 902 15 902 m 243 902 q 287 884 269 902 q 304 842 304 867 q 287 798 304 816 q 243 781 269 781 q 200 798 218 781 q 182 842 182 816 q 200 884 182 867 q 243 902 218 902 z "},"ϋ":{"ha":745,"x_min":102,"x_max":644,"o":"m 376 -9 q 178 64 252 -9 q 102 251 104 138 l 102 666 l 163 666 l 163 256 q 224 112 163 172 q 376 52 286 52 q 521 112 460 52 q 583 256 583 172 l 583 666 l 644 666 l 644 251 q 568 64 642 138 q 376 -9 494 -9 m 271 902 q 314 884 296 902 q 332 842 332 867 q 314 798 332 816 q 271 781 296 781 q 228 798 246 781 q 210 842 210 816 q 228 884 210 867 q 271 902 246 902 m 475 902 q 518 884 500 902 q 536 842 536 867 q 518 798 536 816 q 475 781 500 781 q 432 798 450 781 q 414 842 414 816 q 432 884 414 867 q 475 902 450 902 z "},"ό":{"ha":867,"x_min":61,"x_max":806,"o":"m 433 726 q 697 617 588 726 q 806 353 806 508 q 697 90 806 199 q 433 -19 588 -19 q 170 90 279 -19 q 61 353 61 199 q 170 617 61 508 q 433 726 279 726 m 433 661 q 216 571 306 661 q 125 353 125 481 q 216 136 125 226 q 433 46 306 46 q 651 136 561 46 q 741 353 741 226 q 651 571 741 481 q 433 661 561 661 m 582 1085 l 416 958 l 359 958 l 469 1085 l 582 1085 z "},"ύ":{"ha":745,"x_min":102,"x_max":644,"o":"m 376 -9 q 178 64 252 -9 q 102 251 104 138 l 102 666 l 163 666 l 163 256 q 224 112 163 172 q 376 52 286 52 q 521 112 460 52 q 583 256 583 172 l 583 666 l 644 666 l 644 251 q 568 64 642 138 q 376 -9 494 -9 m 522 1085 l 355 958 l 298 958 l 409 1085 l 522 1085 z "},"ώ":{"ha":1044,"x_min":54,"x_max":989,"o":"m 496 151 l 492 151 l 492 510 l 552 510 l 552 151 l 546 151 q 557 136 551 143 q 566 125 561 130 q 709 37 606 37 q 869 118 814 37 q 925 372 925 199 q 844 655 925 530 l 844 666 l 904 666 q 989 372 989 519 q 919 80 989 180 q 718 -19 849 -19 q 522 89 589 -19 q 327 -19 456 -19 q 124 80 195 -19 q 54 372 54 180 q 145 666 54 522 l 206 666 l 206 660 q 118 372 118 545 q 174 118 118 199 q 334 37 229 37 q 479 125 438 37 q 486 136 483 131 q 496 151 492 143 m 670 1085 l 504 958 l 447 958 l 557 1085 l 670 1085 z "},"Ё":{"ha":729,"x_min":102,"x_max":644,"o":"m 644 1085 l 644 1024 l 163 1024 l 163 573 l 644 573 l 644 512 l 163 512 l 163 61 l 644 61 l 644 0 l 102 0 l 102 1085 l 644 1085 m 271 1321 q 314 1303 296 1321 q 332 1261 332 1286 q 314 1217 332 1235 q 271 1200 296 1200 q 228 1217 246 1200 q 210 1261 210 1235 q 228 1303 210 1286 q 271 1321 246 1321 m 475 1321 q 518 1303 500 1321 q 536 1261 536 1286 q 518 1217 536 1235 q 475 1200 500 1200 q 432 1217 450 1200 q 414 1261 414 1235 q 432 1303 414 1286 q 475 1321 450 1321 z "},"Ђ":{"ha":1110,"x_min":46,"x_max":1049,"o":"m 381 380 l 381 0 l 321 0 l 321 1023 l 46 1023 l 46 1085 l 656 1085 l 656 1023 l 381 1023 l 381 546 q 424 593 400 571 q 684 687 526 687 q 949 593 842 687 q 1049 319 1049 517 q 949 37 1049 120 q 887 -7 920 12 l 846 37 q 896 73 871 53 q 987 311 986 153 q 896 549 986 469 q 677 629 804 629 q 465 549 549 629 q 381 380 389 475 z "},"Ѓ":{"ha":601,"x_min":86,"x_max":561,"o":"m 561 1085 l 561 1023 l 148 1023 l 148 0 l 86 0 l 86 1085 l 561 1085 m 473 1360 l 307 1233 l 250 1233 l 360 1360 l 473 1360 z "},"Є":{"ha":1192,"x_min":75,"x_max":1161,"o":"m 806 574 l 806 513 l 138 513 q 282 194 147 328 q 631 49 427 49 q 981 194 836 49 q 1095 367 1059 271 l 1161 367 q 1025 151 1121 246 q 631 -13 862 -13 q 238 150 401 -13 q 75 544 75 313 q 238 937 75 774 q 631 1100 401 1100 q 1025 938 862 1100 q 1106 836 1073 889 l 1031 836 q 981 893 1008 865 q 631 1038 836 1038 q 282 893 427 1038 q 138 574 147 759 l 806 574 z "},"Ѕ":{"ha":707,"x_min":34,"x_max":673,"o":"m 372 601 q 189 707 256 640 q 121 869 121 774 q 189 1030 121 963 q 351 1098 256 1098 q 514 1031 446 1098 q 566 950 551 995 l 511 928 q 471 989 498 962 q 351 1038 421 1038 q 232 989 281 1038 q 182 869 182 940 q 232 750 182 800 q 359 667 278 705 q 578 536 490 625 q 673 309 673 442 q 578 81 673 176 q 351 -13 484 -13 q 124 82 218 -13 q 34 257 49 157 l 92 278 q 167 124 101 190 q 351 47 243 47 q 536 124 460 47 q 613 309 613 201 q 536 494 613 417 q 372 601 469 561 z "},"І":{"ha":292,"x_min":115,"x_max":176,"o":"m 176 1085 l 176 0 l 115 0 l 115 1085 l 176 1085 z "},"Ї":{"ha":292,"x_min":-17,"x_max":309,"o":"m 176 1085 l 176 0 l 115 0 l 115 1085 l 176 1085 m 44 1321 q 87 1303 69 1321 q 105 1261 105 1286 q 87 1217 105 1235 q 44 1200 69 1200 q 1 1217 19 1200 q -17 1261 -17 1235 q 1 1303 -17 1286 q 44 1321 19 1321 m 248 1321 q 291 1303 273 1321 q 309 1261 309 1286 q 291 1217 309 1235 q 248 1200 273 1200 q 204 1217 222 1200 q 186 1261 186 1235 q 204 1303 186 1286 q 248 1321 222 1321 z "},"Ј":{"ha":581,"x_min":85,"x_max":476,"o":"m 476 206 q 422 49 476 103 q 282 -9 364 -9 q 142 48 200 -9 q 85 176 85 106 l 125 191 q 182 81 138 118 q 265 50 219 50 q 282 52 273 50 q 379 92 338 52 q 415 213 415 127 l 415 1085 l 476 1085 l 476 206 z "},"Љ":{"ha":1525,"x_min":39,"x_max":1465,"o":"m 788 0 l 788 1023 l 233 1023 l 233 192 q 177 53 233 109 q 39 -4 121 -4 l 39 58 q 134 96 95 58 q 172 199 172 134 l 172 1085 l 850 1085 l 850 572 l 1205 572 q 1391 488 1318 569 q 1465 290 1465 408 q 1391 83 1465 165 q 1205 0 1318 2 l 788 0 m 850 510 l 850 61 l 1200 61 q 1344 130 1284 61 q 1404 289 1404 199 q 1344 442 1404 374 q 1200 510 1284 510 l 850 510 z "},"Њ":{"ha":1431,"x_min":77,"x_max":1377,"o":"m 694 0 l 694 512 l 138 512 l 138 0 l 77 0 l 77 1085 l 138 1085 l 138 573 l 694 573 l 694 1085 l 755 1085 l 755 572 l 1117 572 q 1304 488 1230 569 q 1377 290 1377 408 q 1304 83 1377 165 q 1117 0 1230 2 l 694 0 m 755 510 l 755 61 l 1112 61 q 1257 130 1196 61 q 1317 289 1317 199 q 1257 442 1317 374 q 1112 510 1196 510 l 755 510 z "},"Ћ":{"ha":1109,"x_min":40,"x_max":1032,"o":"m 375 380 l 375 0 l 315 0 l 315 1023 l 40 1023 l 40 1085 l 650 1085 l 650 1023 l 375 1023 l 375 546 q 418 593 394 571 q 677 687 519 687 q 935 593 836 687 q 1032 300 1032 499 l 1032 0 l 966 0 l 966 306 q 882 553 966 468 q 682 633 801 633 l 671 633 q 459 549 543 629 q 375 380 383 475 z "},"Ќ":{"ha":744,"x_min":102,"x_max":683,"o":"m 163 526 l 163 0 l 102 0 l 102 1085 l 163 1085 l 163 623 l 509 1085 l 588 1085 l 262 648 l 683 0 l 608 0 l 222 600 l 163 526 m 473 1360 l 307 1233 l 250 1233 l 360 1360 l 473 1360 z "},"Ѝ":{"ha":1027,"x_min":83,"x_max":943,"o":"m 943 1085 l 943 0 l 882 0 l 882 987 l 178 0 l 83 0 l 83 1085 l 145 1085 l 145 75 l 866 1085 l 943 1085 m 463 1360 l 574 1233 l 517 1233 l 351 1360 l 463 1360 z "},"Ў":{"ha":865,"x_min":-31,"x_max":896,"o":"m 896 1085 q 250 43 360 130 q 123 -9 182 -9 q 52 13 86 -9 l 81 66 q 146 48 115 48 q 173 52 160 48 q 326 235 214 64 l 422 392 l -31 1085 l 39 1085 l 455 450 l 826 1085 l 896 1085 m 323 1326 q 355 1265 329 1291 q 433 1232 387 1232 q 511 1265 479 1232 q 543 1326 538 1291 l 592 1326 q 546 1230 587 1270 q 433 1183 500 1183 q 320 1230 366 1183 q 273 1326 276 1274 l 323 1326 z "},"Џ":{"ha":865,"x_min":69,"x_max":796,"o":"m 399 1 l 69 1 l 69 1085 l 131 1085 l 131 62 l 734 62 l 734 1085 l 796 1085 l 796 0 l 460 0 l 460 -254 l 399 -254 l 399 1 z "},"А":{"ha":876,"x_min":34,"x_max":842,"o":"m 604 477 l 438 932 l 273 477 l 604 477 m 626 416 l 250 416 l 99 0 l 34 0 l 438 1110 l 842 0 l 777 0 l 626 416 z "},"Б":{"ha":791,"x_min":77,"x_max":753,"o":"m 81 573 l 81 1085 l 555 1085 l 555 1023 l 142 1023 l 142 573 l 492 573 q 679 490 606 571 q 753 292 753 409 q 679 85 753 166 q 492 1 606 3 l 142 1 l 142 0 l 81 0 l 81 1 l 77 1 l 77 63 l 81 63 l 81 512 l 77 512 l 77 573 l 81 573 m 142 512 l 142 63 l 487 63 q 632 132 572 63 q 692 291 692 200 q 632 444 692 375 q 487 512 572 512 l 142 512 z "},"В":{"ha":723,"x_min":102,"x_max":662,"o":"m 294 1085 q 437 1026 378 1085 q 496 884 496 967 q 410 727 496 800 q 553 637 486 711 q 662 374 662 528 q 553 107 662 220 q 312 1 452 3 l 312 0 l 102 0 l 102 1085 l 294 1085 m 163 682 l 163 61 l 312 61 l 312 60 q 507 153 425 68 q 597 374 597 246 q 507 591 597 501 q 290 682 417 682 l 163 682 m 163 1024 l 163 747 l 310 747 q 397 785 361 751 q 438 884 438 823 q 397 984 438 945 q 294 1024 355 1024 l 163 1024 z "},"Г":{"ha":601,"x_min":86,"x_max":561,"o":"m 561 1085 l 561 1023 l 148 1023 l 148 0 l 86 0 l 86 1085 l 561 1085 z "},"Д":{"ha":897,"x_min":16,"x_max":828,"o":"m 706 66 l 706 1023 l 314 1023 q 336 787 336 913 q 95 66 336 326 l 706 66 m 768 66 l 828 66 l 828 -254 l 768 -254 l 768 0 l 76 0 l 76 -254 l 16 -254 l 16 66 l 22 66 q 275 787 275 357 q 236 1085 275 915 l 768 1085 l 768 66 z "},"Е":{"ha":729,"x_min":102,"x_max":644,"o":"m 644 1085 l 644 1024 l 163 1024 l 163 573 l 644 573 l 644 512 l 163 512 l 163 61 l 644 61 l 644 0 l 102 0 l 102 1085 l 644 1085 z "},"Ж":{"ha":1299,"x_min":-11,"x_max":1310,"o":"m 680 566 l 1043 1085 l 1117 1085 l 836 677 l 1310 0 l 1236 0 l 796 627 l 680 460 l 680 0 l 618 0 l 618 460 l 503 627 l 64 0 l -11 0 l 463 677 l 182 1085 l 256 1085 l 618 566 l 618 1085 l 680 1085 l 680 566 z "},"З":{"ha":709,"x_min":69,"x_max":654,"o":"m 533 450 q 505 483 533 450 q 374 515 477 515 l 117 515 l 117 576 l 374 576 q 533 641 477 576 q 590 810 590 706 q 517 974 590 915 q 348 1034 444 1034 q 69 945 190 1034 l 69 1004 q 332 1090 185 1090 q 563 1016 471 1090 q 654 819 654 942 q 524 546 654 627 q 654 274 654 480 q 563 76 654 151 q 332 1 471 1 q 69 92 182 1 l 69 169 q 332 65 160 65 q 510 121 429 65 q 590 281 590 176 q 533 450 590 385 z "},"И":{"ha":1027,"x_min":83,"x_max":943,"o":"m 943 1085 l 943 0 l 882 0 l 882 987 l 178 0 l 83 0 l 83 1085 l 145 1085 l 145 75 l 866 1085 l 943 1085 z "},"Й":{"ha":1027,"x_min":83,"x_max":943,"o":"m 943 1085 l 943 0 l 882 0 l 882 987 l 178 0 l 83 0 l 83 1085 l 145 1085 l 145 75 l 866 1085 l 943 1085 m 404 1326 q 435 1265 410 1291 q 514 1232 468 1232 q 592 1265 559 1232 q 623 1326 618 1291 l 673 1326 q 627 1230 667 1270 q 514 1183 581 1183 q 401 1230 447 1183 q 354 1326 357 1274 l 404 1326 z "},"К":{"ha":744,"x_min":102,"x_max":683,"o":"m 163 526 l 163 0 l 102 0 l 102 1085 l 163 1085 l 163 623 l 509 1085 l 588 1085 l 262 648 l 683 0 l 608 0 l 222 600 l 163 526 z "},"Л":{"ha":922,"x_min":39,"x_max":850,"o":"m 233 192 q 177 53 233 109 q 39 -4 121 -4 l 39 58 q 134 96 95 58 q 172 199 172 134 l 172 1085 l 850 1085 l 850 0 l 788 0 l 788 1023 l 233 1023 l 233 192 z "},"М":{"ha":1158,"x_min":102,"x_max":1056,"o":"m 172 1085 l 579 380 l 986 1085 l 1056 1085 l 1053 1080 l 1053 0 l 992 0 l 992 975 l 579 260 l 165 975 l 165 0 l 104 0 l 104 1080 l 102 1085 l 172 1085 z "},"Н":{"ha":780,"x_min":102,"x_max":678,"o":"m 163 486 l 163 0 l 102 0 l 102 1085 l 163 1085 l 163 547 l 617 547 l 617 1085 l 678 1085 l 678 0 l 617 0 l 617 486 l 163 486 z "},"О":{"ha":1283,"x_min":85,"x_max":1198,"o":"m 642 1101 q 1035 938 872 1101 q 1198 544 1198 774 q 1035 150 1198 313 q 642 -13 872 -13 q 248 150 411 -13 q 85 544 85 313 q 248 938 85 774 q 642 1101 411 1101 m 642 1038 q 292 893 437 1038 q 147 544 147 749 q 292 194 147 339 q 642 49 437 49 q 991 194 846 49 q 1136 544 1136 339 q 991 893 1136 749 q 642 1038 846 1038 z "},"П":{"ha":823,"x_min":72,"x_max":750,"o":"m 134 1023 l 134 0 l 72 0 l 72 1085 l 750 1085 l 750 0 l 689 0 l 689 1023 l 134 1023 z "},"Р":{"ha":739,"x_min":102,"x_max":701,"o":"m 163 376 l 163 0 l 102 0 l 102 1085 l 387 1085 q 597 981 511 1068 q 701 731 701 878 q 597 480 701 584 q 347 376 494 376 l 163 376 m 163 1023 l 163 438 l 347 438 q 554 524 468 438 q 640 731 640 610 q 554 938 640 852 q 347 1023 468 1023 l 163 1023 z "},"С":{"ha":1082,"x_min":85,"x_max":1014,"o":"m 968 173 l 1014 132 q 640 -13 855 -13 q 247 150 410 -13 q 85 543 85 312 q 247 935 85 772 q 640 1098 410 1098 q 1014 954 855 1098 l 968 911 q 640 1036 828 1036 q 292 891 436 1036 q 147 543 147 747 q 292 193 147 338 q 640 49 436 49 q 968 173 828 49 z "},"Т":{"ha":678,"x_min":34,"x_max":644,"o":"m 370 1024 l 370 0 l 309 0 l 309 1024 l 34 1024 l 34 1085 l 644 1085 l 644 1024 l 370 1024 z "},"У":{"ha":865,"x_min":-31,"x_max":896,"o":"m 896 1085 q 250 43 360 130 q 123 -9 182 -9 q 52 13 86 -9 l 81 66 q 146 48 115 48 q 173 52 160 48 q 326 235 214 64 l 422 392 l -31 1085 l 39 1085 l 455 450 l 826 1085 l 896 1085 z "},"Ф":{"ha":1086,"x_min":46,"x_max":1040,"o":"m 512 266 l 512 800 q 226 722 331 794 q 112 533 112 644 q 226 344 112 422 q 512 266 331 271 m 573 199 l 573 3 l 512 3 l 512 199 q 180 297 303 205 q 46 533 46 395 q 180 770 46 672 q 512 867 303 861 l 512 1084 l 573 1084 l 573 867 q 907 770 783 861 q 1040 533 1040 672 q 907 297 1040 395 q 573 199 783 205 m 573 800 l 573 266 q 861 344 755 271 q 974 533 974 422 q 861 722 974 644 q 573 800 755 794 z "},"Х":{"ha":826,"x_min":34,"x_max":792,"o":"m 34 0 l 378 596 l 96 1085 l 165 1085 l 412 656 l 661 1085 l 730 1085 l 447 596 l 792 0 l 722 0 l 412 536 l 103 0 l 34 0 z "},"Ц":{"ha":876,"x_min":77,"x_max":861,"o":"m 800 0 l 77 0 l 77 1085 l 138 1085 l 138 61 l 742 61 l 742 1085 l 804 1085 l 804 66 l 861 66 l 861 -254 l 800 -254 l 800 0 z "},"Ч":{"ha":842,"x_min":62,"x_max":780,"o":"m 720 705 l 720 1085 l 780 1085 l 780 0 l 720 0 l 720 539 q 677 493 701 515 q 417 399 575 399 q 161 493 259 399 q 62 785 62 586 l 62 1085 l 129 1085 l 128 779 q 213 533 128 618 q 413 452 294 452 l 425 452 q 635 537 551 456 q 720 705 711 610 z "},"Ш":{"ha":1238,"x_min":77,"x_max":1162,"o":"m 77 1085 l 138 1085 l 138 62 l 589 62 l 589 1085 l 650 1085 l 650 62 l 1100 62 l 1100 1085 l 1162 1085 l 1162 1 l 77 1 l 77 1085 z "},"Щ":{"ha":1240,"x_min":77,"x_max":1219,"o":"m 1158 1 l 77 1 l 77 1085 l 138 1085 l 138 62 l 589 62 l 589 1085 l 650 1085 l 650 62 l 1100 62 l 1100 1085 l 1162 1085 l 1162 66 l 1219 66 l 1219 -254 l 1158 -254 l 1158 1 z "},"Ъ":{"ha":1023,"x_min":16,"x_max":951,"o":"m 276 572 l 276 1023 l 16 1023 l 16 1085 l 337 1085 l 337 572 l 691 572 q 877 488 804 569 q 951 290 951 408 q 877 83 951 165 q 691 0 804 2 l 275 0 l 275 61 l 276 61 l 276 510 l 275 510 l 275 572 l 276 572 m 337 510 l 337 61 l 686 61 q 830 130 770 61 q 890 289 890 199 q 830 442 890 374 q 686 510 770 510 l 337 510 z "},"Ы":{"ha":1071,"x_min":71,"x_max":1001,"o":"m 1001 1085 l 1001 0 l 940 0 l 940 1085 l 1001 1085 m 71 0 l 71 1085 l 133 1085 l 133 572 l 493 572 q 680 488 606 569 q 753 290 753 408 q 680 83 753 165 q 493 0 606 2 l 71 0 m 133 510 l 133 61 l 488 61 q 633 130 572 61 q 693 289 693 199 q 633 442 693 374 q 488 510 572 510 l 133 510 z "},"Ь":{"ha":791,"x_min":71,"x_max":753,"o":"m 71 0 l 71 1085 l 133 1085 l 133 572 l 493 572 q 680 488 606 569 q 753 290 753 408 q 680 83 753 165 q 493 0 606 2 l 71 0 m 133 510 l 133 61 l 488 61 q 633 130 572 61 q 693 289 693 199 q 633 442 693 374 q 488 510 572 510 l 133 510 z "},"Э":{"ha":1203,"x_min":47,"x_max":1134,"o":"m 1071 574 q 927 893 1061 759 q 578 1038 782 1038 q 228 893 373 1038 q 178 836 200 865 l 102 836 q 183 938 136 889 q 578 1100 347 1100 q 971 937 808 1100 q 1134 544 1134 774 q 971 150 1134 313 q 578 -13 808 -13 q 183 151 347 -13 q 47 367 87 246 l 113 367 q 228 194 149 271 q 578 49 373 49 q 927 194 782 49 q 1071 513 1061 328 l 403 513 l 403 574 l 1071 574 z "},"Ю":{"ha":1566,"x_min":77,"x_max":1518,"o":"m 962 1038 q 612 893 758 1038 q 467 544 467 748 q 612 194 467 339 q 962 49 758 49 q 1311 194 1166 49 q 1456 544 1456 339 q 1311 893 1456 748 q 962 1038 1166 1038 m 406 512 l 138 512 l 138 0 l 77 0 l 77 1085 l 138 1085 l 138 573 l 406 573 q 568 938 416 785 q 962 1100 731 1100 q 1355 937 1192 1100 q 1518 544 1518 774 q 1355 150 1518 313 q 962 -13 1192 -13 q 568 151 731 -13 q 406 512 416 302 z "},"Я":{"ha":738,"x_min":62,"x_max":661,"o":"m 416 1023 q 209 938 295 1023 q 123 731 123 852 q 209 524 123 609 q 416 438 295 438 l 600 438 l 600 1023 l 416 1023 m 155 0 l 80 0 l 330 386 q 165 480 237 408 q 62 731 62 584 q 165 981 62 877 q 376 1085 252 1068 l 661 1085 l 661 0 l 600 0 l 600 376 l 416 376 q 397 376 406 376 l 155 0 z "},"а":{"ha":922,"x_min":85,"x_max":821,"o":"m 821 0 l 760 0 l 760 136 q 721 90 742 112 q 457 -19 612 -19 q 194 90 303 -19 q 85 353 85 199 q 194 617 85 508 q 457 726 303 726 q 721 617 612 726 q 760 572 742 595 l 760 666 l 821 666 l 821 0 m 760 293 l 760 414 q 675 571 743 503 q 457 661 585 661 q 239 571 330 661 q 149 353 149 481 q 239 136 149 226 q 457 46 330 46 q 675 136 585 46 q 760 293 743 204 z "},"б":{"ha":904,"x_min":75,"x_max":849,"o":"m 259 571 q 214 525 259 571 q 169 353 169 480 q 259 136 169 225 q 477 46 349 46 q 694 136 604 46 q 785 353 785 225 q 694 571 785 480 q 477 661 604 661 q 259 571 349 661 m 139 512 q 214 617 166 568 q 477 726 323 726 q 740 617 631 726 q 849 353 849 508 q 740 90 849 199 q 477 -19 631 -19 q 214 90 323 -19 q 106 319 117 187 l 100 319 q 75 556 75 448 q 176 909 75 772 q 468 1080 302 1080 q 538 1073 503 1080 q 692 1053 633 1053 q 781 1082 763 1053 l 781 1021 q 696 994 763 994 q 549 1014 640 994 q 479 1021 513 1021 q 220 864 326 1021 q 138 559 138 743 q 139 512 138 536 z "},"в":{"ha":579,"x_min":77,"x_max":526,"o":"m 137 368 l 327 368 l 327 368 q 428 407 393 371 q 464 487 464 443 q 428 567 464 531 q 327 606 393 602 l 327 606 l 137 606 l 137 368 m 137 300 l 137 61 l 327 61 l 327 62 q 428 101 393 65 q 464 180 464 136 q 428 260 464 224 q 327 299 393 296 l 327 300 l 137 300 m 77 667 l 329 667 l 329 667 q 471 609 417 663 q 526 487 526 555 l 526 486 q 472 365 526 419 q 431 334 452 346 q 472 303 452 321 q 526 181 526 248 l 526 180 q 471 59 526 113 q 329 1 417 5 l 329 0 l 77 0 l 77 667 z "},"г":{"ha":466,"x_min":77,"x_max":412,"o":"m 137 604 l 137 0 l 77 0 l 77 666 l 412 666 l 412 604 l 137 604 z "},"д":{"ha":728,"x_min":39,"x_max":690,"o":"m 636 66 l 690 66 l 690 -254 l 629 -254 l 629 0 l 99 0 l 99 -254 l 39 -254 l 39 66 l 93 66 q 96 69 95 68 q 241 495 241 213 q 235 604 241 553 q 224 666 231 636 l 636 666 l 636 66 m 173 61 l 576 61 l 576 604 l 297 604 q 302 495 302 553 q 173 61 302 220 z "},"е":{"ha":798,"x_min":61,"x_max":737,"o":"m 229 125 q 433 46 315 46 q 651 136 561 46 q 673 160 663 148 l 737 137 q 697 90 720 113 q 433 -19 588 -19 q 170 90 279 -19 q 61 354 61 199 q 170 617 61 508 q 433 726 279 726 q 665 647 566 726 q 697 617 681 633 q 709 605 703 611 l 663 559 l 229 125 m 618 600 q 433 661 538 661 q 216 571 307 661 q 126 354 126 481 q 187 170 126 249 l 618 600 z "},"ж":{"ha":917,"x_min":-9,"x_max":926,"o":"m 489 361 l 750 666 l 829 666 l 664 463 l 926 0 l 850 0 l 625 414 l 489 264 l 489 0 l 427 0 l 427 264 l 292 414 l 66 0 l -9 0 l 252 463 l 88 666 l 166 666 l 427 361 l 427 666 l 489 666 l 489 361 z "},"з":{"ha":581,"x_min":45,"x_max":527,"o":"m 417 335 q 456 311 437 324 q 527 182 527 257 q 456 53 527 106 q 286 -1 385 -1 q 115 53 186 -1 q 45 182 45 106 l 45 189 l 110 189 l 110 182 q 161 88 110 127 q 286 49 213 49 q 410 88 359 49 q 461 182 461 127 q 410 276 461 237 q 342 309 379 298 l 189 309 l 189 369 l 363 369 q 410 395 389 379 q 461 489 461 433 q 410 583 461 544 q 286 621 359 621 q 161 583 213 621 q 111 503 117 549 l 45 503 q 115 618 52 569 q 286 671 186 671 q 456 617 385 671 q 527 489 527 564 q 456 360 527 414 q 417 335 437 346 z "},"и":{"ha":690,"x_min":69,"x_max":621,"o":"m 69 666 l 130 666 l 130 102 l 555 666 l 621 666 l 621 0 l 560 0 l 560 569 l 130 1 l 130 0 l 69 0 l 69 666 z "},"й":{"ha":690,"x_min":69,"x_max":621,"o":"m 69 666 l 130 666 l 130 102 l 555 666 l 621 666 l 621 0 l 560 0 l 560 569 l 130 1 l 130 0 l 69 0 l 69 666 m 236 907 q 267 846 241 871 q 346 813 300 813 q 424 846 391 813 q 455 907 450 871 l 505 907 q 458 810 499 851 q 346 764 412 764 q 233 810 279 764 q 186 907 189 855 l 236 907 z "},"к":{"ha":566,"x_min":77,"x_max":575,"o":"m 478 666 l 314 463 l 575 0 l 500 0 l 274 414 l 138 263 l 138 0 l 77 0 l 77 666 l 138 666 l 138 361 l 399 666 l 478 666 z "},"л":{"ha":755,"x_min":39,"x_max":686,"o":"m 686 666 l 686 0 l 626 0 l 626 604 l 181 604 l 181 153 q 39 -1 181 11 l 39 60 q 121 152 121 69 l 121 666 l 686 666 z "},"м":{"ha":751,"x_min":62,"x_max":690,"o":"m 376 91 l 625 666 l 690 666 l 690 0 l 629 0 l 629 515 l 406 0 l 346 0 l 122 515 l 122 0 l 62 0 l 62 666 l 127 666 l 376 91 z "},"н":{"ha":688,"x_min":62,"x_max":627,"o":"m 627 0 l 567 0 l 567 330 l 122 330 l 122 0 l 62 0 l 62 666 l 122 666 l 122 391 l 567 391 l 567 666 l 627 666 l 627 0 z "},"о":{"ha":867,"x_min":61,"x_max":806,"o":"m 433 726 q 697 617 588 726 q 806 353 806 508 q 697 90 806 199 q 433 -19 588 -19 q 170 90 279 -19 q 61 353 61 199 q 170 617 61 508 q 433 726 279 726 m 433 661 q 216 571 306 661 q 125 353 125 481 q 216 136 125 226 q 433 46 306 46 q 651 136 561 46 q 741 353 741 226 q 651 571 741 481 q 433 661 561 661 z "},"п":{"ha":704,"x_min":69,"x_max":635,"o":"m 130 604 l 130 0 l 69 0 l 69 666 l 635 666 l 635 0 l 574 0 l 574 604 l 130 604 z "},"р":{"ha":905,"x_min":102,"x_max":837,"o":"m 102 666 l 163 666 l 163 572 q 201 617 180 595 q 465 726 311 726 q 728 617 619 726 q 837 353 837 508 q 728 90 837 199 q 465 -19 619 -19 q 201 90 311 -19 q 163 135 180 112 l 163 -254 l 102 -254 l 102 666 m 163 417 l 163 290 q 247 136 180 202 q 465 45 337 45 q 682 136 592 45 q 772 353 772 226 q 682 571 772 481 q 465 661 592 661 q 247 571 337 661 q 163 417 180 505 z "},"с":{"ha":798,"x_min":61,"x_max":737,"o":"m 673 160 l 737 137 q 697 90 720 113 q 433 -19 588 -19 q 170 90 279 -19 q 61 354 61 199 q 170 617 61 508 q 433 726 279 726 q 697 617 588 726 q 737 571 720 595 l 673 547 q 651 572 663 559 q 433 661 561 661 q 216 571 307 661 q 126 354 126 481 q 216 136 126 227 q 433 46 307 46 q 651 136 561 46 q 673 160 663 148 z "},"т":{"ha":733,"x_min":62,"x_max":672,"o":"m 397 604 l 397 0 l 336 0 l 336 604 l 62 604 l 62 666 l 672 666 l 672 604 l 397 604 z "},"у":{"ha":597,"x_min":12,"x_max":586,"o":"m 157 -254 l 89 -254 l 264 123 l 12 666 l 80 666 l 298 201 l 518 666 l 586 666 l 157 -254 z "},"ф":{"ha":1510,"x_min":54,"x_max":1456,"o":"m 785 429 l 785 277 q 867 136 805 197 q 1084 45 957 45 q 1301 135 1211 45 q 1392 353 1392 225 q 1301 571 1392 480 q 1084 661 1211 661 q 867 571 957 661 q 785 429 805 509 m 724 277 l 724 429 q 643 571 705 509 q 426 661 553 661 q 208 571 298 661 q 118 353 118 480 q 208 135 118 225 q 426 45 298 45 q 643 136 553 45 q 724 277 705 197 m 785 575 q 821 617 802 597 q 1084 725 930 725 q 1348 616 1239 725 q 1456 353 1456 508 q 1348 90 1456 199 q 1084 -19 1239 -19 q 821 90 930 -19 q 785 131 802 110 l 785 -243 l 724 -243 l 724 131 q 689 90 708 110 q 426 -19 579 -19 q 162 90 271 -19 q 54 353 54 199 q 162 616 54 508 q 426 725 271 725 q 689 617 579 725 q 724 575 708 597 l 724 949 l 785 949 l 785 575 z "},"х":{"ha":489,"x_min":0,"x_max":508,"o":"m 218 352 l 23 666 l 94 666 l 254 409 l 414 666 l 485 666 l 290 352 l 508 0 l 437 0 l 254 294 l 71 0 l 0 0 l 218 352 z "},"ц":{"ha":728,"x_min":77,"x_max":696,"o":"m 635 0 l 77 0 l 77 666 l 137 666 l 137 61 l 582 61 l 582 666 l 642 666 l 642 66 l 696 66 l 696 -254 l 635 -254 l 635 0 z "},"ч":{"ha":811,"x_min":54,"x_max":741,"o":"m 680 551 l 680 671 l 741 671 l 741 0 l 680 0 l 680 380 q 646 340 665 358 q 393 245 551 245 q 145 340 235 245 q 54 632 54 433 l 54 671 l 121 671 l 120 626 q 197 380 120 464 q 389 299 271 299 l 401 299 q 604 384 528 303 q 680 551 673 456 z "},"ш":{"ha":916,"x_min":69,"x_max":847,"o":"m 69 666 l 131 666 l 131 62 l 427 62 l 427 666 l 489 666 l 489 62 l 786 62 l 786 666 l 847 666 l 847 1 l 69 1 l 69 666 z "},"щ":{"ha":950,"x_min":84,"x_max":920,"o":"m 859 1 l 84 1 l 84 666 l 146 666 l 146 62 l 442 62 l 442 666 l 504 666 l 504 62 l 801 62 l 801 666 l 862 666 l 862 66 l 920 66 l 920 -254 l 859 -254 l 859 1 z "},"ъ":{"ha":814,"x_min":23,"x_max":753,"o":"m 195 0 l 195 604 l 23 604 l 23 666 l 256 666 l 256 392 l 541 392 l 541 391 q 690 334 629 387 q 753 196 753 279 l 753 195 q 690 58 753 113 q 541 1 629 5 l 541 0 l 195 0 m 256 61 l 538 61 l 538 62 q 648 101 605 65 q 692 195 692 136 q 648 292 692 256 q 538 330 605 327 l 538 331 l 256 331 l 256 61 z "},"ы":{"ha":981,"x_min":77,"x_max":905,"o":"m 137 61 l 497 61 l 497 62 q 607 101 563 65 q 650 195 650 136 q 607 292 650 256 q 497 330 563 327 l 497 331 l 137 331 l 137 61 m 905 0 l 844 0 l 844 666 l 905 666 l 905 0 m 77 0 l 77 666 l 137 666 l 137 392 l 499 392 l 499 391 q 649 334 588 387 q 711 196 711 279 l 711 195 q 649 58 711 113 q 499 1 588 5 l 499 0 l 77 0 z "},"ь":{"ha":688,"x_min":77,"x_max":635,"o":"m 137 61 l 420 61 l 420 62 q 530 101 486 65 q 573 195 573 136 q 530 292 573 256 q 420 330 486 327 l 420 331 l 137 331 l 137 61 m 77 0 l 77 666 l 137 666 l 137 392 l 422 392 l 422 391 q 572 334 511 387 q 635 196 635 279 l 635 195 q 572 58 635 113 q 422 1 511 5 l 422 0 l 77 0 z "},"э":{"ha":830,"x_min":55,"x_max":772,"o":"m 693 450 q 617 571 671 516 q 399 661 527 661 q 182 571 272 661 q 123 488 144 534 l 55 488 q 136 617 78 559 q 399 726 244 726 q 662 617 553 726 q 772 353 772 508 q 662 90 772 199 q 399 -19 553 -19 q 136 90 244 -19 q 101 127 114 111 l 191 127 q 399 46 279 46 q 617 136 527 46 q 707 353 707 225 q 705 387 707 371 l 288 387 l 288 450 l 693 450 z "},"ю":{"ha":1166,"x_min":77,"x_max":1112,"o":"m 522 571 q 477 525 522 571 q 432 353 432 480 q 522 136 432 225 q 740 46 612 46 q 957 136 867 46 q 1047 353 1047 225 q 957 571 1047 480 q 740 661 867 661 q 522 571 612 661 m 368 330 l 137 330 l 137 0 l 77 0 l 77 666 l 137 666 l 137 391 l 369 391 q 477 617 381 522 q 740 726 586 726 q 1003 617 895 726 q 1112 353 1112 508 q 1003 90 1112 199 q 740 -19 895 -19 q 477 90 586 -19 q 368 330 376 191 z "},"я":{"ha":612,"x_min":54,"x_max":534,"o":"m 474 604 l 268 604 l 268 604 q 159 566 201 601 q 115 470 115 530 q 159 375 115 410 q 268 336 201 339 l 268 335 l 474 335 l 474 604 m 534 666 l 534 0 l 474 0 l 474 274 l 311 274 l 296 242 l 257 159 l 183 0 l 116 0 l 245 276 q 116 332 170 285 q 54 469 54 387 l 54 470 q 116 608 54 553 q 265 665 177 661 l 265 666 l 534 666 z "},"ё":{"ha":798,"x_min":61,"x_max":737,"o":"m 229 125 q 433 46 315 46 q 651 136 561 46 q 673 160 663 148 l 737 137 q 697 90 720 113 q 433 -19 588 -19 q 170 90 279 -19 q 61 354 61 199 q 170 617 61 508 q 433 726 279 726 q 665 647 566 726 q 697 617 681 633 q 709 605 703 611 l 663 559 l 229 125 m 618 600 q 433 661 538 661 q 216 571 307 661 q 126 354 126 481 q 187 170 126 249 l 618 600 m 298 902 q 341 884 323 902 q 359 842 359 867 q 341 798 359 816 q 298 781 323 781 q 255 798 273 781 q 237 842 237 816 q 255 884 237 867 q 298 902 273 902 m 501 902 q 544 884 526 902 q 562 842 562 867 q 544 798 562 816 q 501 781 526 781 q 458 798 476 781 q 440 842 440 816 q 458 884 440 867 q 501 902 476 902 z "},"ђ":{"ha":684,"x_min":16,"x_max":607,"o":"m 546 439 q 485 585 546 525 q 339 644 423 644 q 195 585 255 644 q 154 530 167 559 l 154 0 l 92 0 l 92 870 l 16 870 l 16 930 l 92 930 l 92 1085 l 154 1085 l 154 930 l 302 930 l 302 870 l 154 870 l 154 631 q 339 706 231 706 q 531 632 457 706 q 607 446 605 557 l 607 -39 q 551 -178 607 -121 q 413 -234 495 -234 l 413 -173 q 508 -134 469 -173 q 546 -31 546 -97 l 546 439 z "},"ѓ":{"ha":466,"x_min":77,"x_max":412,"o":"m 137 604 l 137 0 l 77 0 l 77 666 l 412 666 l 412 604 l 137 604 m 393 941 l 227 814 l 170 814 l 281 941 l 393 941 z "},"є":{"ha":830,"x_min":55,"x_max":772,"o":"m 538 450 l 538 387 l 121 387 q 119 353 119 371 q 210 136 119 225 q 427 46 300 46 q 635 127 547 46 l 726 127 q 691 90 713 111 q 427 -19 582 -19 q 164 90 273 -19 q 55 353 55 199 q 164 617 55 508 q 427 726 273 726 q 691 617 582 726 q 772 488 749 559 l 703 488 q 645 571 682 534 q 427 661 555 661 q 209 571 300 661 q 133 450 155 516 l 538 450 z "},"ѕ":{"ha":544,"x_min":78,"x_max":473,"o":"m 285 342 q 177 414 207 385 q 130 527 130 461 q 177 641 130 593 q 290 688 224 688 q 399 644 356 688 q 441 547 441 602 l 441 544 l 389 523 q 356 600 382 574 q 290 626 331 626 q 220 597 249 626 q 191 527 191 568 q 220 457 191 486 q 292 406 237 440 q 415 321 378 358 q 473 182 473 263 q 415 42 473 100 q 275 -16 357 -16 q 136 42 193 -16 q 78 169 78 100 l 138 184 q 179 85 138 125 q 275 45 219 45 q 372 85 332 45 q 412 182 412 125 q 372 279 412 239 q 285 342 351 300 z "},"і":{"ha":292,"x_min":85,"x_max":207,"o":"m 176 666 l 176 0 l 115 0 l 115 666 l 176 666 m 146 902 q 189 884 171 902 q 207 842 207 867 q 189 798 207 816 q 146 781 171 781 q 103 798 121 781 q 85 842 85 816 q 103 884 85 867 q 146 902 121 902 z "},"ї":{"ha":292,"x_min":-17,"x_max":309,"o":"m 176 666 l 176 0 l 115 0 l 115 666 l 176 666 m 44 902 q 87 884 69 902 q 105 842 105 867 q 87 798 105 816 q 44 781 69 781 q 1 798 19 781 q -17 842 -17 816 q 1 884 -17 867 q 44 902 19 902 m 248 902 q 291 884 273 902 q 309 842 309 867 q 291 798 309 816 q 248 781 273 781 q 204 798 222 781 q 186 842 186 816 q 204 884 186 867 q 248 902 222 902 z "},"ј":{"ha":309,"x_min":33,"x_max":207,"o":"m 33 -94 q 115 -1 115 -84 l 115 666 l 176 666 l 176 0 q 33 -155 176 -143 l 33 -94 m 146 902 q 189 884 171 902 q 207 842 207 867 q 189 798 207 816 q 146 781 171 781 q 103 798 121 781 q 85 842 85 816 q 103 884 85 867 q 146 902 121 902 z "},"љ":{"ha":1240,"x_min":40,"x_max":1186,"o":"m 689 61 l 972 61 l 972 62 q 1082 101 1038 65 q 1125 195 1125 136 q 1082 292 1125 256 q 972 330 1038 327 l 972 331 l 689 331 l 689 61 m 627 604 l 182 604 l 182 153 q 40 -1 182 11 l 40 60 q 122 152 122 69 l 122 666 l 688 666 l 688 393 l 975 392 l 975 391 q 1124 334 1063 387 q 1186 196 1186 279 l 1186 195 q 1124 58 1186 113 q 975 1 1063 5 l 975 0 l 627 0 l 627 604 z "},"њ":{"ha":1185,"x_min":69,"x_max":1132,"o":"m 635 61 l 918 61 l 918 62 q 1027 101 984 65 q 1071 195 1071 136 q 1027 292 1071 256 q 918 330 984 327 l 918 331 l 635 331 l 635 61 m 574 0 l 574 330 l 130 330 l 130 0 l 69 0 l 69 666 l 130 666 l 130 391 l 574 391 l 574 666 l 635 666 l 635 392 l 920 392 l 920 391 q 1069 334 1008 387 q 1132 196 1132 279 l 1132 195 q 1069 58 1132 113 q 920 1 1008 5 l 920 0 l 574 0 z "},"ћ":{"ha":684,"x_min":16,"x_max":607,"o":"m 92 930 l 92 1085 l 154 1085 l 154 930 l 302 930 l 302 870 l 154 870 l 154 631 q 339 706 231 706 q 531 632 457 706 q 607 446 605 557 l 607 0 l 546 0 l 546 439 q 485 585 546 525 q 339 644 423 644 q 195 585 255 644 q 154 530 167 559 l 154 0 l 92 0 l 92 870 l 16 870 l 16 930 l 92 930 z "},"ќ":{"ha":566,"x_min":77,"x_max":575,"o":"m 478 666 l 314 463 l 575 0 l 500 0 l 274 414 l 138 263 l 138 0 l 77 0 l 77 666 l 138 666 l 138 361 l 399 666 l 478 666 m 398 935 l 232 808 l 175 808 l 286 935 l 398 935 z "},"ѝ":{"ha":690,"x_min":69,"x_max":621,"o":"m 69 666 l 130 666 l 130 102 l 555 666 l 621 666 l 621 0 l 560 0 l 560 569 l 130 1 l 130 0 l 69 0 l 69 666 m 308 941 l 418 814 l 361 814 l 195 941 l 308 941 z "},"ў":{"ha":682,"x_min":51,"x_max":631,"o":"m 341 60 l 191 -254 l 131 -254 l 311 123 l 51 666 l 120 666 l 341 189 l 562 666 l 631 666 l 341 59 l 341 60 m 232 907 q 263 846 237 871 q 342 813 296 813 q 420 846 387 813 q 451 907 446 871 l 500 907 q 454 810 495 851 q 342 764 408 764 q 229 810 275 764 q 182 907 184 855 l 232 907 z "},"џ":{"ha":704,"x_min":69,"x_max":635,"o":"m 321 0 l 69 0 l 69 666 l 130 666 l 130 61 l 574 61 l 574 666 l 635 666 l 635 0 l 382 0 l 382 -254 l 321 -254 l 321 0 z "},"Ґ":{"ha":642,"x_min":86,"x_max":604,"o":"m 561 1025 l 561 1023 l 148 1023 l 148 0 l 86 0 l 86 1085 l 543 1085 l 543 1269 l 604 1269 l 604 1025 l 561 1025 z "},"ґ":{"ha":492,"x_min":77,"x_max":454,"o":"m 137 604 l 137 0 l 77 0 l 77 666 l 393 666 l 393 849 l 454 849 l 454 604 l 137 604 z "},"Ẁ":{"ha":1134,"x_min":85,"x_max":1049,"o":"m 536 163 l 536 1085 l 597 1085 l 597 163 q 636 111 613 134 q 781 52 697 52 q 927 112 865 52 q 988 256 988 172 l 988 1085 l 1049 1085 l 1049 251 q 971 69 1047 145 q 781 -9 892 -9 q 592 68 671 -9 q 567 96 578 82 q 542 68 556 82 q 353 -9 463 -9 q 163 69 241 -9 q 85 251 87 145 l 85 1085 l 146 1085 l 146 256 q 207 112 146 172 q 353 52 269 52 q 498 111 437 52 q 536 163 521 134 m 531 1360 l 642 1233 l 585 1233 l 418 1360 l 531 1360 z "},"ẁ":{"ha":932,"x_min":102,"x_max":831,"o":"m 435 176 l 435 666 l 496 666 l 496 191 q 537 92 496 132 q 633 52 577 52 q 730 92 690 52 q 770 182 768 129 l 770 182 l 770 666 l 831 666 l 831 182 q 773 49 828 104 q 633 -9 715 -9 q 494 49 551 -9 q 467 81 478 64 q 439 49 455 64 q 299 -9 381 -9 q 159 49 217 -9 q 102 182 104 104 l 102 666 l 163 666 l 163 182 l 162 182 q 203 92 165 129 q 299 52 243 52 q 396 92 355 52 q 435 176 431 126 m 430 941 l 541 814 l 484 814 l 317 941 l 430 941 z "},"Ẃ":{"ha":1134,"x_min":85,"x_max":1049,"o":"m 536 163 l 536 1085 l 597 1085 l 597 163 q 636 111 613 134 q 781 52 697 52 q 927 112 865 52 q 988 256 988 172 l 988 1085 l 1049 1085 l 1049 251 q 971 69 1047 145 q 781 -9 892 -9 q 592 68 671 -9 q 567 96 578 82 q 542 68 556 82 q 353 -9 463 -9 q 163 69 241 -9 q 85 251 87 145 l 85 1085 l 146 1085 l 146 256 q 207 112 146 172 q 353 52 269 52 q 498 111 437 52 q 536 163 521 134 m 715 1360 l 549 1233 l 492 1233 l 603 1360 l 715 1360 z "},"ẃ":{"ha":932,"x_min":102,"x_max":831,"o":"m 435 176 l 435 666 l 496 666 l 496 191 q 537 92 496 132 q 633 52 577 52 q 730 92 690 52 q 770 182 768 129 l 770 182 l 770 666 l 831 666 l 831 182 q 773 49 828 104 q 633 -9 715 -9 q 494 49 551 -9 q 467 81 478 64 q 439 49 455 64 q 299 -9 381 -9 q 159 49 217 -9 q 102 182 104 104 l 102 666 l 163 666 l 163 182 l 162 182 q 203 92 165 129 q 299 52 243 52 q 396 92 355 52 q 435 176 431 126 m 615 941 l 449 814 l 392 814 l 503 941 l 615 941 z "},"Ẅ":{"ha":1134,"x_min":85,"x_max":1049,"o":"m 536 163 l 536 1085 l 597 1085 l 597 163 q 636 111 613 134 q 781 52 697 52 q 927 112 865 52 q 988 256 988 172 l 988 1085 l 1049 1085 l 1049 251 q 971 69 1047 145 q 781 -9 892 -9 q 592 68 671 -9 q 567 96 578 82 q 542 68 556 82 q 353 -9 463 -9 q 163 69 241 -9 q 85 251 87 145 l 85 1085 l 146 1085 l 146 256 q 207 112 146 172 q 353 52 269 52 q 498 111 437 52 q 536 163 521 134 m 465 1321 q 508 1303 490 1321 q 526 1261 526 1286 q 508 1217 526 1235 q 465 1200 490 1200 q 422 1217 440 1200 q 404 1261 404 1235 q 422 1303 404 1286 q 465 1321 440 1321 m 669 1321 q 712 1303 694 1321 q 730 1261 730 1286 q 712 1217 730 1235 q 669 1200 694 1200 q 626 1217 644 1200 q 608 1261 608 1235 q 626 1303 608 1286 q 669 1321 644 1321 z "},"ẅ":{"ha":932,"x_min":102,"x_max":831,"o":"m 435 176 l 435 666 l 496 666 l 496 191 q 537 92 496 132 q 633 52 577 52 q 730 92 690 52 q 770 182 768 129 l 770 182 l 770 666 l 831 666 l 831 182 q 773 49 828 104 q 633 -9 715 -9 q 494 49 551 -9 q 467 81 478 64 q 439 49 455 64 q 299 -9 381 -9 q 159 49 217 -9 q 102 182 104 104 l 102 666 l 163 666 l 163 182 l 162 182 q 203 92 165 129 q 299 52 243 52 q 396 92 355 52 q 435 176 431 126 m 365 902 q 408 884 390 902 q 426 842 426 867 q 408 798 426 816 q 365 781 390 781 q 322 798 340 781 q 304 842 304 816 q 322 884 304 867 q 365 902 340 902 m 568 902 q 611 884 593 902 q 629 842 629 867 q 611 798 629 816 q 568 781 593 781 q 525 798 543 781 q 507 842 507 816 q 525 884 507 867 q 568 902 543 902 z "},"Ỳ":{"ha":876,"x_min":34,"x_max":842,"o":"m 407 439 l 34 1085 l 104 1085 l 437 507 l 772 1085 l 842 1085 l 468 439 l 468 0 l 407 0 l 407 439 m 401 1360 l 512 1233 l 455 1233 l 289 1360 l 401 1360 z "},"ỳ":{"ha":682,"x_min":51,"x_max":631,"o":"m 341 60 l 191 -254 l 131 -254 l 311 123 l 51 666 l 120 666 l 341 189 l 562 666 l 631 666 l 341 59 l 341 60 m 304 941 l 415 814 l 358 814 l 192 941 l 304 941 z "},"–":{"ha":591,"x_min":34,"x_max":557,"o":"m 34 432 l 557 432 l 557 371 l 34 371 l 34 432 z "},"—":{"ha":1022,"x_min":34,"x_max":988,"o":"m 34 432 l 988 432 l 988 371 l 34 371 l 34 432 z "},"―":{"ha":2083,"x_min":-51,"x_max":1381,"o":"m -51 432 l 1381 432 l 1381 371 l -51 371 l -51 432 z "},"‗":{"ha":712,"x_min":17,"x_max":695,"o":"m 17 -173 l 695 -173 l 695 -234 l 17 -234 l 17 -173 m 17 -20 l 695 -20 l 695 -81 l 17 -81 l 17 -20 z "},"‘":{"ha":190,"x_min":34,"x_max":156,"o":"m 111 991 q 138 975 126 987 q 156 932 156 958 q 138 889 156 907 q 95 871 120 871 q 52 889 70 871 q 34 932 34 907 q 39 958 34 946 l 105 1093 l 149 1093 l 111 991 z "},"’":{"ha":190,"x_min":34,"x_max":156,"o":"m 79 973 q 52 989 64 977 q 34 1032 34 1006 q 52 1075 34 1057 q 95 1093 70 1093 q 138 1075 120 1093 q 156 1032 156 1057 q 151 1006 156 1018 l 85 871 l 41 871 l 79 973 z "},"‚":{"ha":190,"x_min":34,"x_max":156,"o":"m 79 -9 q 52 7 64 -5 q 34 50 34 24 q 52 93 34 75 q 95 111 70 111 q 138 93 120 111 q 156 50 156 75 q 151 24 156 36 l 85 -111 l 41 -111 l 79 -9 z "},"‛":{"ha":190,"x_min":224,"x_max":346,"o":"m 339 871 l 295 871 l 229 1006 q 224 1032 224 1018 q 242 1075 224 1057 q 285 1093 260 1093 q 328 1075 310 1093 q 346 1032 346 1057 q 328 989 346 1006 q 300 973 316 977 l 339 871 z "},"“":{"ha":361,"x_min":34,"x_max":327,"o":"m 111 991 q 138 975 126 987 q 156 932 156 958 q 138 889 156 907 q 95 871 120 871 q 52 889 70 871 q 34 932 34 907 q 39 958 34 946 l 105 1093 l 149 1093 l 111 991 m 281 991 q 309 975 297 987 q 327 932 327 958 q 309 889 327 907 q 266 871 291 871 q 223 889 241 871 q 205 932 205 907 q 210 958 205 946 l 276 1093 l 320 1093 l 281 991 z "},"”":{"ha":361,"x_min":34,"x_max":327,"o":"m 79 973 q 52 989 64 977 q 34 1032 34 1006 q 52 1075 34 1057 q 95 1093 70 1093 q 138 1075 120 1093 q 156 1032 156 1057 q 151 1006 156 1018 l 85 871 l 41 871 l 79 973 m 250 973 q 223 989 235 977 q 205 1032 205 1006 q 223 1075 205 1057 q 266 1093 241 1093 q 309 1075 291 1093 q 327 1032 327 1057 q 322 1006 327 1018 l 256 871 l 212 871 l 250 973 z "},"„":{"ha":361,"x_min":34,"x_max":327,"o":"m 79 -9 q 52 7 64 -5 q 34 50 34 24 q 52 93 34 75 q 95 111 70 111 q 138 93 120 111 q 156 50 156 75 q 151 24 156 36 l 85 -111 l 41 -111 l 79 -9 m 250 -9 q 223 7 235 -5 q 205 50 205 24 q 223 93 205 75 q 266 111 241 111 q 309 93 291 111 q 327 50 327 75 q 322 24 327 36 l 256 -111 l 212 -111 l 250 -9 z "},"†":{"ha":514,"x_min":68,"x_max":446,"o":"m 237 1082 l 237 1230 l 277 1230 l 277 1082 l 446 1082 l 446 1043 l 277 1043 l 277 117 l 237 117 l 237 1043 l 68 1043 l 68 1082 l 237 1082 z "},"‡":{"ha":514,"x_min":68,"x_max":446,"o":"m 237 1043 l 68 1043 l 68 1082 l 237 1082 l 237 1230 l 277 1230 l 277 1082 l 446 1082 l 446 1043 l 277 1043 l 277 714 l 446 714 l 446 675 l 277 675 l 277 117 l 237 117 l 237 675 l 68 675 l 68 714 l 237 714 l 237 1043 z "},"•":{"ha":514,"x_min":153,"x_max":361,"o":"m 258 607 q 330 577 299 607 q 361 504 361 547 q 330 431 361 461 q 258 401 299 401 q 184 431 215 401 q 153 504 153 461 q 184 577 153 547 q 258 607 215 607 z "},"…":{"ha":1457,"x_min":68,"x_max":1116,"o":"m 129 112 q 172 94 154 112 q 190 52 190 77 q 172 8 190 26 q 129 -9 154 -9 q 86 8 104 -9 q 68 52 68 26 q 86 94 68 77 q 129 112 104 112 m 592 112 q 635 94 617 112 q 653 52 653 77 q 635 8 653 26 q 592 -9 617 -9 q 549 8 567 -9 q 531 52 531 26 q 549 94 531 77 q 592 112 567 112 m 1055 112 q 1098 94 1080 112 q 1116 52 1116 77 q 1098 8 1116 26 q 1055 -9 1080 -9 q 1012 8 1030 -9 q 994 52 994 26 q 1012 94 994 77 q 1055 112 1030 112 z "},"‰":{"ha":1202,"x_min":54,"x_max":1147,"o":"m 751 891 l 128 2 l 78 37 l 701 926 l 751 891 m 211 824 q 322 778 276 824 q 368 667 368 732 q 322 556 368 602 q 211 511 276 511 q 100 556 146 511 q 54 667 54 602 q 100 778 54 732 q 211 824 146 824 m 211 765 q 142 736 170 765 q 113 667 113 708 q 142 598 113 627 q 211 570 170 570 q 280 598 251 570 q 309 667 309 627 q 280 736 309 708 q 211 765 251 765 m 618 417 q 729 371 683 417 q 774 260 774 326 q 729 150 774 195 q 618 104 683 104 q 507 150 553 104 q 461 260 461 195 q 507 371 461 326 q 618 417 553 417 m 618 358 q 549 330 577 358 q 520 260 520 301 q 549 191 520 220 q 618 163 577 163 q 687 191 658 163 q 715 260 715 220 q 687 330 715 301 q 618 358 658 358 m 991 417 q 1102 371 1056 417 q 1147 260 1147 326 q 1102 150 1147 195 q 991 104 1056 104 q 880 150 926 104 q 834 260 834 195 q 880 371 834 326 q 991 417 926 417 m 991 358 q 922 330 950 358 q 893 260 893 301 q 922 191 893 220 q 991 163 950 163 q 1060 191 1031 163 q 1088 260 1088 220 q 1060 330 1088 301 q 991 358 1031 358 z "},"′":{"ha":231,"x_min":85,"x_max":146,"o":"m 85 676 l 85 1083 l 146 1083 l 146 676 l 85 676 z "},"″":{"ha":353,"x_min":85,"x_max":268,"o":"m 85 676 l 85 1083 l 146 1083 l 146 676 l 85 676 m 207 676 l 207 1083 l 268 1083 l 268 676 l 207 676 z "},"‹":{"ha":427,"x_min":68,"x_max":359,"o":"m 68 313 l 359 625 l 359 555 l 134 313 l 359 72 l 359 1 l 68 313 z "},"›":{"ha":427,"x_min":68,"x_max":359,"o":"m 68 1 l 68 72 l 292 313 l 68 555 l 68 625 l 359 313 l 68 1 z "},"‼":{"ha":583,"x_min":85,"x_max":498,"o":"m 146 112 q 189 94 171 112 q 207 52 207 77 q 189 8 207 26 q 146 -9 171 -9 q 103 8 121 -9 q 85 52 85 26 q 103 94 85 77 q 146 112 121 112 m 175 1085 l 175 187 l 114 187 l 114 1085 l 175 1085 m 437 112 q 480 94 463 112 q 498 52 498 77 q 480 8 498 26 q 437 -9 463 -9 q 394 8 412 -9 q 376 52 376 26 q 394 94 376 77 q 437 112 412 112 m 467 1085 l 467 187 l 406 187 l 406 1085 l 467 1085 z "},"‾":{"ha":712,"x_min":17,"x_max":695,"o":"m 17 1227 l 695 1227 l 695 1166 l 17 1166 l 17 1227 z "},"⁄":{"ha":62,"x_min":-271,"x_max":401,"o":"m 401 970 l -221 81 l -271 115 l 351 1004 l 401 970 z "},"ⁿ":{"ha":726,"x_min":102,"x_max":625,"o":"m 163 897 l 163 379 l 102 379 l 102 1045 l 163 1045 l 163 1002 q 357 1085 246 1085 q 549 1011 475 1085 q 625 825 623 937 l 625 379 l 564 379 l 564 819 q 502 964 564 904 q 357 1024 441 1024 q 212 965 273 1024 q 163 897 178 932 z "},"₣":{"ha":686,"x_min":34,"x_max":618,"o":"m 144 317 l 144 1085 l 618 1085 l 618 1024 l 205 1024 l 205 573 l 618 573 l 618 512 l 205 512 l 205 317 l 400 317 l 400 256 l 205 256 l 205 0 l 144 0 l 144 256 l 34 256 l 34 317 l 144 317 z "},"₤":{"ha":766,"x_min":68,"x_max":699,"o":"m 203 512 q 178 566 191 539 q 93 798 102 688 q 92 824 92 811 q 154 993 92 918 q 334 1086 224 1076 q 360 1087 347 1087 q 530 1025 454 1087 q 624 844 614 954 q 626 814 626 828 q 611 736 626 771 l 553 756 q 563 821 563 785 q 562 840 563 830 q 490 977 554 923 q 361 1025 433 1025 q 342 1024 351 1025 q 203 952 258 1017 q 156 824 156 895 q 157 804 156 814 q 210 630 163 727 q 269 512 245 572 l 426 512 l 426 451 l 289 451 q 304 370 300 411 l 426 370 l 426 309 l 309 309 q 193 43 304 174 q 360 73 278 73 q 457 62 409 73 q 585 47 524 47 q 687 59 639 47 l 699 -1 q 585 -15 644 -15 q 460 0 524 -15 q 343 14 394 14 q 264 3 297 14 q 127 -56 193 -23 l 68 14 q 174 115 152 88 q 247 309 245 200 l 87 309 l 87 370 l 242 370 q 224 451 237 410 l 87 451 l 87 512 l 203 512 z "},"₧":{"ha":1258,"x_min":102,"x_max":1187,"o":"m 157 1023 l 157 438 l 323 438 q 509 524 431 438 q 586 731 586 610 q 509 938 586 852 q 323 1023 431 1023 l 157 1023 m 622 605 q 548 480 599 536 q 323 376 454 376 l 157 376 l 157 0 l 102 0 l 102 1085 l 358 1085 q 548 981 469 1068 q 642 731 642 878 q 637 666 642 697 l 694 666 l 694 949 l 755 949 l 755 666 l 923 666 q 1004 688 959 688 q 1114 644 1070 688 q 1156 547 1156 602 l 1156 544 l 1103 523 q 1070 600 1096 574 q 1004 626 1045 626 q 934 597 963 626 q 905 527 905 568 q 934 457 905 486 q 1006 406 951 440 q 1129 321 1093 358 q 1187 182 1187 263 q 1129 42 1187 100 q 989 -16 1072 -16 q 850 42 907 -16 q 792 169 792 100 l 852 184 q 893 85 852 125 q 989 45 933 45 q 1086 85 1046 45 q 1126 182 1126 125 q 1086 279 1126 239 q 999 342 1065 300 q 891 414 921 385 q 844 527 844 461 q 864 605 844 570 l 755 605 l 755 0 l 694 0 l 694 605 l 622 605 z "},"€":{"ha":983,"x_min":68,"x_max":916,"o":"m 182 600 l 182 713 q 291 976 182 867 q 554 1085 400 1085 q 817 976 709 1085 l 772 930 q 554 1020 682 1020 q 336 930 427 1020 q 246 713 246 840 l 246 600 l 692 600 l 680 539 l 246 539 l 246 458 l 663 458 l 651 397 l 246 397 l 246 353 q 336 136 246 226 q 554 46 427 46 q 772 136 682 46 q 849 262 827 192 l 916 262 q 817 90 892 165 q 554 -19 709 -19 q 291 90 400 -19 q 182 353 182 199 l 182 397 l 68 397 l 80 458 l 182 458 l 182 539 l 96 539 l 109 600 l 182 600 z "},"℅":{"ha":1341,"x_min":61,"x_max":1280,"o":"m 520 661 l 568 643 q 538 608 555 625 q 341 526 457 526 q 143 608 225 526 q 61 806 61 690 q 143 1003 61 921 q 341 1085 225 1085 q 538 1003 457 1085 q 568 969 555 987 l 520 951 q 504 969 513 960 q 341 1036 436 1036 q 178 969 245 1036 q 110 806 110 902 q 178 643 110 710 q 341 575 245 575 q 504 643 436 575 q 520 661 513 651 m 1015 970 l 393 81 l 342 115 l 965 1004 l 1015 970 m 1000 545 q 1198 463 1116 545 q 1280 265 1280 381 q 1198 68 1280 150 q 1000 -14 1116 -14 q 803 68 885 -14 q 721 265 721 150 q 803 463 721 381 q 1000 545 885 545 m 1000 496 q 837 428 905 496 q 770 265 770 361 q 837 102 770 169 q 1000 35 905 35 q 1164 102 1096 35 q 1231 265 1231 169 q 1164 428 1231 361 q 1000 496 1096 496 z "},"№":{"ha":1393,"x_min":85,"x_max":1308,"o":"m 1284 1046 l 1308 1046 l 1308 618 l 827 618 l 827 642 l 1284 642 l 1284 1046 m 1019 767 q 1124 806 1087 770 q 1163 901 1163 845 q 1124 996 1163 957 q 1019 1036 1087 1032 q 913 996 950 1032 q 874 901 874 957 q 913 806 874 845 q 1019 767 950 770 m 1008 715 q 876 769 930 715 q 822 901 822 824 q 876 1033 822 979 q 1008 1088 930 1088 l 1028 1088 q 1160 1033 1106 1088 q 1215 901 1215 979 q 1160 769 1215 824 q 1028 715 1106 715 l 1008 715 m 85 1085 l 152 1085 l 709 120 l 709 1085 l 770 1085 l 770 0 l 709 0 l 146 975 l 146 0 l 85 0 l 85 1085 z "},"™":{"ha":848,"x_min":68,"x_max":781,"o":"m 337 1055 l 230 1055 l 230 646 l 191 646 l 191 1055 l 68 1055 l 68 1090 l 375 1090 l 556 813 l 736 1090 l 781 1090 l 774 1082 l 774 646 l 736 646 l 736 1023 l 556 745 l 375 1023 l 375 646 l 337 646 l 337 1055 z "},"Ω":{"ha":1080,"x_min":61,"x_max":1019,"o":"m 545 1085 q 889 934 760 1085 q 1019 526 1019 783 q 916 209 1019 337 q 730 60 812 81 l 950 60 l 950 0 l 587 0 l 587 60 q 846 213 734 94 q 958 526 958 332 q 845 896 958 758 q 542 1034 732 1034 l 538 1034 q 235 896 349 1034 q 122 526 122 758 q 234 213 122 332 q 493 60 347 94 l 493 0 l 130 0 l 130 60 l 351 60 q 164 209 268 81 q 61 526 61 337 q 191 934 61 783 q 535 1085 321 1085 l 545 1085 z "},"←":{"ha":1227,"x_min":77,"x_max":1149,"o":"m 193 653 l 193 567 l 1149 567 l 1149 505 l 193 505 l 193 419 l 77 536 l 193 653 z "},"↑":{"ha":694,"x_min":230,"x_max":464,"o":"m 464 959 l 377 959 l 377 2 l 316 2 l 316 959 l 230 959 l 347 1075 l 464 959 z "},"→":{"ha":1227,"x_min":77,"x_max":1149,"o":"m 1149 536 l 1034 419 l 1034 505 l 77 505 l 77 567 l 1034 567 l 1034 653 l 1149 536 z "},"↓":{"ha":694,"x_min":230,"x_max":464,"o":"m 347 2 l 230 118 l 316 118 l 316 1075 l 377 1075 l 377 118 l 464 118 l 347 2 z "},"↔":{"ha":1227,"x_min":77,"x_max":1149,"o":"m 1034 567 l 1034 653 l 1149 536 l 1034 419 l 1034 505 l 193 505 l 193 419 l 77 536 l 193 653 l 193 567 l 1034 567 z "},"↕":{"ha":1227,"x_min":496,"x_max":730,"o":"m 644 118 l 730 118 l 614 2 l 496 118 l 583 118 l 583 959 l 496 959 l 614 1075 l 730 959 l 644 959 l 644 118 z "},"↨":{"ha":1227,"x_min":497,"x_max":731,"o":"m 645 118 l 731 118 l 614 2 l 497 118 l 584 118 l 584 959 l 497 959 l 614 1075 l 731 959 l 645 959 l 645 118 m 497 1141 l 731 1141 l 731 1080 l 497 1080 l 497 1141 m 497 0 l 731 0 l 731 -62 l 497 -62 l 497 0 z "},"∂":{"ha":671,"x_min":39,"x_max":633,"o":"m 568 519 q 106 242 197 473 q 97 178 97 207 q 260 58 97 59 q 568 519 480 81 m 570 575 q 575 697 575 642 q 431 1021 575 994 q 376 1026 402 1026 q 154 898 242 1026 l 125 954 q 370 1075 225 1075 q 470 1062 417 1075 q 633 715 633 1021 q 618 511 633 625 q 258 7 541 14 q 39 175 39 7 q 48 250 39 209 q 570 575 134 522 z "},"∆":{"ha":846,"x_min":-23,"x_max":846,"o":"m 23 1 l -23 1 l 372 1085 l 446 1085 l 846 0 l 23 0 l 23 1 m 759 61 l 409 1008 l 64 61 l 759 61 z "},"∏":{"ha":899,"x_min":72,"x_max":827,"o":"m 134 1023 l 134 -254 l 72 -254 l 72 1085 l 827 1085 l 827 -254 l 766 -254 l 766 1023 l 134 1023 z "},"∑":{"ha":804,"x_min":39,"x_max":734,"o":"m 734 1085 l 734 1023 l 131 1023 l 414 416 l 131 -192 l 734 -192 l 734 -254 l 39 -254 l 346 416 l 39 1085 l 734 1085 z "},"−":{"ha":712,"x_min":85,"x_max":627,"o":"m 85 432 l 627 432 l 627 371 l 85 371 l 85 432 z "},"√":{"ha":1041,"x_min":39,"x_max":1041,"o":"m 588 199 l 976 1180 l 1041 1180 l 564 -54 l 136 487 l 69 457 l 39 496 l 239 609 l 588 199 z "},"∞":{"ha":821,"x_min":55,"x_max":765,"o":"m 716 553 q 670 665 716 618 q 557 712 623 712 q 441 667 491 712 q 375 534 393 622 q 441 403 393 447 q 557 357 491 357 q 670 404 623 357 q 716 553 716 451 m 765 553 q 704 371 765 431 q 557 310 643 310 q 407 369 471 310 q 346 463 363 410 q 301 411 337 444 q 204 378 266 378 q 99 421 142 378 q 55 543 55 464 q 99 649 55 606 q 204 693 142 693 q 301 660 266 693 q 346 606 337 626 q 407 701 363 659 q 557 760 471 760 q 704 699 643 760 q 765 553 765 638 m 102 536 q 132 456 102 486 q 204 426 161 426 q 277 455 246 426 q 323 534 307 484 q 277 615 307 586 q 204 644 246 644 q 132 614 161 644 q 102 536 102 585 z "},"∫":{"ha":381,"x_min":24,"x_max":358,"o":"m 221 -54 q 24 -246 213 -246 l 24 -190 q 160 -56 153 -190 l 160 971 q 357 1164 176 1164 l 358 1115 q 221 973 235 1111 l 221 -54 z "},"≈":{"ha":866,"x_min":85,"x_max":781,"o":"m 433 675 q 618 602 560 602 q 636 604 628 602 q 709 671 688 619 q 720 724 720 697 l 781 714 q 766 648 779 682 q 660 548 734 573 q 622 543 643 543 q 433 610 551 543 q 248 684 304 684 q 230 682 238 684 q 157 614 178 666 q 146 562 146 587 l 85 571 q 100 637 86 604 q 206 737 131 712 q 243 743 223 743 q 433 675 315 743 m 433 475 q 618 401 560 401 q 636 404 628 401 q 709 471 688 419 q 720 524 720 497 l 781 514 q 766 448 779 481 q 660 348 734 373 q 622 342 643 342 q 433 410 551 342 q 248 484 304 484 q 230 481 238 484 q 157 414 178 466 q 146 361 146 387 l 85 371 q 100 437 86 404 q 206 537 131 512 q 243 543 223 543 q 433 475 315 543 z "},"≠":{"ha":712,"x_min":76,"x_max":637,"o":"m 85 541 l 628 541 l 628 479 l 85 479 l 85 541 m 85 323 l 628 323 l 628 262 l 85 262 l 85 323 m 567 673 l 637 673 l 145 130 l 76 130 l 567 673 z "},"≡":{"ha":712,"x_min":85,"x_max":627,"o":"m 85 432 l 627 432 l 627 371 l 85 371 l 85 432 m 85 310 l 627 310 l 627 249 l 85 249 l 85 310 m 85 554 l 627 554 l 627 493 l 85 493 l 85 554 z "},"≤":{"ha":915,"x_min":68,"x_max":847,"o":"m 847 98 l 68 382 l 847 665 l 847 600 l 246 382 l 847 163 l 847 98 m 101 61 l 847 61 l 847 0 l 101 0 l 101 61 z "},"≥":{"ha":915,"x_min":68,"x_max":847,"o":"m 68 163 l 669 382 l 68 600 l 68 665 l 847 382 l 68 98 l 68 163 m 68 61 l 814 61 l 814 0 l 68 0 l 68 61 z "},"⌠":{"ha":428,"x_min":153,"x_max":351,"o":"m 214 -245 l 153 -245 l 153 971 q 351 1164 169 1164 l 351 1115 q 214 973 229 1111 l 214 -245 z "},"⌡":{"ha":428,"x_min":77,"x_max":275,"o":"m 214 1164 l 275 1164 l 275 -53 q 77 -245 259 -245 l 77 -197 q 214 -55 199 -193 l 214 1164 z "},"":{"ha":663,"x_min":61,"x_max":562,"o":"m 500 902 q 544 884 526 902 q 562 842 562 867 q 544 798 562 816 q 500 781 526 781 q 457 798 475 781 q 439 842 439 816 q 457 884 439 867 q 500 902 475 902 m 470 605 l 190 605 l 190 0 l 129 0 l 129 605 l 61 605 l 61 666 l 129 666 l 129 846 q 186 976 133 922 q 315 1027 242 1027 q 395 1013 353 1027 l 376 959 q 321 971 347 971 q 230 932 273 971 q 190 842 192 895 l 190 666 l 531 666 l 531 0 q 388 -155 531 -143 l 388 -94 q 470 -1 470 -84 l 470 605 z "},"":{"ha":761,"x_min":61,"x_max":727,"o":"m 456 605 l 190 605 l 190 0 l 129 0 l 129 605 l 61 605 l 61 666 l 129 666 l 129 846 q 186 976 133 922 q 315 1027 242 1027 q 395 1013 353 1027 l 376 959 q 321 971 347 971 q 230 932 273 971 q 190 842 192 895 l 190 666 l 517 666 l 517 545 q 562 597 536 572 q 727 682 642 677 l 727 615 q 608 551 669 612 q 517 344 521 465 l 517 0 l 456 0 l 456 605 z "},"":{"ha":640,"x_min":14,"x_max":606,"o":"m 142 666 l 409 666 l 409 956 q 307 971 361 971 q 182 932 225 971 q 142 842 144 895 l 142 666 m 81 666 l 81 846 q 139 976 85 922 q 301 1027 195 1027 q 470 990 400 1027 l 470 666 l 606 666 l 606 605 l 470 605 l 470 0 l 409 0 l 409 605 l 142 605 l 142 0 l 81 0 l 81 605 l 14 605 l 14 666 l 81 666 z "},"":{"ha":1036,"x_min":61,"x_max":985,"o":"m 435 605 l 190 605 l 190 0 l 129 0 l 129 605 l 61 605 l 61 666 l 129 666 l 129 846 q 186 976 133 922 q 315 1027 242 1027 q 395 1013 353 1027 l 376 959 q 321 971 347 971 q 230 932 273 971 q 190 842 192 895 l 190 666 l 475 666 l 696 189 l 917 666 l 985 666 l 696 59 l 696 60 l 545 -254 l 486 -254 l 665 123 l 435 605 z "},"":{"ha":1164,"x_min":61,"x_max":1103,"o":"m 190 605 l 190 0 l 129 0 l 129 605 l 61 605 l 61 666 l 129 666 l 129 846 q 186 976 133 922 q 315 1027 242 1027 q 395 1013 353 1027 l 376 959 q 321 971 347 971 q 230 932 273 971 q 190 842 192 895 l 190 666 l 484 666 l 484 846 q 541 976 488 922 q 669 1027 597 1027 q 749 1013 707 1027 l 730 959 q 675 971 702 971 q 585 932 627 971 q 545 842 547 895 l 545 666 l 906 666 l 906 949 l 967 949 l 967 666 l 1103 666 l 1103 605 l 967 605 l 967 0 l 906 0 l 906 605 l 545 605 l 545 0 l 484 0 l 484 605 l 190 605 z "},"":{"ha":1391,"x_min":61,"x_max":1340,"o":"m 190 605 l 190 0 l 129 0 l 129 605 l 61 605 l 61 666 l 129 666 l 129 846 q 186 976 133 922 q 315 1027 242 1027 q 395 1013 353 1027 l 376 959 q 321 971 347 971 q 230 932 273 971 q 190 842 192 895 l 190 666 l 484 666 l 484 846 q 541 976 488 922 q 669 1027 597 1027 q 749 1013 707 1027 l 730 959 q 675 971 702 971 q 585 932 627 971 q 545 842 547 895 l 545 666 l 829 666 l 1050 189 l 1272 666 l 1340 666 l 1050 59 l 1050 60 l 900 -254 l 840 -254 l 1020 123 l 789 605 l 545 605 l 545 0 l 484 0 l 484 605 l 190 605 z "},"":{"ha":1491,"x_min":61,"x_max":1440,"o":"m 190 605 l 190 0 l 129 0 l 129 605 l 61 605 l 61 666 l 129 666 l 129 846 q 186 976 133 922 q 315 1027 242 1027 q 395 1013 353 1027 l 376 959 q 321 971 347 971 q 230 932 273 971 q 190 842 192 895 l 190 666 l 551 666 l 551 949 l 612 949 l 612 666 l 929 666 l 1150 189 l 1371 666 l 1440 666 l 1150 59 l 1150 60 l 1000 -254 l 940 -254 l 1120 123 l 889 605 l 612 605 l 612 0 l 551 0 l 551 605 l 190 605 z "},"":{"ha":861,"x_min":61,"x_max":827,"o":"m 556 605 l 258 605 l 258 0 l 197 0 l 197 605 l 61 605 l 61 666 l 197 666 l 197 949 l 258 949 l 258 666 l 617 666 l 617 545 q 661 597 636 572 q 827 682 742 677 l 827 615 q 707 551 769 612 q 617 344 621 465 l 617 0 l 556 0 l 556 605 z "},"":{"ha":909,"x_min":61,"x_max":848,"o":"m 258 605 l 258 0 l 197 0 l 197 605 l 61 605 l 61 666 l 197 666 l 197 949 l 258 949 l 258 666 l 651 666 l 651 949 l 712 949 l 712 666 l 848 666 l 848 605 l 712 605 l 712 0 l 651 0 l 651 605 l 258 605 z "},"":{"ha":1136,"x_min":61,"x_max":1085,"o":"m 534 605 l 258 605 l 258 0 l 197 0 l 197 605 l 61 605 l 61 666 l 197 666 l 197 949 l 258 949 l 258 666 l 576 666 l 576 662 l 795 189 l 1017 666 l 1085 666 l 795 59 l 795 60 l 645 -254 l 585 -254 l 765 123 l 534 605 z "},"":{"ha":1133,"x_min":61,"x_max":1037,"o":"m 258 605 l 258 0 l 197 0 l 197 605 l 61 605 l 61 666 l 197 666 l 197 949 l 258 949 l 258 666 l 1011 666 l 662 62 l 1037 62 l 1037 0 l 556 0 l 905 605 l 258 605 z "},"":{"ha":646,"x_min":61,"x_max":562,"o":"m 190 0 l 129 0 l 129 605 l 61 605 l 61 666 l 129 666 l 129 846 q 186 976 133 922 q 315 1027 242 1027 q 395 1013 353 1027 l 376 959 q 321 971 347 971 q 230 932 273 971 q 190 842 192 895 l 190 0 m 531 666 l 531 0 l 470 0 l 470 666 l 531 666 m 500 902 q 544 884 526 902 q 562 842 562 867 q 544 798 562 816 q 500 781 526 781 q 457 798 475 781 q 439 842 439 816 q 457 884 439 867 q 500 902 475 902 z "},"":{"ha":619,"x_min":61,"x_max":517,"o":"m 456 956 q 355 971 409 971 q 230 932 273 971 q 190 842 192 895 l 190 0 l 129 0 l 129 605 l 61 605 l 61 666 l 129 666 l 129 846 q 186 976 133 922 q 349 1027 242 1027 q 517 990 448 1027 l 517 0 l 456 0 l 456 956 z "},"ﬀ":{"ha":709,"x_min":61,"x_max":749,"o":"m 190 605 l 190 0 l 129 0 l 129 605 l 61 605 l 61 666 l 129 666 l 129 846 q 186 976 133 922 q 315 1027 242 1027 q 395 1013 353 1027 l 376 959 q 321 971 347 971 q 230 932 273 971 q 190 842 192 895 l 190 666 l 484 666 l 484 846 q 541 976 488 922 q 669 1027 597 1027 q 749 1013 707 1027 l 730 959 q 675 971 702 971 q 585 932 627 971 q 545 842 547 895 l 545 666 l 680 666 l 680 605 l 545 605 l 545 0 l 484 0 l 484 605 l 190 605 z "},"ﬁ":{"ha":646,"x_min":61,"x_max":562,"o":"m 500 902 q 544 884 526 902 q 562 842 562 867 q 544 798 562 816 q 500 781 526 781 q 457 798 475 781 q 439 842 439 816 q 457 884 439 867 q 500 902 475 902 m 470 605 l 190 605 l 190 0 l 129 0 l 129 605 l 61 605 l 61 666 l 129 666 l 129 846 q 186 976 133 922 q 315 1027 242 1027 q 395 1013 353 1027 l 376 959 q 321 971 347 971 q 230 932 273 971 q 190 842 192 895 l 190 666 l 531 666 l 531 0 l 470 0 l 470 605 z "},"ﬂ":{"ha":619,"x_min":61,"x_max":517,"o":"m 456 956 q 355 971 409 971 q 230 932 273 971 q 190 842 192 895 l 190 666 l 326 666 l 326 605 l 190 605 l 190 0 l 129 0 l 129 605 l 61 605 l 61 666 l 129 666 l 129 846 q 186 976 133 922 q 349 1027 242 1027 q 517 990 448 1027 l 517 0 l 456 0 l 456 956 z "},"ﬃ":{"ha":1001,"x_min":61,"x_max":916,"o":"m 855 902 q 898 884 880 902 q 916 842 916 867 q 898 798 916 816 q 855 781 880 781 q 812 798 830 781 q 794 842 794 816 q 812 884 794 867 q 855 902 830 902 m 190 605 l 190 0 l 129 0 l 129 605 l 61 605 l 61 666 l 129 666 l 129 846 q 186 976 133 922 q 315 1027 242 1027 q 395 1013 353 1027 l 376 959 q 321 971 347 971 q 230 932 273 971 q 190 842 192 895 l 190 666 l 484 666 l 484 846 q 541 976 488 922 q 669 1027 597 1027 q 749 1013 707 1027 l 730 959 q 675 971 702 971 q 585 932 627 971 q 545 842 547 895 l 545 666 l 886 666 l 886 0 l 825 0 l 825 605 l 545 605 l 545 0 l 484 0 l 484 605 l 190 605 z "},"ﬄ":{"ha":974,"x_min":61,"x_max":872,"o":"m 190 605 l 190 0 l 129 0 l 129 605 l 61 605 l 61 666 l 129 666 l 129 846 q 186 976 133 922 q 315 1027 242 1027 q 395 1013 353 1027 l 376 959 q 321 971 347 971 q 230 932 273 971 q 190 842 192 895 l 190 666 l 484 666 l 484 846 q 541 976 488 922 q 703 1027 597 1027 q 872 990 802 1027 l 872 0 l 811 0 l 811 956 q 709 971 764 971 q 585 932 627 971 q 545 842 547 895 l 545 666 l 680 666 l 680 605 l 545 605 l 545 0 l 484 0 l 484 605 l 190 605 z "},"ﬅ":{"ha":640,"x_min":14,"x_max":606,"o":"m 409 605 l 273 605 l 273 666 l 409 666 l 409 956 q 307 971 361 971 q 182 932 225 971 q 142 842 144 895 l 142 0 l 81 0 l 81 605 l 14 605 l 14 666 l 81 666 l 81 846 q 139 976 85 922 q 301 1027 195 1027 q 470 990 400 1027 l 470 666 l 606 666 l 606 605 l 470 605 l 470 0 l 409 0 l 409 605 z "}}}
